<svg xmlns="http://www.w3.org/2000/svg" xmlns:xlink="http://www.w3.org/1999/xlink" width="56" zoomAndPan="magnify" viewBox="0 0 42 42" height="56" preserveAspectRatio="xMidYMid meet" version="1.0"><defs><clipPath id="f2c692d2f3"><path d="M 5.539062 2.480469 L 36.304688 2.480469 L 36.304688 38.375 L 5.539062 38.375 Z M 5.539062 2.480469 " clip-rule="nonzero"/></clipPath><clipPath id="47def8854a"><path d="M 17.257812 29.4375 L 18.726562 29.4375 L 18.726562 30.902344 L 17.257812 30.902344 Z M 17.257812 29.4375 " clip-rule="nonzero"/></clipPath><clipPath id="3846f23d9d"><path d="M 17.257812 29.4375 L 18 29.4375 L 18 30.902344 L 17.257812 30.902344 Z M 17.257812 29.4375 " clip-rule="nonzero"/></clipPath><clipPath id="2cfaf083ab"><path d="M 18 29.4375 L 18.726562 29.4375 L 18.726562 30.902344 L 18 30.902344 Z M 18 29.4375 " clip-rule="nonzero"/></clipPath><clipPath id="f009d699dd"><path d="M 18 29.4375 L 18.726562 29.4375 L 18.726562 30 L 18 30 Z M 18 29.4375 " clip-rule="nonzero"/></clipPath><clipPath id="287f071ec4"><path d="M 17.257812 29.4375 L 18 29.4375 L 18 30 L 17.257812 30 Z M 17.257812 29.4375 " clip-rule="nonzero"/></clipPath><clipPath id="7add956463"><path d="M 18 29.4375 L 18.726562 29.4375 L 18.726562 30 L 18 30 Z M 18 29.4375 " clip-rule="nonzero"/></clipPath><clipPath id="a4a31948a0"><path d="M 17.257812 29.4375 L 18 29.4375 L 18 30 L 17.257812 30 Z M 17.257812 29.4375 " clip-rule="nonzero"/></clipPath><clipPath id="dacf32c6bc"><path d="M 17.257812 29.4375 L 18.726562 29.4375 L 18.726562 30 L 17.257812 30 Z M 17.257812 29.4375 " clip-rule="nonzero"/></clipPath><clipPath id="5591e4c460"><path d="M 17.257812 29.4375 L 18 29.4375 L 18 30 L 17.257812 30 Z M 17.257812 29.4375 " clip-rule="nonzero"/></clipPath><clipPath id="5fe9f8c18b"><path d="M 18 29.4375 L 18.726562 29.4375 L 18.726562 30 L 18 30 Z M 18 29.4375 " clip-rule="nonzero"/></clipPath><clipPath id="e5793dd3ae"><path d="M 18 30 L 18.726562 30 L 18.726562 30.902344 L 18 30.902344 Z M 18 30 " clip-rule="nonzero"/></clipPath><clipPath id="463407f539"><path d="M 17.257812 30 L 18.726562 30 L 18.726562 30.902344 L 17.257812 30.902344 Z M 17.257812 30 " clip-rule="nonzero"/></clipPath><clipPath id="aab8f3de91"><path d="M 17.257812 30 L 18 30 L 18 30.902344 L 17.257812 30.902344 Z M 17.257812 30 " clip-rule="nonzero"/></clipPath><clipPath id="1fcd9cd7e9"><path d="M 17.257812 30 L 18.726562 30 L 18.726562 30.902344 L 17.257812 30.902344 Z M 17.257812 30 " clip-rule="nonzero"/></clipPath><clipPath id="666b558b1c"><path d="M 17.257812 30 L 18 30 L 18 30.902344 L 17.257812 30.902344 Z M 17.257812 30 " clip-rule="nonzero"/></clipPath><clipPath id="716fcdbb26"><path d="M 18 30 L 18.726562 30 L 18.726562 30.902344 L 18 30.902344 Z M 18 30 " clip-rule="nonzero"/></clipPath><clipPath id="d5950b443c"><path d="M 17.257812 29.4375 L 18 29.4375 L 18 30.902344 L 17.257812 30.902344 Z M 17.257812 29.4375 " clip-rule="nonzero"/></clipPath><clipPath id="b11f69a576"><path d="M 17.257812 29.4375 L 18 29.4375 L 18 30 L 17.257812 30 Z M 17.257812 29.4375 " clip-rule="nonzero"/></clipPath></defs><path fill="#ffffff" d="M 33.417969 12.78125 L 34.582031 12.78125 C 34.933594 12.792969 35.179688 12.636719 35.320312 12.316406 C 35.460938 11.992188 35.410156 11.707031 35.160156 11.457031 L 27.472656 3.800781 C 27.230469 3.558594 26.949219 3.503906 26.628906 3.636719 C 26.3125 3.765625 26.152344 4.003906 26.148438 4.347656 L 26.148438 5.511719 C 26.148438 5.992188 26.191406 6.464844 26.285156 6.933594 C 26.378906 7.398438 26.515625 7.855469 26.699219 8.296875 C 26.882812 8.738281 27.105469 9.15625 27.371094 9.554688 C 27.636719 9.949219 27.9375 10.316406 28.273438 10.65625 C 28.613281 10.992188 28.980469 11.292969 29.375 11.558594 C 29.773438 11.824219 30.191406 12.046875 30.632812 12.230469 C 31.074219 12.414062 31.53125 12.550781 31.996094 12.644531 C 32.464844 12.738281 32.9375 12.78125 33.417969 12.78125 Z M 33.417969 12.78125 " fill-opacity="1" fill-rule="nonzero"/><path fill="#ffffff" d="M 14.675781 20.007812 C 14.53125 19.921875 14.375 19.863281 14.210938 19.839844 C 14.046875 19.816406 13.882812 19.804688 13.714844 19.808594 L 13.007812 19.808594 L 13.007812 22.5625 L 13.753906 22.5625 C 13.972656 22.566406 14.1875 22.53125 14.398438 22.460938 C 14.566406 22.394531 14.710938 22.292969 14.828125 22.15625 C 14.949219 22.023438 15.035156 21.871094 15.085938 21.699219 C 15.15625 21.523438 15.195312 21.339844 15.203125 21.152344 C 15.210938 20.902344 15.160156 20.667969 15.054688 20.445312 C 14.96875 20.261719 14.84375 20.117188 14.675781 20.007812 Z M 14.675781 20.007812 " fill-opacity="1" fill-rule="nonzero"/><path fill="#ffffff" d="M 28.773438 20.597656 C 28.566406 20.34375 28.308594 20.15625 28.007812 20.027344 C 27.617188 19.875 27.210938 19.808594 26.792969 19.820312 L 25.953125 19.820312 L 25.953125 25.355469 L 26.792969 25.355469 C 27.183594 25.367188 27.566406 25.308594 27.9375 25.175781 C 28.242188 25.066406 28.5 24.890625 28.710938 24.648438 C 28.929688 24.386719 29.082031 24.09375 29.171875 23.765625 C 29.296875 23.363281 29.359375 22.953125 29.367188 22.53125 C 29.371094 22.164062 29.324219 21.808594 29.230469 21.457031 C 29.140625 21.136719 28.988281 20.851562 28.773438 20.597656 Z M 28.773438 20.597656 " fill-opacity="1" fill-rule="nonzero"/><g clip-path="url(#f2c692d2f3)"><path fill="#ffffff" d="M 33.417969 15.359375 C 32.769531 15.359375 32.128906 15.296875 31.496094 15.167969 C 30.863281 15.042969 30.246094 14.855469 29.648438 14.609375 C 29.050781 14.363281 28.484375 14.058594 27.945312 13.699219 C 27.40625 13.339844 26.910156 12.933594 26.453125 12.476562 C 25.996094 12.019531 25.589844 11.523438 25.230469 10.984375 C 24.871094 10.445312 24.566406 9.878906 24.320312 9.28125 C 24.074219 8.683594 23.886719 8.070312 23.761719 7.433594 C 23.632812 6.800781 23.570312 6.160156 23.570312 5.511719 C 23.570312 5.109375 23.496094 4.722656 23.339844 4.351562 C 23.1875 3.980469 22.96875 3.652344 22.683594 3.367188 C 22.398438 3.085938 22.070312 2.867188 21.699219 2.710938 C 21.328125 2.558594 20.941406 2.480469 20.539062 2.480469 L 12.8125 2.480469 C 12.335938 2.480469 11.863281 2.527344 11.394531 2.621094 C 10.925781 2.710938 10.472656 2.851562 10.03125 3.03125 C 9.589844 3.214844 9.171875 3.4375 8.773438 3.703125 C 8.375 3.96875 8.007812 4.269531 7.671875 4.609375 C 7.332031 4.945312 7.03125 5.3125 6.765625 5.710938 C 6.503906 6.105469 6.277344 6.527344 6.097656 6.96875 C 5.914062 7.410156 5.777344 7.863281 5.683594 8.332031 C 5.589844 8.800781 5.542969 9.273438 5.542969 9.75 L 5.542969 31.265625 C 5.542969 31.746094 5.589844 32.21875 5.683594 32.6875 C 5.777344 33.152344 5.914062 33.609375 6.097656 34.050781 C 6.277344 34.492188 6.503906 34.910156 6.765625 35.308594 C 7.03125 35.703125 7.332031 36.070312 7.671875 36.410156 C 8.007812 36.746094 8.375 37.046875 8.773438 37.3125 C 9.171875 37.578125 9.589844 37.800781 10.03125 37.984375 C 10.472656 38.167969 10.925781 38.304688 11.394531 38.398438 C 11.863281 38.492188 12.335938 38.535156 12.8125 38.535156 L 29.179688 38.535156 C 29.65625 38.535156 30.128906 38.492188 30.597656 38.398438 C 31.066406 38.304688 31.523438 38.167969 31.960938 37.984375 C 32.402344 37.800781 32.824219 37.578125 33.21875 37.3125 C 33.617188 37.046875 33.984375 36.746094 34.320312 36.410156 C 34.660156 36.070312 34.960938 35.703125 35.226562 35.308594 C 35.492188 34.910156 35.714844 34.492188 35.898438 34.050781 C 36.078125 33.609375 36.21875 33.152344 36.308594 32.6875 C 36.402344 32.21875 36.449219 31.746094 36.449219 31.265625 L 36.449219 18.390625 C 36.449219 17.988281 36.371094 17.601562 36.21875 17.230469 C 36.0625 16.859375 35.84375 16.53125 35.5625 16.246094 C 35.277344 15.960938 34.949219 15.742188 34.578125 15.589844 C 34.207031 15.433594 33.820312 15.359375 33.417969 15.359375 Z M 16.707031 22.214844 C 16.5625 22.5625 16.347656 22.859375 16.066406 23.101562 C 15.769531 23.355469 15.433594 23.539062 15.058594 23.652344 C 14.605469 23.785156 14.140625 23.847656 13.664062 23.835938 L 13.007812 23.835938 L 13.007812 26.414062 C 13.007812 26.453125 12.992188 26.492188 12.96875 26.523438 C 12.933594 26.566406 12.886719 26.59375 12.832031 26.605469 C 12.75 26.628906 12.667969 26.648438 12.582031 26.65625 C 12.445312 26.664062 12.3125 26.664062 12.175781 26.65625 C 12.042969 26.664062 11.910156 26.664062 11.777344 26.65625 C 11.691406 26.648438 11.609375 26.628906 11.527344 26.605469 C 11.46875 26.59375 11.425781 26.566406 11.390625 26.523438 C 11.363281 26.492188 11.351562 26.453125 11.351562 26.414062 L 11.351562 19.117188 C 11.339844 18.949219 11.390625 18.800781 11.507812 18.671875 C 11.621094 18.570312 11.757812 18.519531 11.910156 18.527344 L 13.84375 18.527344 C 14.027344 18.515625 14.210938 18.515625 14.398438 18.527344 C 14.613281 18.542969 14.828125 18.574219 15.042969 18.617188 C 15.300781 18.671875 15.546875 18.761719 15.78125 18.886719 C 16.027344 19.011719 16.242188 19.179688 16.425781 19.382812 C 16.605469 19.585938 16.738281 19.816406 16.824219 20.078125 C 16.921875 20.367188 16.96875 20.667969 16.964844 20.972656 C 16.964844 21.402344 16.878906 21.820312 16.707031 22.214844 Z M 22.792969 25.351562 C 22.640625 25.667969 22.425781 25.9375 22.148438 26.15625 C 21.863281 26.378906 21.546875 26.542969 21.195312 26.644531 C 20.8125 26.753906 20.421875 26.808594 20.023438 26.804688 C 19.761719 26.808594 19.503906 26.785156 19.246094 26.742188 C 19.027344 26.703125 18.8125 26.644531 18.601562 26.574219 C 18.441406 26.519531 18.289062 26.449219 18.144531 26.367188 C 18.046875 26.316406 17.957031 26.253906 17.875 26.179688 C 17.816406 26.109375 17.777344 26.03125 17.757812 25.941406 C 17.734375 25.796875 17.722656 25.648438 17.726562 25.5 C 17.71875 25.390625 17.71875 25.285156 17.726562 25.175781 C 17.730469 25.101562 17.742188 25.027344 17.765625 24.957031 C 17.78125 24.910156 17.804688 24.875 17.84375 24.839844 C 17.878906 24.832031 17.914062 24.832031 17.953125 24.839844 C 18.042969 24.851562 18.125 24.886719 18.195312 24.945312 C 18.328125 25.03125 18.464844 25.105469 18.609375 25.175781 C 18.800781 25.269531 19.003906 25.347656 19.214844 25.402344 C 19.476562 25.476562 19.746094 25.511719 20.019531 25.503906 C 20.203125 25.507812 20.382812 25.484375 20.558594 25.433594 C 20.707031 25.394531 20.84375 25.324219 20.964844 25.226562 C 21.078125 25.140625 21.164062 25.035156 21.222656 24.90625 C 21.28125 24.765625 21.308594 24.621094 21.304688 24.46875 C 21.308594 24.296875 21.257812 24.136719 21.15625 24 C 21.046875 23.855469 20.917969 23.738281 20.765625 23.644531 C 20.585938 23.535156 20.402344 23.4375 20.210938 23.355469 L 19.566406 23.066406 C 19.34375 22.964844 19.128906 22.851562 18.921875 22.722656 C 18.71875 22.597656 18.535156 22.445312 18.375 22.265625 C 18.207031 22.074219 18.074219 21.859375 17.984375 21.621094 C 17.871094 21.339844 17.820312 21.050781 17.828125 20.746094 C 17.820312 20.386719 17.894531 20.042969 18.046875 19.714844 C 18.1875 19.425781 18.382812 19.183594 18.632812 18.984375 C 18.894531 18.78125 19.179688 18.636719 19.496094 18.542969 C 19.84375 18.449219 20.199219 18.398438 20.558594 18.402344 C 20.753906 18.402344 20.945312 18.417969 21.136719 18.449219 C 21.320312 18.472656 21.503906 18.511719 21.679688 18.5625 C 21.832031 18.609375 21.980469 18.667969 22.125 18.738281 C 22.21875 18.777344 22.304688 18.828125 22.382812 18.890625 C 22.417969 18.921875 22.445312 18.960938 22.464844 19.003906 C 22.488281 19.039062 22.5 19.074219 22.503906 19.117188 C 22.507812 19.179688 22.507812 19.238281 22.503906 19.296875 L 22.503906 19.570312 C 22.503906 19.570312 22.503906 19.792969 22.503906 19.878906 C 22.511719 19.949219 22.511719 20.019531 22.503906 20.089844 C 22.496094 20.132812 22.476562 20.171875 22.445312 20.207031 C 22.410156 20.234375 22.375 20.246094 22.328125 20.246094 C 22.25 20.230469 22.175781 20.199219 22.109375 20.15625 C 21.992188 20.085938 21.871094 20.023438 21.742188 19.96875 C 21.578125 19.890625 21.410156 19.824219 21.234375 19.773438 C 21.023438 19.714844 20.808594 19.6875 20.589844 19.691406 C 20.429688 19.6875 20.273438 19.707031 20.121094 19.753906 C 19.996094 19.796875 19.882812 19.859375 19.78125 19.941406 C 19.691406 20.019531 19.625 20.109375 19.582031 20.21875 C 19.535156 20.332031 19.515625 20.445312 19.515625 20.566406 C 19.511719 20.738281 19.5625 20.894531 19.664062 21.035156 C 19.773438 21.175781 19.90625 21.292969 20.058594 21.382812 C 20.238281 21.496094 20.425781 21.589844 20.625 21.675781 L 21.265625 21.964844 C 21.488281 22.0625 21.703125 22.175781 21.910156 22.304688 C 22.121094 22.429688 22.308594 22.582031 22.472656 22.761719 C 22.640625 22.953125 22.773438 23.167969 22.863281 23.40625 C 22.972656 23.679688 23.027344 23.960938 23.019531 24.253906 C 23.027344 24.636719 22.953125 25.003906 22.792969 25.351562 Z M 30.765625 24.371094 C 30.59375 24.871094 30.316406 25.300781 29.933594 25.660156 C 29.550781 26.019531 29.101562 26.269531 28.59375 26.40625 C 27.984375 26.578125 27.359375 26.65625 26.726562 26.644531 L 24.796875 26.644531 C 24.664062 26.648438 24.546875 26.609375 24.449219 26.523438 C 24.339844 26.410156 24.292969 26.277344 24.304688 26.121094 L 24.304688 19.039062 C 24.296875 18.886719 24.34375 18.753906 24.449219 18.640625 C 24.550781 18.558594 24.664062 18.519531 24.796875 18.519531 L 26.886719 18.519531 C 27.515625 18.503906 28.128906 18.589844 28.730469 18.777344 C 29.210938 18.925781 29.636719 19.175781 30 19.527344 C 30.363281 19.875 30.628906 20.289062 30.796875 20.765625 C 30.988281 21.320312 31.078125 21.886719 31.066406 22.472656 C 31.074219 23.121094 30.976562 23.757812 30.765625 24.371094 Z M 30.765625 24.371094 " fill-opacity="1" fill-rule="nonzero"/></g><g clip-path="url(#47def8854a)"><path fill="#000000" d="M 18.425781 30.023438 C 18.425781 30.183594 18.371094 30.320312 18.257812 30.433594 C 18.140625 30.550781 18.003906 30.605469 17.84375 30.605469 C 17.683594 30.605469 17.542969 30.550781 17.429688 30.433594 C 17.316406 30.320312 17.257812 30.183594 17.257812 30.023438 C 17.257812 29.863281 17.316406 29.722656 17.429688 29.609375 C 17.542969 29.496094 17.683594 29.4375 17.84375 29.4375 C 18.003906 29.4375 18.140625 29.496094 18.257812 29.609375 C 18.371094 29.722656 18.425781 29.863281 18.425781 30.023438 Z M 18.425781 30.023438 " fill-opacity="1" fill-rule="nonzero"/></g><g clip-path="url(#3846f23d9d)"><path fill="#ffffff" d="M 17.523438 29.785156 L 17.484375 29.785156 C 17.476562 29.785156 17.46875 29.792969 17.46875 29.800781 L 17.46875 30.292969 C 17.46875 30.300781 17.476562 30.308594 17.484375 30.308594 L 17.523438 30.308594 C 17.53125 30.308594 17.539062 30.300781 17.539062 30.292969 L 17.539062 29.800781 C 17.539062 29.792969 17.53125 29.785156 17.523438 29.785156 Z M 17.523438 29.785156 " fill-opacity="1" fill-rule="nonzero"/></g><g clip-path="url(#2cfaf083ab)"><path fill="#ffffff" d="M 18.199219 29.785156 L 18.164062 29.785156 C 18.152344 29.785156 18.144531 29.792969 18.144531 29.800781 L 18.144531 30.292969 C 18.144531 30.300781 18.152344 30.308594 18.164062 30.308594 L 18.199219 30.308594 C 18.210938 30.308594 18.214844 30.300781 18.214844 30.292969 L 18.214844 29.800781 C 18.21875 29.792969 18.210938 29.785156 18.199219 29.785156 Z M 18.199219 29.785156 " fill-opacity="1" fill-rule="nonzero"/></g><g clip-path="url(#f009d699dd)"><path fill="#ffffff" d="M 18.011719 29.867188 L 18.085938 29.867188 L 18.085938 29.847656 L 18.007812 29.847656 C 18.011719 29.855469 18.011719 29.863281 18.011719 29.867188 Z M 18.011719 29.867188 " fill-opacity="1" fill-rule="nonzero"/></g><g clip-path="url(#287f071ec4)"><path fill="#ffffff" d="M 17.675781 29.847656 L 17.601562 29.847656 L 17.601562 29.867188 L 17.671875 29.867188 C 17.675781 29.863281 17.675781 29.855469 17.675781 29.847656 Z M 17.675781 29.847656 " fill-opacity="1" fill-rule="nonzero"/><path fill="#ffffff" d="M 17.558594 29.847656 L 17.582031 29.847656 L 17.582031 29.871094 L 17.558594 29.871094 Z M 17.558594 29.847656 " fill-opacity="1" fill-rule="nonzero"/></g><g clip-path="url(#7add956463)"><path fill="#ffffff" d="M 18.105469 29.847656 L 18.125 29.847656 L 18.125 29.871094 L 18.105469 29.871094 Z M 18.105469 29.847656 " fill-opacity="1" fill-rule="nonzero"/></g><g clip-path="url(#a4a31948a0)"><path fill="#ffffff" d="M 17.699219 29.972656 L 17.601562 29.972656 L 17.601562 29.996094 L 17.710938 29.996094 C 17.707031 29.988281 17.703125 29.980469 17.699219 29.972656 Z M 17.699219 29.972656 " fill-opacity="1" fill-rule="nonzero"/></g><g clip-path="url(#dacf32c6bc)"><path fill="#ffffff" d="M 17.972656 29.996094 L 18.085938 29.996094 L 18.085938 29.972656 L 17.988281 29.972656 C 17.984375 29.980469 17.980469 29.988281 17.972656 29.996094 Z M 17.972656 29.996094 " fill-opacity="1" fill-rule="nonzero"/></g><g clip-path="url(#5591e4c460)"><path fill="#ffffff" d="M 17.558594 29.972656 L 17.582031 29.972656 L 17.582031 29.996094 L 17.558594 29.996094 Z M 17.558594 29.972656 " fill-opacity="1" fill-rule="nonzero"/></g><g clip-path="url(#5fe9f8c18b)"><path fill="#ffffff" d="M 18.105469 29.972656 L 18.125 29.972656 L 18.125 29.996094 L 18.105469 29.996094 Z M 18.105469 29.972656 " fill-opacity="1" fill-rule="nonzero"/></g><g clip-path="url(#e5793dd3ae)"><path fill="#ffffff" d="M 18.105469 30.097656 L 18.125 30.097656 L 18.125 30.121094 L 18.105469 30.121094 Z M 18.105469 30.097656 " fill-opacity="1" fill-rule="nonzero"/></g><g clip-path="url(#463407f539)"><path fill="#ffffff" d="M 17.601562 30.101562 L 18.085938 30.101562 L 18.085938 30.121094 L 17.601562 30.121094 Z M 17.601562 30.101562 " fill-opacity="1" fill-rule="nonzero"/></g><g clip-path="url(#aab8f3de91)"><path fill="#ffffff" d="M 17.558594 30.097656 L 17.582031 30.097656 L 17.582031 30.121094 L 17.558594 30.121094 Z M 17.558594 30.097656 " fill-opacity="1" fill-rule="nonzero"/></g><g clip-path="url(#1fcd9cd7e9)"><path fill="#ffffff" d="M 17.601562 30.226562 L 18.085938 30.226562 L 18.085938 30.246094 L 17.601562 30.246094 Z M 17.601562 30.226562 " fill-opacity="1" fill-rule="nonzero"/></g><g clip-path="url(#666b558b1c)"><path fill="#ffffff" d="M 17.558594 30.222656 L 17.582031 30.222656 L 17.582031 30.25 L 17.558594 30.25 Z M 17.558594 30.222656 " fill-opacity="1" fill-rule="nonzero"/></g><g clip-path="url(#716fcdbb26)"><path fill="#ffffff" d="M 18.105469 30.222656 L 18.125 30.222656 L 18.125 30.25 L 18.105469 30.25 Z M 18.105469 30.222656 " fill-opacity="1" fill-rule="nonzero"/></g><g clip-path="url(#d5950b443c)"><path fill="#ffffff" d="M 17.84375 30.035156 C 17.925781 30.035156 17.992188 29.96875 17.992188 29.886719 C 17.992188 29.804688 17.925781 29.734375 17.84375 29.734375 C 17.761719 29.734375 17.695312 29.804688 17.695312 29.886719 C 17.695312 29.96875 17.761719 30.035156 17.84375 30.035156 Z M 17.777344 29.882812 L 17.824219 29.773438 C 17.828125 29.769531 17.832031 29.769531 17.835938 29.769531 L 17.894531 29.769531 C 17.894531 29.769531 17.898438 29.769531 17.902344 29.773438 C 17.902344 29.773438 17.902344 29.777344 17.902344 29.78125 L 17.878906 29.84375 L 17.902344 29.84375 C 17.90625 29.84375 17.90625 29.847656 17.910156 29.847656 C 17.910156 29.851562 17.910156 29.855469 17.910156 29.859375 L 17.832031 30 C 17.828125 30 17.824219 30.003906 17.820312 30.003906 C 17.8125 30 17.8125 29.996094 17.8125 29.992188 L 17.820312 29.894531 L 17.785156 29.894531 C 17.78125 29.894531 17.777344 29.894531 17.777344 29.890625 C 17.773438 29.886719 17.773438 29.882812 17.777344 29.882812 Z M 17.777344 29.882812 " fill-opacity="1" fill-rule="nonzero"/></g><g clip-path="url(#b11f69a576)"><path fill="#ffffff" d="M 17.839844 29.878906 C 17.839844 29.878906 17.839844 29.882812 17.839844 29.886719 L 17.835938 29.949219 L 17.882812 29.863281 L 17.867188 29.863281 C 17.863281 29.863281 17.859375 29.863281 17.859375 29.859375 C 17.855469 29.859375 17.855469 29.855469 17.855469 29.851562 L 17.878906 29.789062 L 17.839844 29.789062 L 17.800781 29.875 L 17.832031 29.875 C 17.832031 29.875 17.835938 29.875 17.839844 29.878906 Z M 17.839844 29.878906 " fill-opacity="1" fill-rule="nonzero"/></g></svg>