<svg xmlns="http://www.w3.org/2000/svg" xmlns:xlink="http://www.w3.org/1999/xlink" width="56" zoomAndPan="magnify" viewBox="0 0 42 42" height="56" preserveAspectRatio="xMidYMid meet" version="1.0"><defs><clipPath id="0dd165ee74"><path d="M 5.539062 2.480469 L 36.304688 2.480469 L 36.304688 38.375 L 5.539062 38.375 Z M 5.539062 2.480469 " clip-rule="nonzero"/></clipPath><clipPath id="96d6466385"><path d="M 17.257812 29.4375 L 18.726562 29.4375 L 18.726562 30.902344 L 17.257812 30.902344 Z M 17.257812 29.4375 " clip-rule="nonzero"/></clipPath><clipPath id="770c415bba"><path d="M 17.257812 29.4375 L 18 29.4375 L 18 30.902344 L 17.257812 30.902344 Z M 17.257812 29.4375 " clip-rule="nonzero"/></clipPath><clipPath id="7e5bbfc52c"><path d="M 18 29.4375 L 18.726562 29.4375 L 18.726562 30.902344 L 18 30.902344 Z M 18 29.4375 " clip-rule="nonzero"/></clipPath><clipPath id="0a2e156730"><path d="M 18 29.4375 L 18.726562 29.4375 L 18.726562 30 L 18 30 Z M 18 29.4375 " clip-rule="nonzero"/></clipPath><clipPath id="f2d682440e"><path d="M 17.257812 29.4375 L 18 29.4375 L 18 30 L 17.257812 30 Z M 17.257812 29.4375 " clip-rule="nonzero"/></clipPath><clipPath id="a659b78702"><path d="M 18 29.4375 L 18.726562 29.4375 L 18.726562 30 L 18 30 Z M 18 29.4375 " clip-rule="nonzero"/></clipPath><clipPath id="a3624c68b8"><path d="M 17.257812 29.4375 L 18 29.4375 L 18 30 L 17.257812 30 Z M 17.257812 29.4375 " clip-rule="nonzero"/></clipPath><clipPath id="d61fb6c3c7"><path d="M 17.257812 29.4375 L 18.726562 29.4375 L 18.726562 30 L 17.257812 30 Z M 17.257812 29.4375 " clip-rule="nonzero"/></clipPath><clipPath id="5f198b027e"><path d="M 17.257812 29.4375 L 18 29.4375 L 18 30 L 17.257812 30 Z M 17.257812 29.4375 " clip-rule="nonzero"/></clipPath><clipPath id="97b5b0d35d"><path d="M 18 29.4375 L 18.726562 29.4375 L 18.726562 30 L 18 30 Z M 18 29.4375 " clip-rule="nonzero"/></clipPath><clipPath id="4c31a8481d"><path d="M 18 30 L 18.726562 30 L 18.726562 30.902344 L 18 30.902344 Z M 18 30 " clip-rule="nonzero"/></clipPath><clipPath id="f47638f5f3"><path d="M 17.257812 30 L 18.726562 30 L 18.726562 30.902344 L 17.257812 30.902344 Z M 17.257812 30 " clip-rule="nonzero"/></clipPath><clipPath id="eea4cbc5bd"><path d="M 17.257812 30 L 18 30 L 18 30.902344 L 17.257812 30.902344 Z M 17.257812 30 " clip-rule="nonzero"/></clipPath><clipPath id="9c43521dec"><path d="M 17.257812 30 L 18.726562 30 L 18.726562 30.902344 L 17.257812 30.902344 Z M 17.257812 30 " clip-rule="nonzero"/></clipPath><clipPath id="42cf504aa3"><path d="M 17.257812 30 L 18 30 L 18 30.902344 L 17.257812 30.902344 Z M 17.257812 30 " clip-rule="nonzero"/></clipPath><clipPath id="5d15c75600"><path d="M 18 30 L 18.726562 30 L 18.726562 30.902344 L 18 30.902344 Z M 18 30 " clip-rule="nonzero"/></clipPath><clipPath id="e854a4a849"><path d="M 17.257812 29.4375 L 18 29.4375 L 18 30.902344 L 17.257812 30.902344 Z M 17.257812 29.4375 " clip-rule="nonzero"/></clipPath><clipPath id="d886b25798"><path d="M 17.257812 29.4375 L 18 29.4375 L 18 30 L 17.257812 30 Z M 17.257812 29.4375 " clip-rule="nonzero"/></clipPath></defs><path fill="#000000" d="M 33.28125 12.738281 L 34.441406 12.738281 C 34.792969 12.75 35.039062 12.59375 35.179688 12.273438 C 35.316406 11.949219 35.265625 11.664062 35.019531 11.417969 L 27.367188 3.792969 C 27.125 3.554688 26.84375 3.5 26.527344 3.628906 C 26.210938 3.761719 26.050781 3.996094 26.046875 4.339844 L 26.046875 5.5 C 26.046875 5.976562 26.09375 6.445312 26.1875 6.914062 C 26.277344 7.378906 26.414062 7.832031 26.597656 8.269531 C 26.777344 8.710938 27 9.125 27.265625 9.523438 C 27.53125 9.917969 27.828125 10.28125 28.164062 10.617188 C 28.5 10.953125 28.867188 11.253906 29.261719 11.519531 C 29.65625 11.78125 30.074219 12.003906 30.511719 12.1875 C 30.953125 12.371094 31.40625 12.507812 31.871094 12.597656 C 32.335938 12.691406 32.808594 12.738281 33.28125 12.738281 Z M 33.28125 12.738281 " fill-opacity="1" fill-rule="nonzero"/><path fill="#000000" d="M 14.628906 19.929688 C 14.488281 19.84375 14.332031 19.789062 14.167969 19.761719 C 14.003906 19.738281 13.839844 19.726562 13.675781 19.730469 L 12.96875 19.730469 L 12.96875 22.472656 L 13.714844 22.472656 C 13.933594 22.476562 14.148438 22.445312 14.355469 22.371094 C 14.523438 22.304688 14.664062 22.203125 14.785156 22.070312 C 14.902344 21.9375 14.988281 21.785156 15.039062 21.613281 C 15.109375 21.4375 15.148438 21.257812 15.15625 21.070312 C 15.164062 20.824219 15.113281 20.585938 15.007812 20.363281 C 14.925781 20.183594 14.796875 20.039062 14.628906 19.929688 Z M 14.628906 19.929688 " fill-opacity="1" fill-rule="nonzero"/><path fill="#000000" d="M 28.664062 20.519531 C 28.453125 20.265625 28.199219 20.074219 27.898438 19.949219 C 27.511719 19.796875 27.105469 19.730469 26.6875 19.742188 L 25.855469 19.742188 L 25.855469 25.253906 L 26.6875 25.253906 C 27.082031 25.265625 27.460938 25.207031 27.828125 25.074219 C 28.132812 24.96875 28.386719 24.792969 28.597656 24.550781 C 28.816406 24.289062 28.96875 23.996094 29.058594 23.671875 C 29.183594 23.269531 29.246094 22.859375 29.253906 22.441406 C 29.253906 22.078125 29.210938 21.722656 29.117188 21.371094 C 29.027344 21.054688 28.878906 20.769531 28.664062 20.519531 Z M 28.664062 20.519531 " fill-opacity="1" fill-rule="nonzero"/><g clip-path="url(#0dd165ee74)"><path fill="#000000" d="M 33.28125 15.300781 C 32.640625 15.300781 32 15.238281 31.371094 15.113281 C 30.738281 14.988281 30.125 14.800781 29.53125 14.554688 C 28.9375 14.308594 28.371094 14.007812 27.839844 13.652344 C 27.304688 13.292969 26.808594 12.886719 26.351562 12.433594 C 25.898438 11.976562 25.492188 11.480469 25.132812 10.945312 C 24.777344 10.410156 24.476562 9.847656 24.230469 9.25 C 23.984375 8.65625 23.796875 8.042969 23.671875 7.414062 C 23.546875 6.78125 23.484375 6.144531 23.484375 5.5 C 23.484375 5.097656 23.410156 4.714844 23.253906 4.34375 C 23.101562 3.976562 22.882812 3.648438 22.601562 3.363281 C 22.320312 3.082031 21.992188 2.863281 21.621094 2.710938 C 21.253906 2.558594 20.867188 2.480469 20.46875 2.480469 L 12.777344 2.480469 C 12.304688 2.480469 11.832031 2.527344 11.367188 2.617188 C 10.902344 2.710938 10.449219 2.847656 10.007812 3.03125 C 9.570312 3.210938 9.152344 3.433594 8.757812 3.699219 C 8.363281 3.960938 7.996094 4.261719 7.660156 4.597656 C 7.324219 4.933594 7.023438 5.300781 6.761719 5.695312 C 6.496094 6.089844 6.273438 6.507812 6.09375 6.945312 C 5.910156 7.386719 5.773438 7.839844 5.683594 8.304688 C 5.589844 8.773438 5.542969 9.242188 5.542969 9.71875 L 5.542969 31.140625 C 5.542969 31.613281 5.589844 32.085938 5.683594 32.550781 C 5.773438 33.019531 5.910156 33.46875 6.09375 33.910156 C 6.273438 34.347656 6.496094 34.765625 6.761719 35.160156 C 7.023438 35.558594 7.324219 35.921875 7.660156 36.257812 C 7.996094 36.59375 8.363281 36.894531 8.757812 37.160156 C 9.152344 37.421875 9.570312 37.644531 10.007812 37.828125 C 10.449219 38.007812 10.902344 38.144531 11.367188 38.238281 C 11.832031 38.332031 12.304688 38.375 12.777344 38.375 L 29.066406 38.375 C 29.542969 38.375 30.011719 38.332031 30.476562 38.238281 C 30.945312 38.144531 31.398438 38.007812 31.835938 37.828125 C 32.273438 37.644531 32.691406 37.421875 33.085938 37.160156 C 33.480469 36.894531 33.847656 36.59375 34.183594 36.257812 C 34.519531 35.921875 34.820312 35.558594 35.082031 35.160156 C 35.347656 34.765625 35.570312 34.347656 35.75 33.910156 C 35.933594 33.46875 36.070312 33.019531 36.164062 32.550781 C 36.253906 32.085938 36.300781 31.613281 36.300781 31.140625 L 36.300781 18.320312 C 36.300781 17.917969 36.222656 17.535156 36.070312 17.164062 C 35.917969 16.792969 35.699219 16.46875 35.417969 16.183594 C 35.132812 15.902344 34.808594 15.683594 34.4375 15.53125 C 34.066406 15.378906 33.683594 15.300781 33.28125 15.300781 Z M 16.65625 22.128906 C 16.511719 22.472656 16.296875 22.765625 16.015625 23.011719 C 15.71875 23.265625 15.386719 23.445312 15.015625 23.554688 C 14.5625 23.691406 14.097656 23.753906 13.625 23.742188 L 12.96875 23.742188 L 12.96875 26.304688 C 12.96875 26.347656 12.957031 26.382812 12.933594 26.414062 C 12.898438 26.460938 12.851562 26.488281 12.796875 26.5 C 12.714844 26.523438 12.632812 26.539062 12.546875 26.550781 C 12.414062 26.558594 12.277344 26.558594 12.144531 26.550781 C 12.011719 26.558594 11.878906 26.558594 11.746094 26.550781 C 11.660156 26.539062 11.578125 26.523438 11.496094 26.5 C 11.441406 26.488281 11.398438 26.460938 11.363281 26.414062 C 11.335938 26.382812 11.324219 26.347656 11.324219 26.304688 L 11.324219 19.042969 C 11.3125 18.875 11.363281 18.726562 11.476562 18.601562 C 11.59375 18.496094 11.726562 18.449219 11.882812 18.453125 L 13.804688 18.453125 C 13.988281 18.445312 14.171875 18.445312 14.355469 18.453125 C 14.570312 18.472656 14.785156 18.503906 14.996094 18.542969 C 15.253906 18.601562 15.5 18.691406 15.730469 18.8125 C 15.976562 18.9375 16.1875 19.105469 16.371094 19.308594 C 16.550781 19.511719 16.683594 19.742188 16.769531 20 C 16.867188 20.289062 16.914062 20.585938 16.910156 20.890625 C 16.910156 21.320312 16.824219 21.734375 16.65625 22.128906 Z M 22.710938 25.25 C 22.558594 25.566406 22.34375 25.832031 22.070312 26.050781 C 21.785156 26.273438 21.46875 26.4375 21.121094 26.539062 C 20.738281 26.648438 20.351562 26.703125 19.953125 26.699219 C 19.695312 26.699219 19.4375 26.679688 19.179688 26.632812 C 18.960938 26.59375 18.75 26.539062 18.539062 26.464844 C 18.382812 26.410156 18.230469 26.34375 18.082031 26.261719 C 17.988281 26.210938 17.898438 26.148438 17.816406 26.074219 C 17.757812 26.007812 17.71875 25.925781 17.699219 25.839844 C 17.675781 25.691406 17.664062 25.542969 17.667969 25.394531 C 17.660156 25.289062 17.660156 25.183594 17.667969 25.074219 C 17.671875 25 17.683594 24.929688 17.707031 24.859375 C 17.722656 24.8125 17.746094 24.773438 17.78125 24.742188 C 17.820312 24.730469 17.855469 24.730469 17.890625 24.742188 C 17.984375 24.753906 18.0625 24.789062 18.136719 24.84375 C 18.265625 24.929688 18.402344 25.007812 18.546875 25.074219 C 18.738281 25.167969 18.941406 25.246094 19.148438 25.300781 C 19.410156 25.375 19.675781 25.40625 19.949219 25.402344 C 20.132812 25.40625 20.3125 25.382812 20.488281 25.332031 C 20.636719 25.292969 20.769531 25.222656 20.890625 25.125 C 21.003906 25.042969 21.089844 24.933594 21.148438 24.804688 C 21.207031 24.667969 21.234375 24.523438 21.230469 24.371094 C 21.234375 24.199219 21.183594 24.042969 21.082031 23.902344 C 20.972656 23.761719 20.84375 23.644531 20.691406 23.550781 C 20.515625 23.441406 20.332031 23.34375 20.140625 23.261719 L 19.5 22.972656 C 19.277344 22.875 19.066406 22.761719 18.859375 22.632812 C 18.65625 22.507812 18.472656 22.355469 18.3125 22.179688 C 18.144531 21.988281 18.015625 21.773438 17.921875 21.539062 C 17.8125 21.257812 17.761719 20.964844 17.769531 20.664062 C 17.761719 20.304688 17.835938 19.964844 17.988281 19.640625 C 18.125 19.351562 18.320312 19.109375 18.570312 18.910156 C 18.828125 18.707031 19.113281 18.5625 19.429688 18.472656 C 19.773438 18.375 20.128906 18.328125 20.488281 18.332031 C 20.679688 18.332031 20.871094 18.347656 21.0625 18.378906 C 21.246094 18.402344 21.425781 18.4375 21.601562 18.492188 C 21.753906 18.539062 21.902344 18.597656 22.042969 18.664062 C 22.136719 18.703125 22.222656 18.753906 22.300781 18.820312 C 22.335938 18.851562 22.363281 18.886719 22.382812 18.929688 C 22.40625 18.964844 22.417969 19.003906 22.421875 19.042969 C 22.425781 19.105469 22.425781 19.164062 22.421875 19.222656 L 22.421875 19.492188 C 22.421875 19.492188 22.421875 19.71875 22.421875 19.800781 C 22.429688 19.871094 22.429688 19.941406 22.421875 20.011719 C 22.414062 20.054688 22.394531 20.09375 22.363281 20.128906 C 22.332031 20.15625 22.292969 20.167969 22.25 20.164062 C 22.167969 20.152344 22.097656 20.121094 22.03125 20.074219 C 21.914062 20.007812 21.789062 19.945312 21.664062 19.890625 C 21.5 19.8125 21.332031 19.75 21.160156 19.699219 C 20.949219 19.636719 20.738281 19.609375 20.519531 19.613281 C 20.359375 19.609375 20.203125 19.632812 20.050781 19.679688 C 19.925781 19.71875 19.8125 19.78125 19.710938 19.863281 C 19.621094 19.941406 19.554688 20.03125 19.511719 20.140625 C 19.46875 20.25 19.445312 20.367188 19.449219 20.484375 C 19.445312 20.660156 19.496094 20.8125 19.597656 20.953125 C 19.707031 21.09375 19.835938 21.207031 19.988281 21.300781 C 20.167969 21.410156 20.355469 21.507812 20.550781 21.589844 L 21.191406 21.878906 C 21.414062 21.976562 21.625 22.089844 21.832031 22.21875 C 22.039062 22.339844 22.226562 22.492188 22.390625 22.671875 C 22.558594 22.863281 22.6875 23.074219 22.78125 23.3125 C 22.890625 23.585938 22.941406 23.867188 22.933594 24.160156 C 22.941406 24.539062 22.867188 24.902344 22.710938 25.25 Z M 30.640625 24.273438 C 30.472656 24.769531 30.199219 25.199219 29.816406 25.558594 C 29.433594 25.914062 28.988281 26.164062 28.484375 26.300781 C 27.875 26.472656 27.257812 26.550781 26.625 26.539062 L 24.703125 26.539062 C 24.570312 26.542969 24.457031 26.5 24.355469 26.414062 C 24.25 26.304688 24.203125 26.171875 24.214844 26.019531 L 24.214844 18.96875 C 24.203125 18.8125 24.25 18.679688 24.355469 18.570312 C 24.457031 18.488281 24.574219 18.445312 24.703125 18.449219 L 26.785156 18.449219 C 27.410156 18.433594 28.019531 18.519531 28.617188 18.703125 C 29.097656 18.851562 29.519531 19.101562 29.882812 19.449219 C 30.242188 19.796875 30.507812 20.210938 30.675781 20.683594 C 30.863281 21.234375 30.953125 21.800781 30.945312 22.382812 C 30.953125 23.03125 30.851562 23.660156 30.640625 24.273438 Z M 30.640625 24.273438 " fill-opacity="1" fill-rule="nonzero"/></g><g clip-path="url(#96d6466385)"><path fill="#000000" d="M 18.425781 30.023438 C 18.425781 30.183594 18.371094 30.320312 18.257812 30.433594 C 18.140625 30.550781 18.003906 30.605469 17.84375 30.605469 C 17.683594 30.605469 17.542969 30.550781 17.429688 30.433594 C 17.316406 30.320312 17.257812 30.183594 17.257812 30.023438 C 17.257812 29.863281 17.316406 29.722656 17.429688 29.609375 C 17.542969 29.496094 17.683594 29.4375 17.84375 29.4375 C 18.003906 29.4375 18.140625 29.496094 18.257812 29.609375 C 18.371094 29.722656 18.425781 29.863281 18.425781 30.023438 Z M 18.425781 30.023438 " fill-opacity="1" fill-rule="nonzero"/></g><g clip-path="url(#770c415bba)"><path fill="#ffffff" d="M 17.523438 29.785156 L 17.484375 29.785156 C 17.476562 29.785156 17.46875 29.792969 17.46875 29.800781 L 17.46875 30.292969 C 17.46875 30.300781 17.476562 30.308594 17.484375 30.308594 L 17.523438 30.308594 C 17.53125 30.308594 17.539062 30.300781 17.539062 30.292969 L 17.539062 29.800781 C 17.539062 29.792969 17.53125 29.785156 17.523438 29.785156 Z M 17.523438 29.785156 " fill-opacity="1" fill-rule="nonzero"/></g><g clip-path="url(#7e5bbfc52c)"><path fill="#ffffff" d="M 18.199219 29.785156 L 18.164062 29.785156 C 18.152344 29.785156 18.144531 29.792969 18.144531 29.800781 L 18.144531 30.292969 C 18.144531 30.300781 18.152344 30.308594 18.164062 30.308594 L 18.199219 30.308594 C 18.210938 30.308594 18.214844 30.300781 18.214844 30.292969 L 18.214844 29.800781 C 18.21875 29.792969 18.210938 29.785156 18.199219 29.785156 Z M 18.199219 29.785156 " fill-opacity="1" fill-rule="nonzero"/></g><g clip-path="url(#0a2e156730)"><path fill="#ffffff" d="M 18.011719 29.867188 L 18.085938 29.867188 L 18.085938 29.847656 L 18.007812 29.847656 C 18.011719 29.855469 18.011719 29.863281 18.011719 29.867188 Z M 18.011719 29.867188 " fill-opacity="1" fill-rule="nonzero"/></g><g clip-path="url(#f2d682440e)"><path fill="#ffffff" d="M 17.675781 29.847656 L 17.601562 29.847656 L 17.601562 29.867188 L 17.671875 29.867188 C 17.675781 29.863281 17.675781 29.855469 17.675781 29.847656 Z M 17.675781 29.847656 " fill-opacity="1" fill-rule="nonzero"/><path fill="#ffffff" d="M 17.558594 29.847656 L 17.582031 29.847656 L 17.582031 29.871094 L 17.558594 29.871094 Z M 17.558594 29.847656 " fill-opacity="1" fill-rule="nonzero"/></g><g clip-path="url(#a659b78702)"><path fill="#ffffff" d="M 18.105469 29.847656 L 18.125 29.847656 L 18.125 29.871094 L 18.105469 29.871094 Z M 18.105469 29.847656 " fill-opacity="1" fill-rule="nonzero"/></g><g clip-path="url(#a3624c68b8)"><path fill="#ffffff" d="M 17.699219 29.972656 L 17.601562 29.972656 L 17.601562 29.996094 L 17.710938 29.996094 C 17.707031 29.988281 17.703125 29.980469 17.699219 29.972656 Z M 17.699219 29.972656 " fill-opacity="1" fill-rule="nonzero"/></g><g clip-path="url(#d61fb6c3c7)"><path fill="#ffffff" d="M 17.972656 29.996094 L 18.085938 29.996094 L 18.085938 29.972656 L 17.988281 29.972656 C 17.984375 29.980469 17.980469 29.988281 17.972656 29.996094 Z M 17.972656 29.996094 " fill-opacity="1" fill-rule="nonzero"/></g><g clip-path="url(#5f198b027e)"><path fill="#ffffff" d="M 17.558594 29.972656 L 17.582031 29.972656 L 17.582031 29.996094 L 17.558594 29.996094 Z M 17.558594 29.972656 " fill-opacity="1" fill-rule="nonzero"/></g><g clip-path="url(#97b5b0d35d)"><path fill="#ffffff" d="M 18.105469 29.972656 L 18.125 29.972656 L 18.125 29.996094 L 18.105469 29.996094 Z M 18.105469 29.972656 " fill-opacity="1" fill-rule="nonzero"/></g><g clip-path="url(#4c31a8481d)"><path fill="#ffffff" d="M 18.105469 30.097656 L 18.125 30.097656 L 18.125 30.121094 L 18.105469 30.121094 Z M 18.105469 30.097656 " fill-opacity="1" fill-rule="nonzero"/></g><g clip-path="url(#f47638f5f3)"><path fill="#ffffff" d="M 17.601562 30.101562 L 18.085938 30.101562 L 18.085938 30.121094 L 17.601562 30.121094 Z M 17.601562 30.101562 " fill-opacity="1" fill-rule="nonzero"/></g><g clip-path="url(#eea4cbc5bd)"><path fill="#ffffff" d="M 17.558594 30.097656 L 17.582031 30.097656 L 17.582031 30.121094 L 17.558594 30.121094 Z M 17.558594 30.097656 " fill-opacity="1" fill-rule="nonzero"/></g><g clip-path="url(#9c43521dec)"><path fill="#ffffff" d="M 17.601562 30.226562 L 18.085938 30.226562 L 18.085938 30.246094 L 17.601562 30.246094 Z M 17.601562 30.226562 " fill-opacity="1" fill-rule="nonzero"/></g><g clip-path="url(#42cf504aa3)"><path fill="#ffffff" d="M 17.558594 30.222656 L 17.582031 30.222656 L 17.582031 30.25 L 17.558594 30.25 Z M 17.558594 30.222656 " fill-opacity="1" fill-rule="nonzero"/></g><g clip-path="url(#5d15c75600)"><path fill="#ffffff" d="M 18.105469 30.222656 L 18.125 30.222656 L 18.125 30.25 L 18.105469 30.25 Z M 18.105469 30.222656 " fill-opacity="1" fill-rule="nonzero"/></g><g clip-path="url(#e854a4a849)"><path fill="#ffffff" d="M 17.84375 30.035156 C 17.925781 30.035156 17.992188 29.96875 17.992188 29.886719 C 17.992188 29.804688 17.925781 29.734375 17.84375 29.734375 C 17.761719 29.734375 17.695312 29.804688 17.695312 29.886719 C 17.695312 29.96875 17.761719 30.035156 17.84375 30.035156 Z M 17.777344 29.882812 L 17.824219 29.773438 C 17.828125 29.769531 17.832031 29.769531 17.835938 29.769531 L 17.894531 29.769531 C 17.894531 29.769531 17.898438 29.769531 17.902344 29.773438 C 17.902344 29.773438 17.902344 29.777344 17.902344 29.78125 L 17.878906 29.84375 L 17.902344 29.84375 C 17.90625 29.84375 17.90625 29.847656 17.910156 29.847656 C 17.910156 29.851562 17.910156 29.855469 17.910156 29.859375 L 17.832031 30 C 17.828125 30 17.824219 30.003906 17.820312 30.003906 C 17.8125 30 17.8125 29.996094 17.8125 29.992188 L 17.820312 29.894531 L 17.785156 29.894531 C 17.78125 29.894531 17.777344 29.894531 17.777344 29.890625 C 17.773438 29.886719 17.773438 29.882812 17.777344 29.882812 Z M 17.777344 29.882812 " fill-opacity="1" fill-rule="nonzero"/></g><g clip-path="url(#d886b25798)"><path fill="#ffffff" d="M 17.839844 29.878906 C 17.839844 29.878906 17.839844 29.882812 17.839844 29.886719 L 17.835938 29.949219 L 17.882812 29.863281 L 17.867188 29.863281 C 17.863281 29.863281 17.859375 29.863281 17.859375 29.859375 C 17.855469 29.859375 17.855469 29.855469 17.855469 29.851562 L 17.878906 29.789062 L 17.839844 29.789062 L 17.800781 29.875 L 17.832031 29.875 C 17.832031 29.875 17.835938 29.875 17.839844 29.878906 Z M 17.839844 29.878906 " fill-opacity="1" fill-rule="nonzero"/></g></svg>