<svg xmlns="http://www.w3.org/2000/svg" xmlns:xlink="http://www.w3.org/1999/xlink" width="64" zoomAndPan="magnify" viewBox="0 0 48 48" height="64" preserveAspectRatio="xMidYMid meet" version="1.0"><defs><clipPath id="ecd71075b2"><path d="M 22.238281 17.25 L 24 17.25 L 24 20.925781 L 22.238281 20.925781 Z M 22.238281 17.25 " clip-rule="nonzero"/></clipPath><clipPath id="7e9ae3d2e6"><path d="M 22.238281 18 L 25 18 L 25 20.925781 L 22.238281 20.925781 Z M 22.238281 18 " clip-rule="nonzero"/></clipPath><clipPath id="5246443b8c"><path d="M 23 17.25 L 25.910156 17.25 L 25.910156 20.925781 L 23 20.925781 Z M 23 17.25 " clip-rule="nonzero"/></clipPath><clipPath id="8d64b20056"><path d="M 24 18 L 25.910156 18 L 25.910156 20 L 24 20 Z M 24 18 " clip-rule="nonzero"/></clipPath><clipPath id="062feb2e6c"><path d="M 22.238281 17.25 L 25.910156 17.25 L 25.910156 20.925781 L 22.238281 20.925781 Z M 22.238281 17.25 " clip-rule="nonzero"/></clipPath><clipPath id="4805d92538"><path d="M 7 4.703125 L 43 4.703125 L 43 43.640625 L 7 43.640625 Z M 7 4.703125 " clip-rule="nonzero"/></clipPath><clipPath id="d9ba603c87"><path d="M 36 19 L 45.71875 19 L 45.71875 29 L 36 29 Z M 36 19 " clip-rule="nonzero"/></clipPath><clipPath id="03b96f057d"><path d="M 2.371094 18 L 14 18 L 14 30 L 2.371094 30 Z M 2.371094 18 " clip-rule="nonzero"/></clipPath></defs><g clip-path="url(#ecd71075b2)"><path fill="#32393f" d="M 23.527344 17.539062 L 23.527344 17.832031 C 23.410156 17.863281 23.304688 17.90625 23.207031 17.960938 L 23 17.753906 L 22.523438 18.230469 L 22.734375 18.4375 C 22.675781 18.535156 22.632812 18.640625 22.601562 18.75 L 22.308594 18.75 L 22.308594 19.425781 L 22.601562 19.425781 C 22.632812 19.535156 22.675781 19.640625 22.734375 19.734375 L 22.523438 19.945312 L 23 20.421875 L 23.207031 20.210938 C 23.304688 20.269531 23.410156 20.3125 23.527344 20.339844 L 23.527344 20.636719 L 23.925781 20.636719 L 23.925781 20.203125 L 23.988281 20.148438 L 23.925781 20.09375 L 23.429688 19.085938 L 23.925781 18.082031 L 23.988281 17.957031 L 23.925781 17.898438 L 23.925781 17.539062 Z M 23.527344 17.539062 " fill-opacity="1" fill-rule="nonzero"/></g><g clip-path="url(#7e9ae3d2e6)"><path fill="#697c84" d="M 23.925781 18.082031 L 24.328125 19.007812 L 23.925781 20.09375 C 23.914062 20.097656 23.878906 20.097656 23.855469 20.097656 C 23.300781 20.097656 22.847656 19.644531 22.847656 19.089844 C 22.847656 18.53125 23.300781 18.078125 23.855469 18.078125 C 23.878906 18.078125 23.914062 18.082031 23.925781 18.082031 Z M 23.925781 18.082031 " fill-opacity="1" fill-rule="nonzero"/></g><g clip-path="url(#5246443b8c)"><path fill="#2ee5a7" d="M 23.925781 17.898438 C 23.925781 17.996094 23.925781 20.121094 23.925781 20.203125 C 24.085938 20.203125 25.101562 20.203125 25.261719 20.203125 C 25.261719 19.929688 25.261719 18.167969 25.261719 17.898438 C 25.21875 17.898438 23.953125 17.898438 23.925781 17.898438 Z M 23.925781 17.898438 " fill-opacity="1" fill-rule="nonzero"/></g><path fill="#000000" d="M 24.449219 18.65625 C 24.28125 18.65625 24.144531 18.792969 24.144531 18.964844 L 24.144531 19.375 C 24.144531 19.414062 24.175781 19.449219 24.214844 19.449219 C 24.253906 19.449219 24.289062 19.414062 24.289062 19.375 L 24.289062 19.195312 L 24.613281 19.195312 L 24.613281 19.375 C 24.613281 19.414062 24.644531 19.449219 24.683594 19.449219 C 24.722656 19.449219 24.753906 19.414062 24.753906 19.375 L 24.753906 18.964844 C 24.753906 18.792969 24.617188 18.65625 24.449219 18.65625 Z M 24.289062 19.050781 L 24.289062 18.964844 C 24.289062 18.875 24.359375 18.800781 24.449219 18.800781 C 24.539062 18.800781 24.613281 18.875 24.613281 18.964844 L 24.613281 19.050781 Z M 24.289062 19.050781 " fill-opacity="1" fill-rule="nonzero"/><g clip-path="url(#8d64b20056)"><path fill="#000000" d="M 24.972656 18.65625 C 24.933594 18.65625 24.898438 18.6875 24.898438 18.726562 L 24.898438 19.375 C 24.898438 19.414062 24.933594 19.449219 24.972656 19.449219 C 25.011719 19.449219 25.042969 19.414062 25.042969 19.375 L 25.042969 18.726562 C 25.042969 18.6875 25.011719 18.65625 24.972656 18.65625 Z M 24.972656 18.65625 " fill-opacity="1" fill-rule="nonzero"/></g><g clip-path="url(#062feb2e6c)"><path fill="#000000" d="M 25.839844 18.980469 L 25.332031 18.980469 C 25.332031 18.933594 25.332031 18.878906 25.332031 18.835938 L 25.695312 18.835938 C 25.734375 18.835938 25.765625 18.804688 25.765625 18.761719 L 25.765625 18.582031 C 25.765625 18.542969 25.734375 18.511719 25.695312 18.511719 C 25.65625 18.511719 25.621094 18.542969 25.621094 18.582031 L 25.621094 18.691406 L 25.332031 18.691406 L 25.332031 17.898438 C 25.332031 17.859375 25.300781 17.828125 25.261719 17.828125 L 25.046875 17.828125 L 25.046875 17.539062 L 25.152344 17.539062 C 25.195312 17.539062 25.226562 17.507812 25.226562 17.464844 C 25.226562 17.425781 25.195312 17.394531 25.152344 17.394531 L 24.972656 17.394531 C 24.933594 17.394531 24.902344 17.425781 24.902344 17.464844 L 24.902344 17.828125 L 24.757812 17.828125 L 24.757812 17.324219 C 24.757812 17.28125 24.726562 17.25 24.6875 17.25 C 24.644531 17.25 24.613281 17.28125 24.613281 17.324219 L 24.613281 17.828125 L 24.46875 17.828125 L 24.46875 17.464844 C 24.46875 17.425781 24.4375 17.394531 24.398438 17.394531 L 24.21875 17.394531 C 24.179688 17.394531 24.144531 17.425781 24.144531 17.464844 C 24.144531 17.507812 24.179688 17.539062 24.21875 17.539062 L 24.324219 17.539062 L 24.324219 17.828125 L 23.996094 17.828125 L 23.996094 17.539062 C 23.996094 17.5 23.964844 17.464844 23.925781 17.464844 L 23.527344 17.464844 C 23.488281 17.464844 23.457031 17.5 23.457031 17.539062 L 23.457031 17.777344 C 23.375 17.800781 23.296875 17.832031 23.222656 17.875 L 23.050781 17.703125 C 23.023438 17.675781 22.976562 17.675781 22.949219 17.703125 L 22.472656 18.179688 C 22.445312 18.207031 22.445312 18.253906 22.472656 18.28125 L 22.644531 18.453125 C 22.605469 18.523438 22.574219 18.601562 22.550781 18.679688 L 22.308594 18.679688 C 22.269531 18.679688 22.238281 18.710938 22.238281 18.75 L 22.238281 19.425781 C 22.238281 19.464844 22.269531 19.496094 22.308594 19.496094 L 22.550781 19.496094 C 22.574219 19.574219 22.605469 19.652344 22.644531 19.722656 L 22.472656 19.894531 C 22.445312 19.921875 22.445312 19.96875 22.472656 19.996094 L 22.949219 20.472656 C 22.976562 20.5 23.023438 20.5 23.050781 20.472656 L 23.222656 20.300781 C 23.296875 20.339844 23.375 20.371094 23.457031 20.398438 L 23.457031 20.636719 C 23.457031 20.675781 23.488281 20.707031 23.527344 20.707031 L 23.925781 20.707031 C 23.964844 20.707031 23.996094 20.675781 23.996094 20.636719 L 23.996094 20.277344 L 24.324219 20.277344 L 24.324219 20.5625 L 24.21875 20.5625 C 24.179688 20.5625 24.144531 20.597656 24.144531 20.636719 C 24.144531 20.675781 24.179688 20.707031 24.21875 20.707031 L 24.398438 20.707031 C 24.4375 20.707031 24.46875 20.675781 24.46875 20.636719 L 24.46875 20.277344 L 24.613281 20.277344 L 24.613281 20.851562 C 24.613281 20.890625 24.644531 20.925781 24.6875 20.925781 C 24.726562 20.925781 24.757812 20.890625 24.757812 20.851562 L 24.757812 20.277344 L 24.902344 20.277344 L 24.902344 20.636719 C 24.902344 20.675781 24.933594 20.707031 24.972656 20.707031 L 25.152344 20.707031 C 25.195312 20.707031 25.226562 20.675781 25.226562 20.636719 C 25.226562 20.597656 25.195312 20.5625 25.152344 20.5625 L 25.046875 20.5625 L 25.046875 20.277344 L 25.261719 20.277344 C 25.300781 20.277344 25.332031 20.242188 25.332031 20.203125 C 25.332031 20.128906 25.332031 19.527344 25.332031 19.410156 L 25.621094 19.410156 L 25.621094 19.519531 C 25.621094 19.558594 25.65625 19.589844 25.695312 19.589844 C 25.734375 19.589844 25.765625 19.558594 25.765625 19.519531 L 25.765625 19.339844 C 25.765625 19.300781 25.734375 19.265625 25.695312 19.265625 L 25.332031 19.265625 C 25.332031 19.222656 25.332031 19.167969 25.332031 19.125 L 25.839844 19.125 C 25.878906 19.125 25.910156 19.089844 25.910156 19.050781 C 25.910156 19.011719 25.878906 18.980469 25.839844 18.980469 Z M 23.851562 20.023438 C 23.339844 20.019531 22.921875 19.601562 22.921875 19.085938 C 22.921875 18.574219 23.339844 18.152344 23.851562 18.152344 Z M 23.851562 18.007812 C 23.257812 18.007812 22.777344 18.492188 22.777344 19.085938 C 22.777344 19.679688 23.257812 20.164062 23.851562 20.167969 C 23.851562 20.265625 23.851562 20.515625 23.851562 20.5625 L 23.601562 20.5625 L 23.601562 20.339844 C 23.601562 20.308594 23.578125 20.28125 23.546875 20.273438 C 23.4375 20.246094 23.339844 20.203125 23.246094 20.148438 C 23.214844 20.132812 23.179688 20.136719 23.15625 20.160156 L 23 20.320312 L 22.625 19.945312 L 22.785156 19.785156 C 22.804688 19.765625 22.8125 19.726562 22.796875 19.699219 C 22.742188 19.605469 22.699219 19.507812 22.671875 19.40625 C 22.664062 19.375 22.636719 19.351562 22.601562 19.351562 L 22.378906 19.351562 L 22.378906 18.824219 L 22.601562 18.824219 C 22.636719 18.824219 22.664062 18.800781 22.671875 18.769531 C 22.699219 18.667969 22.742188 18.566406 22.796875 18.476562 C 22.8125 18.445312 22.804688 18.410156 22.785156 18.386719 L 22.625 18.230469 L 23 17.855469 L 23.15625 18.011719 C 23.179688 18.035156 23.214844 18.042969 23.246094 18.023438 C 23.339844 17.96875 23.4375 17.929688 23.546875 17.902344 C 23.578125 17.894531 23.601562 17.867188 23.601562 17.832031 L 23.601562 17.609375 L 23.851562 17.609375 C 23.851562 17.703125 23.851562 17.914062 23.851562 18.007812 Z M 25.191406 20.132812 L 23.996094 20.132812 L 23.996094 17.972656 L 25.191406 17.972656 Z M 25.191406 20.132812 " fill-opacity="1" fill-rule="nonzero"/></g><g clip-path="url(#4805d92538)"><path fill="#0593fc" d="M 26.027344 5.933594 C 25.773438 5.644531 25.804688 5.207031 26.09375 4.953125 C 26.382812 4.699219 26.820312 4.730469 27.074219 5.019531 L 28.859375 7.050781 C 29.109375 7.339844 29.082031 7.78125 28.789062 8.03125 L 26.761719 9.8125 C 26.472656 10.066406 26.03125 10.035156 25.78125 9.75 C 25.523438 9.460938 25.554688 9.019531 25.84375 8.769531 L 26.65625 8.054688 C 23.648438 7.777344 20.722656 8.351562 18.144531 9.601562 C 15.148438 11.054688 12.621094 13.417969 10.988281 16.40625 C 10.804688 16.742188 10.382812 16.867188 10.046875 16.679688 C 9.707031 16.496094 9.582031 16.074219 9.769531 15.738281 C 11.542969 12.492188 14.285156 9.925781 17.539062 8.347656 C 20.304688 7.007812 23.4375 6.382812 26.660156 6.65625 Z M 32.816406 9.886719 C 32.480469 9.707031 32.351562 9.285156 32.53125 8.949219 C 32.714844 8.609375 33.132812 8.480469 33.472656 8.660156 C 35.617188 9.804688 37.464844 11.367188 38.941406 13.214844 C 40.429688 15.082031 41.535156 17.25 42.164062 19.574219 C 42.265625 19.945312 42.046875 20.328125 41.675781 20.429688 C 41.300781 20.53125 40.917969 20.3125 40.816406 19.9375 C 40.234375 17.792969 39.21875 15.800781 37.847656 14.082031 C 36.492188 12.378906 34.789062 10.9375 32.816406 9.886719 Z M 39.472656 31.800781 C 39.652344 31.460938 40.074219 31.332031 40.410156 31.511719 C 40.75 31.695312 40.878906 32.113281 40.699219 32.453125 C 38.921875 35.78125 36.128906 38.410156 32.808594 40.007812 C 30.050781 41.332031 26.933594 41.953125 23.726562 41.679688 L 24.359375 42.402344 C 24.613281 42.691406 24.582031 43.128906 24.296875 43.382812 C 24.007812 43.632812 23.566406 43.605469 23.3125 43.316406 L 21.527344 41.285156 C 21.277344 40.996094 21.304688 40.554688 21.59375 40.304688 L 23.628906 38.523438 C 23.917969 38.269531 24.355469 38.296875 24.609375 38.585938 C 24.863281 38.875 24.832031 39.316406 24.542969 39.566406 L 23.726562 40.285156 C 26.722656 40.558594 29.632812 39.992188 32.203125 38.753906 C 35.261719 37.28125 37.835938 34.859375 39.472656 31.800781 Z M 16.203125 37.625 C 16.519531 37.839844 16.605469 38.273438 16.390625 38.589844 C 16.179688 38.910156 15.746094 38.996094 15.425781 38.78125 C 13.847656 37.726562 12.464844 36.433594 11.320312 34.960938 C 10.167969 33.480469 8.667969 30.195312 8.035156 28.414062 C 7.90625 28.050781 8.09375 27.65625 8.457031 27.527344 C 8.820312 27.398438 9.21875 27.585938 9.347656 27.949219 C 9.929688 29.589844 11.359375 32.738281 12.421875 34.105469 C 13.480469 35.464844 14.753906 36.65625 16.203125 37.625 Z M 16.203125 37.625 " fill-opacity="1" fill-rule="nonzero"/></g><g clip-path="url(#d9ba603c87)"><path fill="#70da40" d="M 41.261719 19.75 C 43.699219 19.75 45.679688 21.730469 45.679688 24.167969 C 45.679688 26.605469 43.699219 28.585938 41.261719 28.585938 C 38.820312 28.585938 36.839844 26.605469 36.839844 24.167969 C 36.839844 21.730469 38.820312 19.75 41.261719 19.75 Z M 41.261719 19.75 " fill-opacity="1" fill-rule="evenodd"/></g><path fill="#daeafa" d="M 42.628906 22.488281 C 42.898438 22.21875 43.339844 22.21875 43.613281 22.488281 C 43.886719 22.761719 43.886719 23.203125 43.613281 23.476562 L 41.246094 25.84375 C 40.976562 26.117188 40.53125 26.117188 40.261719 25.84375 L 38.90625 24.492188 C 38.632812 24.21875 38.632812 23.777344 38.90625 23.503906 C 39.175781 23.230469 39.621094 23.230469 39.890625 23.503906 L 40.753906 24.363281 Z M 42.628906 22.488281 " fill-opacity="1" fill-rule="nonzero"/><g clip-path="url(#03b96f057d)"><path fill="#2f5274" d="M 6.605469 18.53125 L 9.347656 18.53125 L 9.347656 20.382812 C 9.796875 20.546875 10.210938 20.785156 10.570312 21.089844 L 12.175781 20.160156 L 13.546875 22.535156 L 11.9375 23.460938 C 11.980469 23.691406 12 23.925781 12 24.167969 C 12 24.410156 11.980469 24.644531 11.9375 24.875 L 13.546875 25.800781 L 12.175781 28.171875 L 10.570312 27.242188 C 10.210938 27.546875 9.796875 27.789062 9.347656 27.949219 L 9.347656 29.804688 L 6.605469 29.804688 L 6.605469 27.949219 C 6.15625 27.789062 5.742188 27.546875 5.386719 27.242188 L 3.777344 28.171875 L 2.40625 25.800781 L 4.011719 24.875 C 3.972656 24.644531 3.953125 24.410156 3.953125 24.167969 C 3.953125 23.925781 3.972656 23.691406 4.011719 23.460938 L 2.40625 22.535156 L 3.777344 20.160156 L 5.386719 21.089844 C 5.742188 20.785156 6.15625 20.546875 6.605469 20.382812 Z M 6.605469 18.53125 " fill-opacity="1" fill-rule="evenodd"/></g><path fill="#daeafa" d="M 16.417969 12.464844 L 33.96875 12.464844 L 33.96875 35.871094 L 16.417969 35.871094 Z M 16.417969 12.464844 " fill-opacity="1" fill-rule="evenodd"/><path fill="#70da40" d="M 20.953125 30.300781 C 21.226562 30.023438 21.667969 30.023438 21.9375 30.300781 C 22.210938 30.570312 22.210938 31.011719 21.9375 31.285156 L 20.144531 33.078125 C 19.871094 33.351562 19.433594 33.351562 19.15625 33.078125 L 18.132812 32.050781 C 17.859375 31.78125 17.859375 31.339844 18.132812 31.066406 C 18.40625 30.792969 18.84375 30.792969 19.117188 31.066406 L 19.652344 31.597656 Z M 20.953125 30.300781 " fill-opacity="1" fill-rule="nonzero"/><path fill="#0593fc" d="M 24.121094 27.371094 C 23.738281 27.371094 23.425781 27.058594 23.425781 26.675781 C 23.425781 26.289062 23.738281 25.976562 24.121094 25.976562 L 31.761719 25.976562 C 32.148438 25.976562 32.460938 26.289062 32.460938 26.675781 C 32.460938 27.058594 32.148438 27.371094 31.761719 27.371094 Z M 24.121094 27.371094 " fill-opacity="1" fill-rule="nonzero"/><path fill="#70da40" d="M 20.953125 25.285156 C 21.226562 25.011719 21.667969 25.011719 21.9375 25.285156 C 22.210938 25.554688 22.210938 25.996094 21.9375 26.269531 L 20.144531 28.0625 C 19.871094 28.335938 19.433594 28.335938 19.15625 28.0625 L 18.132812 27.039062 C 17.859375 26.765625 17.859375 26.324219 18.132812 26.050781 C 18.40625 25.777344 18.84375 25.777344 19.117188 26.050781 L 19.652344 26.582031 Z M 20.953125 25.285156 " fill-opacity="1" fill-rule="nonzero"/><path fill="#0593fc" d="M 24.121094 22.359375 C 23.738281 22.359375 23.425781 22.046875 23.425781 21.660156 C 23.425781 21.273438 23.738281 20.964844 24.121094 20.964844 L 31.761719 20.964844 C 32.148438 20.964844 32.460938 21.273438 32.460938 21.660156 C 32.460938 22.046875 32.148438 22.359375 31.761719 22.359375 Z M 24.121094 22.359375 " fill-opacity="1" fill-rule="nonzero"/><path fill="#70da40" d="M 20.953125 20.269531 C 21.226562 20 21.667969 20 21.9375 20.269531 C 22.210938 20.542969 22.210938 20.984375 21.9375 21.257812 L 20.144531 23.050781 C 19.871094 23.324219 19.433594 23.324219 19.15625 23.050781 L 18.132812 22.023438 C 17.859375 21.75 17.859375 21.3125 18.132812 21.039062 C 18.40625 20.765625 18.84375 20.765625 19.117188 21.039062 L 19.652344 21.570312 Z M 20.953125 20.269531 " fill-opacity="1" fill-rule="nonzero"/><path fill="#0593fc" d="M 24.121094 17.34375 C 23.738281 17.34375 23.425781 17.03125 23.425781 16.648438 C 23.425781 16.261719 23.738281 15.949219 24.121094 15.949219 L 31.761719 15.949219 C 32.148438 15.949219 32.460938 16.261719 32.460938 16.648438 C 32.460938 17.03125 32.148438 17.34375 31.761719 17.34375 Z M 24.121094 17.34375 " fill-opacity="1" fill-rule="nonzero"/><path fill="#70da40" d="M 20.953125 15.257812 C 21.226562 14.984375 21.667969 14.984375 21.9375 15.257812 C 22.210938 15.527344 22.210938 15.972656 21.9375 16.242188 L 20.144531 18.035156 C 19.871094 18.308594 19.433594 18.308594 19.15625 18.035156 L 18.132812 17.011719 C 17.859375 16.738281 17.859375 16.296875 18.132812 16.023438 C 18.40625 15.75 18.84375 15.75 19.117188 16.023438 L 19.652344 16.558594 Z M 20.953125 15.257812 " fill-opacity="1" fill-rule="nonzero"/><path fill="#0593fc" d="M 24.121094 32.386719 C 23.738281 32.386719 23.425781 32.074219 23.425781 31.6875 C 23.425781 31.304688 23.738281 30.992188 24.121094 30.992188 L 31.761719 30.992188 C 32.148438 30.992188 32.460938 31.304688 32.460938 31.6875 C 32.460938 32.074219 32.148438 32.386719 31.761719 32.386719 Z M 24.121094 32.386719 " fill-opacity="1" fill-rule="nonzero"/><path fill="#daeafa" d="M 7.976562 26.402344 C 9.207031 26.402344 10.214844 25.398438 10.214844 24.167969 C 10.214844 22.9375 9.207031 21.933594 7.976562 21.933594 C 6.742188 21.933594 5.738281 22.9375 5.738281 24.167969 C 5.738281 25.398438 6.742188 26.402344 7.976562 26.402344 Z M 7.976562 26.402344 " fill-opacity="1" fill-rule="evenodd"/><path fill="#c4d3e1" d="M 16.417969 12.464844 L 17.617188 12.464844 L 17.617188 35.871094 L 16.417969 35.871094 Z M 16.417969 12.464844 " fill-opacity="1" fill-rule="evenodd"/><path fill="#65c43a" d="M 37.941406 24.167969 C 37.941406 22.261719 39.152344 20.636719 40.84375 20.019531 C 41.152344 19.90625 41.476562 19.824219 41.808594 19.785156 C 41.632812 19.761719 41.445312 19.75 41.261719 19.75 C 41.097656 19.75 40.933594 19.757812 40.773438 19.777344 C 38.5625 20.019531 36.84375 21.890625 36.84375 24.164062 C 36.84375 26.605469 38.820312 28.582031 41.261719 28.582031 C 41.449219 28.582031 41.632812 28.570312 41.8125 28.546875 C 39.628906 28.28125 37.941406 26.421875 37.941406 24.167969 Z M 37.941406 24.167969 " fill-opacity="1" fill-rule="evenodd"/><path fill="#c4d3e1" d="M 6.492188 24.167969 C 6.492188 23.0625 7.296875 22.140625 8.351562 21.960938 C 8.230469 21.941406 8.105469 21.933594 7.976562 21.933594 C 6.742188 21.933594 5.738281 22.933594 5.738281 24.167969 C 5.738281 25.402344 6.742188 26.402344 7.976562 26.402344 C 8.105469 26.402344 8.230469 26.394531 8.351562 26.371094 C 7.296875 26.195312 6.492188 25.273438 6.492188 24.167969 Z M 6.492188 24.167969 " fill-opacity="1" fill-rule="evenodd"/></svg>