<svg width="64" height="64" viewBox="0 0 64 64" fill="none" xmlns="http://www.w3.org/2000/svg">
  <!-- Background circle -->
  <circle cx="32" cy="32" r="30" fill="#1e293b" stroke="#334155" stroke-width="2"/>
  
  <!-- Design tools theme -->
  <!-- Pen tool -->
  <path d="M20 44L24 40L36 28L40 32L28 44L20 44Z" fill="#f59e0b" stroke="#d97706" stroke-width="1"/>
  <path d="M36 28L40 24L44 28L40 32L36 28Z" fill="#fbbf24"/>
  
  <!-- Ruler -->
  <rect x="14" y="18" width="20" height="3" rx="1" fill="#6366f1"/>
  <rect x="16" y="16" width="1" height="2" fill="#4f46e5"/>
  <rect x="20" y="16" width="1" height="2" fill="#4f46e5"/>
  <rect x="24" y="16" width="1" height="2" fill="#4f46e5"/>
  <rect x="28" y="16" width="1" height="2" fill="#4f46e5"/>
  <rect x="32" y="16" width="1" height="2" fill="#4f46e5"/>
  
  <!-- Color palette -->
  <circle cx="46" cy="18" r="3" fill="#ef4444"/>
  <circle cx="52" cy="18" r="3" fill="#22c55e"/>
  <circle cx="49" cy="24" r="3" fill="#3b82f6"/>
  
  <!-- Brush -->
  <path d="M42 36L46 40L50 36L48 34L44 34L42 36Z" fill="#8b5cf6"/>
  <rect x="47" y="30" width="2" height="6" fill="#a855f7"/>
  
  <!-- Grid lines for design precision -->
  <defs>
    <pattern id="grid" width="4" height="4" patternUnits="userSpaceOnUse">
      <path d="M 4 0 L 0 0 0 4" fill="none" stroke="#374151" stroke-width="0.5" opacity="0.3"/>
    </pattern>
  </defs>
  <rect x="8" y="8" width="48" height="48" fill="url(#grid)" opacity="0.2"/>
</svg>