<svg xmlns="http://www.w3.org/2000/svg" width="220" height="48" viewBox="0 0 220 48" fill="none">
  <g>
    <!-- Document icon -->
    <path d="M24 8H12C10.9 8 10 8.9 10 10V38C10 39.1 10.9 40 12 40H36C37.1 40 38 39.1 38 38V22L24 8Z" fill="#2563EB" />
    <path d="M24 8V22H38L24 8Z" fill="#3B82F6" />
    
    <!-- Pixcraftai Text -->
    <path d="M56 17.92V32H52.32V17.92H56ZM61.35 17.92C62.15 17.92 62.82 18.08 63.37 18.4C63.93 18.72 64.35 19.17 64.63 19.74C64.91 20.3 65.05 20.95 65.05 21.68V28.24C65.05 28.97 64.91 29.62 64.63 30.18C64.35 30.74 63.93 31.19 63.37 31.52C62.82 31.84 62.15 32 61.35 32H52.32V30.08H61.35C61.76 30.08 62.08 29.97 62.31 29.76C62.55 29.55 62.67 29.26 62.67 28.9V21.02C62.67 20.66 62.55 20.37 62.31 20.16C62.08 19.95 61.76 19.84 61.35 19.84H52.32V17.92H61.35Z" fill="#2563EB" />
    <path d="M68.01 17.92H71.69V32H68.01V17.92ZM76.87 17.92H80.43L87.37 26.9V17.92H91.05V32H87.49L80.55 22.96V32H76.87V17.92Z" fill="#2563EB" />
    <path d="M103.06 17.92C103.86 17.92 104.53 18.08 105.08 18.4C105.64 18.72 106.06 19.17 106.34 19.74C106.62 20.3 106.76 20.95 106.76 21.68V28.24C106.76 28.97 106.62 29.62 106.34 30.18C106.06 30.74 105.64 31.19 105.08 31.52C104.53 31.84 103.86 32 103.06 32H97.04C96.24 32 95.57 31.84 95.02 31.52C94.46 31.19 94.04 30.74 93.76 30.18C93.48 29.62 93.34 28.97 93.34 28.24V21.68C93.34 20.95 93.48 20.3 93.76 19.74C94.04 19.17 94.46 18.72 95.02 18.4C95.57 18.08 96.24 17.92 97.04 17.92H103.06ZM103.06 19.84H97.04C96.63 19.84 96.31 19.95 96.08 20.16C95.84 20.37 95.72 20.66 95.72 21.02V28.9C95.72 29.26 95.84 29.55 96.08 29.76C96.31 29.97 96.63 30.08 97.04 30.08H103.06C103.47 30.08 103.79 29.97 104.02 29.76C104.26 29.55 104.38 29.26 104.38 28.9V21.02C104.38 20.66 104.26 20.37 104.02 20.16C103.79 19.95 103.47 19.84 103.06 19.84Z" fill="#2563EB" />
    <path d="M108.13 17.92H116.05C116.85 17.92 117.52 18.08 118.07 18.4C118.63 18.72 119.05 19.17 119.33 19.74C119.61 20.3 119.75 20.95 119.75 21.68V22.32C119.75 23.04 119.63 23.66 119.39 24.16C119.15 24.66 118.83 25.07 118.43 25.38C118.03 25.68 117.57 25.92 117.05 26.08L120.09 32H116.11L113.31 26.4H111.81V32H108.13V17.92ZM116.05 19.84H111.81V24.48H116.05C116.46 24.48 116.78 24.37 117.01 24.16C117.25 23.95 117.37 23.65 117.37 23.3V21.02C117.37 20.66 117.25 20.37 117.01 20.16C116.78 19.95 116.46 19.84 116.05 19.84Z" fill="#2563EB" />
    <path d="M129.02 17.92C129.82 17.92 130.49 18.08 131.04 18.4C131.6 18.72 132.02 19.17 132.3 19.74C132.58 20.3 132.72 20.95 132.72 21.68V28.24C132.72 28.97 132.58 29.62 132.3 30.18C132.02 30.74 131.6 31.19 131.04 31.52C130.49 31.84 129.82 32 129.02 32H123C122.2 32 121.53 31.84 120.98 31.52C120.42 31.19 120 30.74 119.72 30.18C119.44 29.62 119.3 28.97 119.3 28.24V21.68C119.3 20.95 119.44 20.3 119.72 19.74C120 19.17 120.42 18.72 120.98 18.4C121.53 18.08 122.2 17.92 123 17.92H129.02ZM129.02 19.84H123C122.59 19.84 122.27 19.95 122.04 20.16C121.8 20.37 121.68 20.66 121.68 21.02V28.9C121.68 29.26 121.8 29.55 122.04 29.76C122.27 29.97 122.59 30.08 123 30.08H129.02C129.43 30.08 129.75 29.97 129.98 29.76C130.22 29.55 130.34 29.26 130.34 28.9V21.02C130.34 20.66 130.22 20.37 129.98 20.16C129.75 19.95 129.43 19.84 129.02 19.84Z" fill="#2563EB" />
    <path d="M139.04 17.92H143.02L147.92 32H144.34L143.52 29.44H138.54L137.72 32H134.14L139.04 17.92ZM139.34 27.52H142.72L141.18 22.96H140.88L139.34 27.52Z" fill="#2563EB" />
    <path d="M148.73 17.92H152.41V30.08H159.77V32H148.73V17.92Z" fill="#2563EB" />
    <path d="M170.97 17.92H174.65V32H170.97V17.92ZM174.53 24.96V27.04H162.97V24.96H174.53Z" fill="#2563EB" />
  </g>
</svg> 