<svg xmlns="http://www.w3.org/2000/svg" xmlns:xlink="http://www.w3.org/1999/xlink" width="64" zoomAndPan="magnify" viewBox="0 0 48 48" height="64" preserveAspectRatio="xMidYMid meet" version="1.0"><defs><clipPath id="7d4d694f07"><path d="M 24 20 L 26 20 L 26 23.65625 L 24 23.65625 Z M 24 20 " clip-rule="nonzero"/></clipPath><clipPath id="4ba1b374a4"><path d="M 25 20 L 27.671875 20 L 27.671875 23 L 25 23 Z M 25 20 " clip-rule="nonzero"/></clipPath><clipPath id="2c96c46afe"><path d="M 24 19.984375 L 27.671875 19.984375 L 27.671875 23.65625 L 24 23.65625 Z M 24 19.984375 " clip-rule="nonzero"/></clipPath><clipPath id="8afa512865"><path d="M 1.144531 6 L 45 6 L 45 42.566406 L 1.144531 42.566406 Z M 1.144531 6 " clip-rule="nonzero"/></clipPath><clipPath id="c3263edbbd"><path d="M 1.144531 5.832031 L 46.695312 5.832031 L 46.695312 42.566406 L 1.144531 42.566406 Z M 1.144531 5.832031 " clip-rule="nonzero"/></clipPath><clipPath id="2f3fa88215"><path d="M 8 6 L 30 6 L 30 42.566406 L 8 42.566406 Z M 8 6 " clip-rule="nonzero"/></clipPath><clipPath id="489294acbd"><path d="M 9 5.832031 L 34 5.832031 L 34 42.566406 L 9 42.566406 Z M 9 5.832031 " clip-rule="nonzero"/></clipPath><clipPath id="d3b8e4e1d2"><path d="M 7 5.832031 L 36 5.832031 L 36 42.566406 L 7 42.566406 Z M 7 5.832031 " clip-rule="nonzero"/></clipPath><clipPath id="de132345af"><path d="M 7 7 L 46.695312 7 L 46.695312 41 L 7 41 Z M 7 7 " clip-rule="nonzero"/></clipPath><clipPath id="32f89ba71b"><path d="M 5 5.832031 L 46.695312 5.832031 L 46.695312 42.566406 L 5 42.566406 Z M 5 5.832031 " clip-rule="nonzero"/></clipPath><clipPath id="b0cbb00ebf"><path d="M 4 10 L 43 10 L 43 42.566406 L 4 42.566406 Z M 4 10 " clip-rule="nonzero"/></clipPath><clipPath id="4b53376379"><path d="M 1.144531 8 L 46 8 L 46 42.566406 L 1.144531 42.566406 Z M 1.144531 8 " clip-rule="nonzero"/></clipPath></defs><g clip-path="url(#7d4d694f07)"><path fill="#32393f" d="M 25.292969 20.273438 L 25.292969 20.566406 C 25.171875 20.59375 25.070312 20.640625 24.972656 20.695312 L 24.761719 20.488281 L 24.289062 20.964844 L 24.496094 21.171875 C 24.441406 21.269531 24.394531 21.375 24.367188 21.484375 L 24.070312 21.484375 L 24.070312 22.15625 L 24.367188 22.15625 C 24.394531 22.269531 24.441406 22.371094 24.496094 22.46875 L 24.289062 22.675781 L 24.761719 23.152344 L 24.972656 22.945312 C 25.070312 23 25.171875 23.046875 25.292969 23.074219 L 25.292969 23.367188 L 25.6875 23.367188 L 25.6875 22.9375 L 25.75 22.882812 L 25.6875 22.828125 L 25.191406 21.820312 L 25.6875 20.8125 L 25.75 20.691406 L 25.6875 20.632812 L 25.6875 20.273438 Z M 25.292969 20.273438 " fill-opacity="1" fill-rule="nonzero"/></g><path fill="#697c84" d="M 25.6875 20.816406 L 26.089844 21.738281 L 25.6875 22.828125 C 25.675781 22.828125 25.644531 22.828125 25.621094 22.828125 C 25.0625 22.828125 24.613281 22.378906 24.613281 21.820312 C 24.613281 21.265625 25.0625 20.8125 25.621094 20.8125 C 25.644531 20.8125 25.675781 20.8125 25.6875 20.816406 Z M 25.6875 20.816406 " fill-opacity="1" fill-rule="nonzero"/><g clip-path="url(#4ba1b374a4)"><path fill="#2ee5a7" d="M 25.6875 20.632812 C 25.6875 20.726562 25.6875 22.851562 25.6875 22.9375 C 25.847656 22.9375 26.867188 22.9375 27.023438 22.9375 C 27.023438 22.660156 27.023438 20.902344 27.023438 20.632812 C 26.984375 20.632812 25.71875 20.632812 25.6875 20.632812 Z M 25.6875 20.632812 " fill-opacity="1" fill-rule="nonzero"/></g><path fill="#000000" d="M 26.210938 21.390625 C 26.042969 21.390625 25.90625 21.527344 25.90625 21.695312 L 25.90625 22.109375 C 25.90625 22.148438 25.9375 22.179688 25.976562 22.179688 C 26.019531 22.179688 26.050781 22.148438 26.050781 22.109375 L 26.050781 21.929688 L 26.375 21.929688 L 26.375 22.109375 C 26.375 22.148438 26.40625 22.179688 26.445312 22.179688 C 26.488281 22.179688 26.519531 22.148438 26.519531 22.109375 L 26.519531 21.695312 C 26.519531 21.527344 26.382812 21.390625 26.210938 21.390625 Z M 26.050781 21.785156 L 26.050781 21.695312 C 26.050781 21.605469 26.125 21.535156 26.210938 21.535156 C 26.300781 21.535156 26.375 21.605469 26.375 21.695312 L 26.375 21.785156 Z M 26.050781 21.785156 " fill-opacity="1" fill-rule="nonzero"/><path fill="#000000" d="M 26.734375 21.386719 C 26.695312 21.386719 26.664062 21.421875 26.664062 21.460938 L 26.664062 22.109375 C 26.664062 22.148438 26.695312 22.179688 26.734375 22.179688 C 26.773438 22.179688 26.808594 22.148438 26.808594 22.109375 L 26.808594 21.460938 C 26.808594 21.421875 26.773438 21.386719 26.734375 21.386719 Z M 26.734375 21.386719 " fill-opacity="1" fill-rule="nonzero"/><g clip-path="url(#2c96c46afe)"><path fill="#000000" d="M 27.601562 21.710938 L 27.097656 21.710938 C 27.097656 21.667969 27.097656 21.609375 27.097656 21.566406 L 27.457031 21.566406 C 27.496094 21.566406 27.53125 21.535156 27.53125 21.496094 L 27.53125 21.316406 C 27.53125 21.277344 27.496094 21.246094 27.457031 21.246094 C 27.417969 21.246094 27.386719 21.277344 27.386719 21.316406 L 27.386719 21.425781 L 27.097656 21.425781 L 27.097656 20.632812 C 27.097656 20.59375 27.066406 20.558594 27.023438 20.558594 L 26.808594 20.558594 L 26.808594 20.273438 L 26.917969 20.273438 C 26.957031 20.273438 26.988281 20.238281 26.988281 20.199219 C 26.988281 20.160156 26.957031 20.128906 26.917969 20.128906 L 26.738281 20.128906 C 26.699219 20.128906 26.664062 20.160156 26.664062 20.199219 L 26.664062 20.558594 L 26.519531 20.558594 L 26.519531 20.054688 C 26.519531 20.015625 26.488281 19.984375 26.449219 19.984375 C 26.410156 19.984375 26.375 20.015625 26.375 20.054688 L 26.375 20.558594 L 26.234375 20.558594 L 26.234375 20.199219 C 26.234375 20.160156 26.199219 20.128906 26.160156 20.128906 L 25.980469 20.128906 C 25.941406 20.128906 25.910156 20.160156 25.910156 20.199219 C 25.910156 20.238281 25.941406 20.273438 25.980469 20.273438 L 26.089844 20.273438 L 26.089844 20.558594 L 25.761719 20.558594 L 25.761719 20.273438 C 25.761719 20.230469 25.726562 20.199219 25.6875 20.199219 L 25.292969 20.199219 C 25.25 20.199219 25.21875 20.230469 25.21875 20.273438 L 25.21875 20.511719 C 25.136719 20.535156 25.058594 20.566406 24.984375 20.605469 L 24.816406 20.4375 C 24.785156 20.410156 24.742188 20.410156 24.710938 20.4375 L 24.238281 20.914062 C 24.207031 20.941406 24.207031 20.984375 24.238281 21.015625 L 24.40625 21.183594 C 24.367188 21.257812 24.335938 21.332031 24.3125 21.410156 L 24.070312 21.410156 C 24.03125 21.410156 24 21.445312 24 21.484375 L 24 22.15625 C 24 22.195312 24.03125 22.230469 24.070312 22.230469 L 24.3125 22.230469 C 24.335938 22.308594 24.367188 22.382812 24.40625 22.457031 L 24.238281 22.625 C 24.207031 22.65625 24.207031 22.699219 24.238281 22.726562 L 24.710938 23.203125 C 24.742188 23.234375 24.785156 23.234375 24.816406 23.203125 L 24.984375 23.035156 C 25.058594 23.074219 25.136719 23.105469 25.21875 23.128906 L 25.21875 23.367188 C 25.21875 23.410156 25.25 23.441406 25.292969 23.441406 L 25.6875 23.441406 C 25.726562 23.441406 25.761719 23.410156 25.761719 23.367188 L 25.761719 23.007812 L 26.089844 23.007812 L 26.089844 23.296875 L 25.980469 23.296875 C 25.941406 23.296875 25.910156 23.328125 25.910156 23.367188 C 25.910156 23.410156 25.941406 23.441406 25.980469 23.441406 L 26.160156 23.441406 C 26.199219 23.441406 26.234375 23.410156 26.234375 23.367188 L 26.234375 23.007812 L 26.375 23.007812 L 26.375 23.585938 C 26.375 23.625 26.410156 23.65625 26.449219 23.65625 C 26.488281 23.65625 26.519531 23.625 26.519531 23.585938 L 26.519531 23.007812 L 26.664062 23.007812 L 26.664062 23.367188 C 26.664062 23.410156 26.699219 23.441406 26.738281 23.441406 L 26.917969 23.441406 C 26.957031 23.441406 26.988281 23.410156 26.988281 23.367188 C 26.988281 23.328125 26.957031 23.296875 26.917969 23.296875 L 26.808594 23.296875 L 26.808594 23.007812 L 27.023438 23.007812 C 27.066406 23.007812 27.097656 22.976562 27.097656 22.9375 C 27.097656 22.863281 27.097656 22.261719 27.097656 22.144531 L 27.386719 22.144531 L 27.386719 22.253906 C 27.386719 22.292969 27.417969 22.324219 27.457031 22.324219 C 27.496094 22.324219 27.53125 22.292969 27.53125 22.253906 L 27.53125 22.074219 C 27.53125 22.03125 27.496094 22 27.457031 22 L 27.097656 22 C 27.097656 21.957031 27.097656 21.898438 27.097656 21.855469 L 27.601562 21.855469 C 27.640625 21.855469 27.671875 21.824219 27.671875 21.785156 C 27.671875 21.746094 27.640625 21.710938 27.601562 21.710938 Z M 25.617188 22.757812 C 25.101562 22.753906 24.683594 22.335938 24.683594 21.820312 C 24.683594 21.304688 25.101562 20.886719 25.617188 20.882812 Z M 25.617188 20.738281 C 25.023438 20.742188 24.539062 21.226562 24.539062 21.820312 C 24.539062 22.414062 25.023438 22.898438 25.617188 22.902344 C 25.617188 23 25.617188 23.246094 25.617188 23.296875 L 25.363281 23.296875 L 25.363281 23.074219 C 25.363281 23.042969 25.339844 23.011719 25.308594 23.003906 C 25.203125 22.976562 25.101562 22.9375 25.007812 22.882812 C 24.980469 22.867188 24.945312 22.871094 24.921875 22.894531 L 24.761719 23.050781 L 24.390625 22.675781 L 24.546875 22.519531 C 24.570312 22.496094 24.574219 22.460938 24.558594 22.433594 C 24.503906 22.339844 24.464844 22.242188 24.4375 22.136719 C 24.425781 22.105469 24.398438 22.085938 24.367188 22.085938 L 24.144531 22.085938 L 24.144531 21.554688 L 24.367188 21.554688 C 24.398438 21.554688 24.425781 21.535156 24.4375 21.503906 C 24.464844 21.398438 24.503906 21.300781 24.558594 21.207031 C 24.574219 21.179688 24.570312 21.144531 24.546875 21.121094 L 24.390625 20.964844 L 24.761719 20.589844 L 24.921875 20.746094 C 24.945312 20.769531 24.980469 20.773438 25.007812 20.757812 C 25.101562 20.703125 25.203125 20.664062 25.308594 20.636719 C 25.339844 20.628906 25.363281 20.597656 25.363281 20.566406 L 25.363281 20.34375 L 25.617188 20.34375 C 25.617188 20.4375 25.617188 20.648438 25.617188 20.738281 Z M 26.953125 22.863281 L 25.761719 22.863281 L 25.761719 20.703125 L 26.953125 20.703125 Z M 26.953125 22.863281 " fill-opacity="1" fill-rule="nonzero"/></g><g clip-path="url(#8afa512865)"><path fill="#d9d9d9" d="M 41.71875 25.222656 C 41.675781 25.230469 41.636719 25.230469 41.59375 25.230469 L 39.359375 25.230469 C 39.3125 25.230469 39.277344 25.230469 39.230469 25.222656 L 36.789062 25.222656 L 36.789062 24.949219 C 36.789062 24.949219 36.464844 24.417969 35.769531 24.417969 C 34.964844 24.417969 34.699219 24.949219 34.699219 24.949219 L 34.699219 25.222656 L 30.585938 25.222656 C 30.558594 25.230469 30.523438 25.230469 30.496094 25.230469 L 26.097656 25.230469 L 26.097656 25.222656 L 1.234375 25.222656 L 1.234375 26.082031 L 2.238281 26.082031 L 2.238281 27.195312 L 43.328125 27.195312 L 43.328125 26.082031 L 44.332031 26.082031 L 44.332031 25.222656 Z M 26.109375 25.222656 L 26.109375 25.230469 L 30.503906 25.230469 C 30.53125 25.230469 30.566406 25.230469 30.59375 25.222656 Z M 40.796875 25.222656 C 40.5625 25.25 40.363281 25.222656 40.363281 25.222656 L 39.242188 25.222656 C 39.285156 25.230469 39.324219 25.230469 39.367188 25.230469 L 41.601562 25.230469 C 41.648438 25.230469 41.683594 25.230469 41.730469 25.222656 Z M 2.582031 27.195312 L 2.582031 42.449219 L 4.183594 42.449219 L 4.183594 27.195312 Z M 41.320312 27.195312 L 41.320312 38.65625 L 41.636719 38.65625 C 41.710938 38.65625 41.78125 38.683594 41.835938 38.738281 C 41.882812 38.785156 41.917969 38.859375 41.917969 38.933594 C 41.917969 39.085938 41.792969 39.207031 41.648438 39.207031 L 41.636719 39.207031 L 41.347656 41.902344 C 41.347656 41.921875 41.339844 41.9375 41.339844 41.957031 L 41.339844 42.449219 L 42.933594 42.449219 L 42.933594 27.195312 Z M 33.335938 24.5 C 33.261719 23.914062 33.199219 23.191406 33.164062 22.761719 L 29.273438 22.761719 L 29.425781 24.507812 L 30.484375 24.507812 C 30.683594 24.507812 30.847656 24.582031 30.847656 24.785156 L 30.847656 24.875 C 30.847656 25.039062 30.730469 25.183594 30.574219 25.222656 L 32.757812 25.222656 C 33.046875 25.183594 33.398438 25.03125 33.335938 24.5 Z M 42.089844 21.730469 C 42.0625 21.722656 42.035156 21.722656 42.007812 21.722656 L 38.953125 21.722656 C 38.796875 21.722656 38.679688 21.839844 38.679688 21.996094 L 38.679688 24.546875 C 38.679688 24.882812 38.925781 25.167969 39.242188 25.230469 C 39.285156 25.242188 39.324219 25.242188 39.367188 25.242188 L 41.601562 25.242188 C 41.648438 25.242188 41.683594 25.242188 41.730469 25.230469 C 42.046875 25.175781 42.289062 24.882812 42.289062 24.546875 L 42.289062 21.996094 C 42.28125 21.867188 42.199219 21.765625 42.089844 21.730469 Z M 39.757812 6.777344 L 19.859375 6.777344 C 19.234375 6.777344 18.734375 7.289062 18.734375 7.910156 L 18.734375 21.621094 C 18.734375 22.25 19.242188 22.753906 19.859375 22.753906 L 38.671875 22.753906 L 38.671875 21.988281 C 38.671875 21.832031 38.796875 21.710938 38.941406 21.710938 L 39.414062 21.710938 L 39.070312 20.605469 L 38.664062 19.273438 L 39.015625 19.164062 L 39.367188 19.050781 L 39.683594 20.09375 L 40.183594 21.722656 L 40.777344 21.722656 L 40.878906 20.917969 L 40.878906 7.921875 C 40.878906 7.289062 40.382812 6.777344 39.757812 6.777344 Z M 35.769531 24.417969 C 34.964844 24.417969 34.699219 24.949219 34.699219 24.949219 L 34.699219 25.222656 L 36.800781 25.222656 L 36.800781 24.949219 C 36.800781 24.949219 36.472656 24.417969 35.769531 24.417969 Z M 29.5 25.222656 L 26.109375 25.222656 L 26.109375 25.230469 L 29.507812 25.230469 Z M 41.070312 19.480469 L 40.886719 20.925781 L 40.789062 21.730469 L 41.160156 21.730469 L 41.4375 19.535156 Z M 41.402344 18.925781 L 41.222656 18.898438 L 41.058594 19.472656 L 41.421875 19.519531 Z M 41.394531 18.613281 L 41.304688 18.59375 L 41.222656 18.898438 L 41.394531 18.914062 Z M 15.007812 33.199219 C 14.917969 33.539062 13.96875 37.023438 13.609375 38.75 L 16.582031 39.277344 C 17.136719 37.414062 18.339844 33.199219 18.339844 33.199219 Z M 21.847656 29.144531 C 21.015625 28.667969 18.195312 28.027344 18.195312 28.027344 L 17.742188 30.210938 L 18.800781 30.210938 C 19.503906 30.210938 20.074219 30.789062 20.074219 31.5 L 20.074219 31.609375 L 20.347656 31.609375 C 20.824219 32.058594 20.917969 32.570312 20.347656 33.191406 L 19.460938 33.191406 C 19.460938 33.191406 17.804688 37.339844 17.164062 39.113281 L 20.582031 39.113281 C 21.46875 37.367188 22.699219 33.199219 22.804688 31.765625 C 22.933594 30.128906 22.453125 29.492188 21.847656 29.144531 Z M 41.628906 39.207031 L 41.339844 41.902344 C 41.339844 41.921875 41.332031 41.9375 41.332031 41.957031 C 41.277344 42.230469 41.042969 42.433594 40.761719 42.433594 L 38.789062 42.433594 C 38.5 42.433594 38.246094 42.214844 38.210938 41.921875 L 37.847656 39.207031 Z M 41.917969 38.933594 C 41.917969 39.085938 41.792969 39.207031 41.648438 39.207031 L 37.832031 39.207031 C 37.757812 39.207031 37.6875 39.179688 37.640625 39.125 C 37.59375 39.078125 37.558594 39.003906 37.558594 38.933594 C 37.558594 38.777344 37.6875 38.65625 37.832031 38.65625 L 41.648438 38.65625 C 41.71875 38.65625 41.792969 38.683594 41.847656 38.738281 C 41.882812 38.785156 41.917969 38.859375 41.917969 38.933594 Z M 41.917969 38.933594 " fill-opacity="1" fill-rule="nonzero"/></g><g clip-path="url(#c3263edbbd)"><path stroke-linecap="butt" transform="matrix(0.0904508, 0, 0, 0.0913983, 1.143475, 5.799916)" fill="none" stroke-linejoin="miter" d="M 448.589485 212.506629 C 448.114434 212.592107 447.682569 212.592107 447.207518 212.592107 L 422.504861 212.592107 C 421.986623 212.592107 421.597945 212.592107 421.079707 212.506629 L 394.088167 212.506629 L 394.088167 209.514916 C 394.088167 209.514916 390.50369 203.702443 382.816499 203.702443 C 373.920088 203.702443 370.983408 209.514916 370.983408 209.514916 L 370.983408 212.506629 L 325.508061 212.506629 C 325.205755 212.592107 324.817077 212.592107 324.514772 212.592107 L 275.886813 212.592107 L 275.886813 212.506629 L 1.004965 212.506629 L 1.004965 221.909159 L 12.103886 221.909159 L 12.103886 234.089708 L 466.382309 234.089708 L 466.382309 221.909159 L 477.48123 221.909159 L 477.48123 212.506629 Z M 276.016372 212.506629 L 276.016372 212.592107 L 324.601145 212.592107 C 324.90345 212.592107 325.292128 212.592107 325.594434 212.506629 Z M 438.39748 212.506629 C 435.806292 212.805801 433.603782 212.506629 433.603782 212.506629 L 421.209267 212.506629 C 421.684318 212.592107 422.116182 212.592107 422.591233 212.592107 L 447.293891 212.592107 C 447.812129 212.592107 448.200807 212.592107 448.719045 212.506629 Z M 15.904295 234.089708 L 15.904295 400.984601 L 33.610745 400.984601 L 33.610745 234.089708 Z M 444.184466 234.089708 L 444.184466 359.485256 L 447.682569 359.485256 C 448.503112 359.485256 449.280469 359.784428 449.885079 360.38277 C 450.403317 360.895635 450.791995 361.707672 450.791995 362.519709 C 450.791995 364.186521 449.410028 365.511423 447.812129 365.511423 L 447.682569 365.511423 L 444.486771 395.001173 C 444.486771 395.214867 444.400398 395.385822 444.400398 395.599516 L 444.400398 400.984601 L 462.020476 400.984601 L 462.020476 234.089708 Z M 355.911332 204.599957 C 355.090789 198.189142 354.399806 190.282469 354.011127 185.581205 L 310.997409 185.581205 L 312.681681 204.685435 L 324.385213 204.685435 C 326.587722 204.685435 328.401554 205.497471 328.401554 207.719887 L 328.401554 208.702879 C 328.401554 210.497907 327.10596 212.079242 325.378501 212.506629 L 349.519735 212.506629 C 352.715533 212.079242 356.602315 210.41243 355.911332 204.599957 Z M 452.692199 174.29817 C 452.389894 174.212692 452.087589 174.212692 451.785284 174.212692 L 418.013468 174.212692 C 416.28601 174.212692 414.990416 175.494855 414.990416 177.204406 L 414.990416 205.112822 C 414.990416 208.788356 417.711163 211.908287 421.209267 212.592107 C 421.684318 212.720323 422.116182 212.720323 422.591233 212.720323 L 447.293891 212.720323 C 447.812129 212.720323 448.200807 212.720323 448.719045 212.592107 C 452.217148 211.993764 454.894709 208.788356 454.894709 205.112822 L 454.894709 177.204406 C 454.808336 175.794027 453.90142 174.682819 452.692199 174.29817 Z M 426.90988 10.694162 L 206.918029 10.694162 C 200.008194 10.694162 194.480327 16.292941 194.480327 23.088405 L 194.480327 173.101484 C 194.480327 179.982426 200.094567 185.495727 206.918029 185.495727 L 414.904043 185.495727 L 414.904043 177.118929 C 414.904043 175.409378 416.28601 174.084476 417.883909 174.084476 L 423.109471 174.084476 L 419.309062 161.989404 L 414.81767 147.415484 L 418.704452 146.218799 L 422.591233 144.979374 L 426.089337 156.390626 L 431.617205 174.212692 L 438.181547 174.212692 L 439.304395 165.408506 L 439.304395 23.216621 C 439.304395 16.292941 433.819714 10.694162 426.90988 10.694162 Z M 382.816499 203.702443 C 373.920088 203.702443 370.983408 209.514916 370.983408 209.514916 L 370.983408 212.506629 L 394.217726 212.506629 L 394.217726 209.514916 C 394.217726 209.514916 390.590063 203.702443 382.816499 203.702443 Z M 313.502223 212.506629 L 276.016372 212.506629 L 276.016372 212.592107 L 313.588596 212.592107 Z M 441.420532 149.680639 L 439.390768 165.493983 L 438.311107 174.29817 L 442.413821 174.29817 L 445.48006 150.278982 Z M 445.091382 143.611734 L 443.104804 143.312562 L 441.290973 149.595161 L 445.307314 150.108027 Z M 445.005009 140.192632 L 444.01172 139.978938 L 443.104804 143.312562 L 445.005009 143.483517 Z M 153.280439 299.779196 C 152.287151 303.497469 141.79284 341.620451 137.819685 360.510987 L 170.684585 366.28072 C 176.817063 345.894328 190.118494 299.779196 190.118494 299.779196 Z M 228.899939 255.416353 C 219.701222 250.202224 188.520595 243.193066 188.520595 243.193066 L 183.510965 267.084037 L 195.214497 267.084037 C 202.98806 267.084037 209.293284 273.409375 209.293284 281.187831 L 209.293284 282.384517 L 212.316337 282.384517 C 217.585085 287.299475 218.62156 292.898254 212.316337 299.693718 L 202.513009 299.693718 C 202.513009 299.693718 184.201948 345.082291 177.119368 364.485692 L 214.907524 364.485692 C 224.710852 345.381462 238.314588 299.779196 239.480623 284.094068 C 240.905776 266.186523 235.593841 259.220104 228.899939 255.416353 Z M 447.596197 365.511423 L 444.400398 395.001173 C 444.400398 395.214867 444.314025 395.385822 444.314025 395.599516 C 443.709415 398.59123 441.118227 400.813646 438.008801 400.813646 L 416.199637 400.813646 C 413.003838 400.813646 410.196718 398.420275 409.80804 395.214867 L 405.791699 365.511423 Z M 450.791995 362.519709 C 450.791995 364.186521 449.410028 365.511423 447.812129 365.511423 L 405.618953 365.511423 C 404.79841 365.511423 404.021054 365.212251 403.502816 364.613908 C 402.984578 364.101043 402.5959 363.289007 402.5959 362.519709 C 402.5959 360.810158 404.021054 359.485256 405.618953 359.485256 L 447.812129 359.485256 C 448.589485 359.485256 449.410028 359.784428 450.014639 360.38277 C 450.403317 360.895635 450.791995 361.707672 450.791995 362.519709 Z M 450.791995 362.519709 " stroke="#000000" stroke-width="2" stroke-opacity="1" stroke-miterlimit="10"/></g><path stroke-linecap="butt" transform="matrix(0.0904508, 0, 0, 0.0913983, 1.143475, 5.799916)" fill="none" stroke-linejoin="miter" d="M 12.103886 221.909159 L 466.382309 221.909159 " stroke="#000000" stroke-width="2" stroke-opacity="1" stroke-miterlimit="10"/><path fill="#ffbd59" d="M 16.175781 12.214844 C 16.160156 12.5 15.796875 12.472656 15.632812 12.460938 C 15.617188 13.804688 15.453125 14.34375 14.511719 14.34375 C 14.1875 14.34375 13.871094 14.246094 13.589844 14.082031 C 13.480469 14.015625 13.382812 13.945312 13.292969 13.859375 C 13.019531 13.625 12.792969 13.292969 12.640625 12.929688 C 12.628906 12.902344 12.621094 12.882812 12.613281 12.855469 C 12.613281 12.847656 12.605469 12.835938 12.605469 12.828125 C 12.605469 12.820312 12.59375 12.808594 12.59375 12.800781 C 12.578125 12.746094 12.558594 12.691406 12.539062 12.636719 C 12.523438 12.589844 12.511719 12.535156 12.496094 12.480469 C 12.484375 12.425781 12.46875 12.378906 12.457031 12.324219 C 12.414062 12.117188 12.394531 11.894531 12.394531 11.667969 C 12.394531 11.238281 12.667969 10.992188 13.046875 10.980469 C 13.6875 10.972656 13.515625 12.378906 13.832031 12.117188 C 14.160156 11.914062 13.625 11.265625 13.933594 10.699219 C 14.113281 10.371094 14.296875 10.113281 14.296875 9.519531 C 14.628906 9.820312 15.089844 9.957031 15.417969 9.96875 C 15.445312 10.011719 15.472656 10.039062 15.496094 10.03125 C 15.679688 10.664062 15.488281 11.09375 15.597656 11.238281 C 15.96875 11.722656 16.195312 11.988281 16.175781 12.214844 Z M 13.292969 13.84375 C 13.019531 13.605469 12.792969 13.277344 12.640625 12.910156 C 12.792969 13.285156 11.898438 13.945312 11.664062 13.886719 C 11.472656 13.84375 11.292969 13.777344 11.121094 13.707031 L 11.046875 14.445312 C 12.050781 14.226562 13.011719 14.582031 13.570312 14.875 L 13.597656 14.070312 C 13.480469 14.007812 13.382812 13.925781 13.292969 13.84375 Z M 16.582031 24.234375 C 16.582031 24.234375 16.910156 24.746094 17.054688 24.882812 C 17.171875 24.992188 17.480469 25.140625 17.632812 25.175781 C 18.863281 25.503906 23.269531 25.15625 23.269531 25.15625 L 23.9375 25.230469 L 26.097656 25.230469 C 26.097656 25.230469 26.335938 24.710938 26.386719 24.554688 C 26.507812 24.214844 26.570312 23.660156 25.890625 23.21875 C 25.210938 22.789062 23.304688 23.578125 23.304688 23.578125 L 19.234375 23.066406 C 18.347656 23.640625 16.582031 24.234375 16.582031 24.234375 Z M 19.304688 40.703125 C 19.234375 40.660156 19.179688 40.621094 19.171875 40.621094 L 19.125 39.9375 C 19.125 39.9375 17.832031 40.046875 17.1875 39.835938 L 16.890625 40.796875 L 17.613281 40.90625 C 17.929688 40.953125 18.175781 41.234375 18.175781 41.5625 C 18.175781 41.5625 18.710938 41.601562 18.882812 41.5625 C 19.097656 41.519531 19.59375 41.253906 19.59375 41.023438 C 19.585938 40.914062 19.433594 40.789062 19.304688 40.703125 Z M 13.769531 39.707031 L 13.707031 40.292969 L 16.023438 40.648438 L 16.085938 40.082031 C 15.550781 40.082031 14.339844 39.835938 13.769531 39.707031 Z M 13.769531 39.707031 " fill-opacity="1" fill-rule="nonzero"/><g clip-path="url(#2f3fa88215)"><path stroke-linecap="butt" transform="matrix(0.0904508, 0, 0, 0.0913983, 1.143475, 5.799916)" fill="none" stroke-linejoin="miter" d="M 166.193192 70.186528 C 166.020446 73.306459 162.004105 73.007287 160.190274 72.879071 C 160.017528 87.581207 158.203696 93.479158 147.795758 93.479158 C 144.211282 93.479158 140.713178 92.410688 137.603753 90.61566 C 136.394532 89.889101 135.31487 89.119803 134.321581 88.17955 C 131.298529 85.615224 128.793714 81.982429 127.109442 78.007723 C 126.979882 77.708552 126.893509 77.494858 126.807136 77.195687 C 126.807136 77.110209 126.720763 76.981993 126.720763 76.896515 C 126.720763 76.811038 126.591204 76.682821 126.591204 76.597344 C 126.418458 75.999001 126.202526 75.400658 125.986594 74.802315 C 125.813848 74.28945 125.684288 73.691107 125.511542 73.092765 C 125.381983 72.494422 125.209237 71.981557 125.079678 71.383214 C 124.604627 69.118059 124.388694 66.681949 124.388694 64.203101 C 124.388694 59.501836 127.411747 56.809294 131.600834 56.681077 C 138.683414 56.5956 136.78321 71.981557 140.281313 69.118059 C 143.908976 66.895643 137.992431 59.801008 141.404161 53.603886 C 143.390739 50.013829 145.420503 47.193071 145.420503 40.696778 C 149.091352 43.987663 154.187355 45.48352 157.815018 45.611736 C 158.117323 46.081863 158.419629 46.381034 158.678747 46.295556 C 160.708511 53.219237 158.592374 57.920502 159.801595 59.501836 C 163.90431 64.801443 166.409125 67.70768 166.193192 70.186528 Z M 134.321581 88.008595 C 131.298529 85.40153 128.793714 81.811474 127.109442 77.794029 C 128.793714 81.896951 118.904013 89.119803 116.312825 88.478722 C 114.196689 88.008595 112.210111 87.282036 110.309907 86.512738 L 109.489364 94.590366 C 120.588285 92.196994 131.212156 96.086222 137.38782 99.29163 L 137.690126 90.487444 C 136.394532 89.803623 135.31487 88.906109 134.321581 88.008595 Z M 170.684585 201.693721 C 170.684585 201.693721 174.312248 207.2925 175.910147 208.788356 C 177.205741 209.985042 180.617471 211.609115 182.301744 211.993764 C 195.90548 215.583821 244.619812 211.78007 244.619812 211.78007 L 252.004698 212.592107 L 275.886813 212.592107 C 275.886813 212.592107 278.521187 206.907851 279.082611 205.1983 C 280.421391 201.480027 281.112375 195.411122 273.59793 190.581641 C 266.083485 185.880376 245.00849 194.513608 245.00849 194.513608 L 200.008194 188.914829 C 190.204867 195.197428 170.684585 201.693721 170.684585 201.693721 Z M 200.785551 381.880371 C 200.008194 381.410245 199.403584 380.982857 199.317211 380.982857 L 198.798973 373.503572 C 198.798973 373.503572 184.504253 374.700258 177.378487 372.392364 L 174.096315 382.906102 L 182.085811 384.102787 C 185.583915 384.615652 188.304662 387.692844 188.304662 391.2829 C 188.304662 391.2829 194.221208 391.710288 196.121412 391.2829 C 198.496668 390.812774 203.981349 387.906538 203.981349 385.38495 C 203.894976 384.188265 202.210704 382.820624 200.785551 381.880371 Z M 139.59033 370.981985 L 138.899347 377.3928 L 164.50892 381.282028 L 165.199904 375.084907 C 159.283358 375.084907 145.895554 372.392364 139.59033 370.981985 Z M 139.59033 370.981985 " stroke="#000000" stroke-width="2" stroke-opacity="1" stroke-miterlimit="10"/></g><path stroke-linecap="round" transform="matrix(0.0904508, 0, 0, 0.0913983, 1.143475, 5.799916)" fill="none" stroke-linejoin="miter" d="M 152.719015 76.084479 C 152.719015 76.084479 153.798677 81.298608 159.887968 79.418103 " stroke="#000000" stroke-width="2" stroke-opacity="1" stroke-miterlimit="10"/><path stroke-linecap="round" transform="matrix(0.0904508, 0, 0, 0.0913983, 1.143475, 5.799916)" fill="none" stroke-linejoin="miter" d="M 133.11236 62.49355 C 133.11236 62.49355 127.800425 65.485264 133.11236 69.417231 " stroke="#000000" stroke-width="1" stroke-opacity="1" stroke-miterlimit="10"/><path stroke-linecap="round" transform="matrix(0.0904508, 0, 0, 0.0913983, 1.143475, 5.799916)" fill="none" stroke-linejoin="round" d="M 279.298543 204.599957 C 279.298543 204.599957 274.591219 195.795771 268.199622 196.394113 " stroke="#000000" stroke-width="1" stroke-opacity="1" stroke-miterlimit="10"/><path stroke-linecap="round" transform="matrix(0.0904508, 0, 0, 0.0913983, 1.143475, 5.799916)" fill="none" stroke-linejoin="round" d="M 277.484712 208.403708 C 277.484712 208.403708 274.116168 203.702443 266.083485 203.702443 " stroke="#000000" stroke-width="1" stroke-opacity="1" stroke-miterlimit="10"/><g clip-path="url(#489294acbd)"><path fill="#000000" d="M 15.28125 11.320312 C 15.28125 11.511719 15.246094 11.660156 15.191406 11.660156 C 15.136719 11.660156 15.101562 11.503906 15.101562 11.320312 C 15.101562 11.136719 15.136719 10.980469 15.191406 10.980469 C 15.246094 10.980469 15.28125 11.128906 15.28125 11.320312 Z M 33.824219 24.5 L 33.632812 22.761719 L 33.164062 22.761719 C 33.199219 23.191406 33.261719 23.914062 33.335938 24.5 C 33.398438 25.03125 33.046875 25.183594 32.765625 25.230469 L 33.769531 25.230469 C 33.894531 24.921875 33.824219 24.5 33.824219 24.5 Z M 22.976562 21.074219 C 23.078125 20.972656 23.25 20.980469 23.339844 21.089844 L 24.976562 23.121094 C 24.796875 23.136719 24.617188 23.175781 24.433594 23.21875 L 22.96875 21.410156 C 22.878906 21.308594 22.886719 21.164062 22.976562 21.074219 Z M 14.890625 5.890625 C 14.125 5.890625 13.453125 6.3125 13.101562 6.933594 C 12.875 6.878906 12.640625 6.851562 12.40625 6.851562 C 10.570312 6.851562 9.074219 8.441406 9.074219 10.414062 C 9.074219 11.894531 9.917969 13.167969 11.121094 13.707031 C 11.292969 13.789062 11.472656 13.84375 11.664062 13.886719 C 11.898438 13.945312 12.800781 13.285156 12.640625 12.910156 C 12.628906 12.882812 12.621094 12.863281 12.613281 12.835938 C 12.613281 12.828125 12.605469 12.820312 12.605469 12.808594 C 12.605469 12.800781 12.59375 12.792969 12.59375 12.78125 C 12.578125 12.726562 12.558594 12.671875 12.539062 12.617188 C 12.523438 12.574219 12.511719 12.519531 12.496094 12.460938 C 12.484375 12.40625 12.46875 12.363281 12.457031 12.308594 C 12.414062 12.097656 12.394531 11.878906 12.394531 11.648438 C 12.394531 11.21875 12.667969 10.972656 13.046875 10.964844 C 13.6875 10.953125 13.515625 12.363281 13.832031 12.097656 C 14.160156 11.894531 13.625 11.246094 13.933594 10.679688 C 14.113281 10.351562 14.296875 10.09375 14.296875 9.5 C 14.628906 9.804688 15.089844 9.941406 15.417969 9.949219 C 15.535156 9.949219 15.632812 9.941406 15.695312 9.914062 C 15.804688 9.867188 15.914062 9.8125 16.011719 9.75 C 16.582031 9.390625 16.972656 8.742188 16.972656 7.992188 C 16.972656 6.832031 16.039062 5.890625 14.890625 5.890625 Z M 18.65625 42.359375 C 18.65625 42.113281 18.554688 41.992188 18.390625 41.839844 C 18.210938 41.671875 17.757812 41.492188 17.757812 41.492188 C 17.757812 41.492188 18.589844 41.601562 18.871094 41.554688 C 19.089844 41.519531 19.585938 41.246094 19.585938 41.015625 C 19.585938 40.90625 19.441406 40.789062 19.304688 40.703125 C 19.242188 40.667969 19.1875 40.648438 19.207031 40.648438 C 19.324219 40.632812 21.378906 41.371094 21.839844 41.5625 C 22.316406 41.765625 22.136719 42.367188 22.136719 42.367188 L 18.65625 42.367188 Z M 18.167969 41.5 C 18.121094 41.5 17.742188 41.5625 17.703125 41.5625 C 17.515625 41.589844 17.34375 41.671875 17.214844 41.800781 C 17.054688 41.957031 16.953125 42.1875 16.953125 42.433594 L 16.953125 42.359375 L 13.832031 42.359375 L 13.832031 42.441406 C 13.832031 42.195312 13.734375 41.976562 13.582031 41.820312 C 13.453125 41.691406 13.292969 41.609375 13.109375 41.574219 L 13.109375 41.5625 L 13.609375 41.5625 L 13.617188 41.234375 L 16.449219 41.410156 Z M 18.167969 41.5 " fill-opacity="1" fill-rule="nonzero"/></g><g clip-path="url(#d3b8e4e1d2)"><path stroke-linecap="butt" transform="matrix(0.0904508, 0, 0, 0.0913983, 1.143475, 5.799916)" fill="none" stroke-linejoin="miter" d="M 156.303492 60.39935 C 156.303492 62.49355 155.914814 64.117623 155.310203 64.117623 C 154.705593 64.117623 154.316914 62.408072 154.316914 60.39935 C 154.316914 58.390628 154.705593 56.681077 155.310203 56.681077 C 155.914814 56.681077 156.303492 58.305151 156.303492 60.39935 Z M 361.30964 204.599957 L 359.193503 185.581205 L 354.011127 185.581205 C 354.399806 190.282469 355.090789 198.189142 355.911332 204.599957 C 356.602315 210.41243 352.715533 212.079242 349.606108 212.592107 L 360.705029 212.592107 C 362.086996 209.215744 361.30964 204.599957 361.30964 204.599957 Z M 241.380827 167.118057 C 242.503675 166.006849 244.40388 166.092326 245.397169 167.289012 L 263.492297 189.513172 C 261.50572 189.684127 259.519143 190.111514 257.489379 190.581641 L 241.294454 170.793591 C 240.301166 169.682383 240.387539 168.101048 241.380827 167.118057 Z M 151.984845 0.992461 C 143.520298 0.992461 136.092226 5.608248 132.205444 12.403713 C 129.70063 11.80537 127.109442 11.506198 124.518254 11.506198 C 104.220615 11.506198 87.680199 28.900877 87.680199 50.483956 C 87.680199 66.681949 97.008476 80.614788 110.309907 86.512738 C 112.210111 87.410252 114.196689 88.008595 116.312825 88.478722 C 118.904013 89.119803 128.880087 81.896951 127.109442 77.794029 C 126.979882 77.494858 126.893509 77.281164 126.807136 76.981993 C 126.807136 76.896515 126.720763 76.811038 126.720763 76.682821 C 126.720763 76.597344 126.591204 76.511866 126.591204 76.38365 C 126.418458 75.785307 126.202526 75.186964 125.986594 74.588622 C 125.813848 74.118495 125.684288 73.520152 125.511542 72.879071 C 125.381983 72.280728 125.209237 71.810602 125.079678 71.212259 C 124.604627 68.904365 124.388694 66.510994 124.388694 63.989407 C 124.388694 59.288142 127.411747 56.5956 131.600834 56.510122 C 138.683414 56.381906 136.78321 71.810602 140.281313 68.904365 C 143.908976 66.681949 137.992431 59.587314 141.404161 53.390192 C 143.390739 49.800136 145.420503 46.979377 145.420503 40.483084 C 149.091352 43.816708 154.187355 45.312565 157.815018 45.398042 C 159.110612 45.398042 160.190274 45.312565 160.881257 45.013393 C 162.090478 44.500528 163.299699 43.902185 164.379361 43.218365 C 170.684585 39.286398 175.003231 32.191763 175.003231 23.985919 C 175.003231 11.292505 164.681666 0.992461 151.984845 0.992461 Z M 193.616597 400.001609 C 193.616597 397.309067 192.493749 395.984165 190.679918 394.317353 C 188.69334 392.479586 183.68371 390.513602 183.68371 390.513602 C 183.68371 390.513602 192.882427 391.710288 195.991853 391.197423 C 198.410295 390.812774 203.894976 387.82106 203.894976 385.299473 C 203.894976 384.102787 202.297077 382.820624 200.785551 381.880371 C 200.094567 381.495722 199.489957 381.282028 199.705889 381.282028 C 201.001483 381.111073 223.717563 389.188701 228.813566 391.2829 C 234.082315 393.505316 232.095737 400.087087 232.095737 400.087087 L 193.616597 400.087087 Z M 188.218289 390.59908 C 187.700052 390.59908 183.510965 391.2829 183.0791 391.2829 C 181.00615 391.582072 179.105945 392.479586 177.680792 393.889965 C 175.910147 395.599516 174.787299 398.121103 174.787299 400.813646 L 174.787299 400.001609 L 140.281313 400.001609 L 140.281313 400.899123 C 140.281313 398.206581 139.201652 395.81321 137.51738 394.103659 C 136.092226 392.69328 134.321581 391.795766 132.291817 391.411117 L 132.291817 391.2829 L 137.819685 391.2829 L 137.906058 387.692844 L 169.216245 389.616088 Z M 188.218289 390.59908 " stroke="#000000" stroke-width="1" stroke-opacity="1" stroke-miterlimit="10"/></g><g clip-path="url(#de132345af)"><path fill="#22b573" d="M 37.550781 30.824219 C 36.84375 29.089844 34.320312 27.925781 32.132812 28.53125 C 31.527344 28.695312 30.386719 29.351562 29.960938 29.808594 C 30.855469 29.738281 31.949219 29.855469 32.339844 30.933594 C 33.199219 33.285156 35.007812 33.53125 36.183594 33.742188 C 36.746094 33.839844 37.160156 33.796875 37.394531 33.574219 C 37.460938 33.519531 37.503906 33.457031 37.539062 33.382812 C 37.539062 33.382812 37.585938 33.257812 37.640625 33.035156 C 37.765625 32.570312 37.894531 31.675781 37.550781 30.824219 Z M 40.191406 32.660156 C 40 32.660156 39.882812 32.632812 39.882812 32.632812 C 39.839844 32.605469 39.785156 32.570312 39.722656 32.515625 C 39.539062 33.054688 39.296875 34.132812 39.53125 35.476562 C 38.789062 33.867188 37.839844 33.238281 37.839844 33.238281 L 37.648438 33.035156 C 37.59375 33.257812 37.550781 33.382812 37.550781 33.382812 C 37.515625 33.457031 37.46875 33.519531 37.40625 33.574219 C 37.949219 34.050781 39.007812 35.074219 39.132812 35.953125 C 39.277344 36.902344 39.304688 38.183594 39.304688 38.648438 L 39.910156 38.648438 C 40 38.136719 40.246094 36.621094 39.992188 35.625 C 39.730469 34.617188 39.9375 33.265625 40.191406 32.660156 Z M 37.722656 35.503906 C 36.933594 35.195312 35.234375 35.304688 34.328125 35.660156 C 34.925781 36.136719 35.558594 36.316406 36.019531 37.167969 C 36.519531 38.074219 37.449219 38.382812 37.867188 38.238281 C 38.253906 38.101562 38.265625 38.007812 38.382812 37.980469 C 38.390625 37.980469 38.398438 37.980469 38.410156 37.980469 C 38.542969 37.964844 38.542969 38.054688 38.664062 37.480469 C 38.789062 36.882812 38.671875 35.878906 37.722656 35.503906 Z M 16.429688 24.273438 C 17.6875 23.988281 18.835938 23.457031 19.386719 22.957031 C 19.613281 22.746094 18.808594 21.867188 18.808594 21.867188 C 18.808594 21.867188 16.917969 17.808594 16.023438 16.621094 C 15.707031 16.199219 15.515625 16.136719 14.078125 15.769531 C 12.585938 15.304688 11.402344 15.242188 10.496094 15.378906 C 8.921875 15.605469 8.144531 16.429688 7.964844 16.75 C 7.78125 17.058594 7.808594 18.222656 7.808594 18.222656 C 7.808594 18.222656 11.652344 18.222656 12.195312 18.222656 C 12.539062 18.3125 12.972656 18.679688 13.027344 18.925781 C 13.707031 21.8125 15.0625 29.308594 15.128906 29.65625 L 15.191406 30.210938 L 17.757812 30.210938 L 18.210938 28.027344 C 18.210938 28.027344 16.992188 27.816406 16.726562 27.523438 C 15.996094 26.703125 15.789062 23.183594 15.789062 23.183594 C 15.789062 23.183594 16.023438 23.980469 16.429688 24.273438 Z M 38.761719 37.550781 C 38.734375 37.515625 38.707031 37.488281 38.679688 37.460938 C 38.5625 38.035156 38.5625 37.945312 38.425781 37.964844 C 38.417969 37.964844 38.410156 37.964844 38.398438 37.964844 L 38.679688 38.640625 L 39.242188 38.640625 C 39.140625 38.335938 38.96875 37.808594 38.761719 37.550781 Z M 44.117188 32.011719 C 43.167969 32.113281 41.910156 32.816406 41.910156 32.816406 C 41.910156 32.816406 42.234375 34.023438 42.480469 34.507812 C 41.910156 33.851562 41.53125 33.300781 41.429688 33.273438 C 41.148438 33.574219 40.480469 34.363281 40.796875 35.585938 C 40.960938 36.21875 41.050781 36.546875 41.304688 36.71875 C 41.421875 36.800781 41.511719 36.910156 41.628906 37.011719 L 40.832031 38.65625 L 41.394531 38.65625 L 42.082031 37.222656 L 42.097656 37.1875 C 42.207031 37.1875 42.335938 37.175781 42.488281 37.140625 C 43.355469 36.9375 43.972656 36.519531 44.296875 36.035156 C 44.703125 35.429688 45.457031 33.839844 45.773438 33.191406 C 45.925781 32.871094 46.46875 31.730469 46.46875 31.730469 C 46.46875 31.730469 45.011719 31.914062 44.117188 32.011719 Z M 17.152344 39.125 C 17.0625 39.378906 16.992188 39.589844 16.945312 39.726562 C 17.703125 40.164062 19.894531 39.917969 20.21875 39.707031 C 20.328125 39.570312 20.445312 39.378906 20.574219 39.132812 L 17.152344 39.132812 Z M 13.609375 38.738281 C 13.515625 39.1875 13.460938 39.515625 13.472656 39.644531 C 13.472656 39.644531 13.589844 39.671875 13.78125 39.707031 C 14.347656 39.828125 15.5625 40.082031 16.09375 40.09375 C 16.25 40.09375 16.339844 40.082031 16.355469 40.039062 C 16.402344 39.902344 16.484375 39.625 16.59375 39.269531 Z M 13.5625 14.875 C 13 14.582031 12.042969 14.226562 11.039062 14.445312 C 10.859375 14.484375 10.667969 14.546875 10.488281 14.628906 L 10.488281 15.378906 C 11.402344 15.242188 12.585938 15.304688 14.070312 15.769531 L 14.070312 15.1875 C 14.078125 15.175781 13.886719 15.039062 13.5625 14.875 Z M 38.707031 7.535156 L 20.90625 7.535156 C 20.28125 7.535156 19.785156 8.046875 19.785156 8.667969 L 19.785156 19.527344 C 19.785156 20.160156 20.292969 20.660156 20.90625 20.660156 L 39.113281 20.699219 L 38.671875 19.253906 L 38.582031 18.660156 L 38.535156 18.359375 L 38.617188 18.332031 L 39.023438 19.144531 L 38.933594 18.550781 L 38.886719 18.25 L 38.96875 18.222656 L 39.105469 18.496094 L 39.378906 19.035156 L 39.695312 20.078125 C 39.785156 19.910156 39.839844 19.71875 39.839844 19.519531 L 39.839844 8.679688 C 39.839844 8.046875 39.332031 7.535156 38.707031 7.535156 Z M 39.695312 20.09375 L 39.378906 19.050781 L 39.023438 19.164062 L 39.414062 20.421875 L 39.8125 21.710938 L 40.199219 21.710938 Z M 41.546875 19.710938 L 41.257812 21.710938 L 41.628906 21.710938 L 41.910156 19.765625 Z M 41.902344 19.164062 L 41.71875 19.136719 L 41.546875 19.710938 L 41.910156 19.765625 Z M 41.890625 18.851562 L 41.808594 18.84375 L 41.730469 19.144531 L 41.902344 19.171875 Z M 46.460938 27.480469 C 46.460938 27.480469 45.113281 28.027344 44.578125 28.742188 C 44.082031 29.40625 43.71875 31.308594 41.628906 32.34375 C 41.050781 32.625 40.515625 32.671875 40.191406 32.671875 C 40 32.671875 39.882812 32.644531 39.882812 32.644531 C 39.839844 32.617188 39.785156 32.578125 39.722656 32.523438 C 39.070312 31.976562 37.921875 29.992188 40.128906 27.925781 C 42.480469 25.742188 46.460938 27.480469 46.460938 27.480469 Z M 46.460938 27.480469 " fill-opacity="1" fill-rule="nonzero"/></g><g clip-path="url(#32f89ba71b)"><path stroke-linecap="butt" transform="matrix(0.0904508, 0, 0, 0.0913983, 1.143475, 5.799916)" fill="none" stroke-linejoin="miter" d="M 402.509527 273.794024 C 394.692777 254.818011 366.794321 242.081858 342.609901 248.706367 C 335.915999 250.501395 323.305551 257.681508 318.598226 262.681944 C 328.487927 261.912646 340.580137 263.194809 344.898783 274.99071 C 354.399806 300.719449 374.395139 303.411991 387.394265 305.719885 C 393.613116 306.788354 398.190881 306.318227 400.782069 303.882118 C 401.516239 303.283775 401.99129 302.599955 402.379968 301.787918 C 402.379968 301.787918 402.898206 300.420277 403.502816 297.984167 C 404.884783 292.898254 406.309936 283.111076 402.509527 273.794024 Z M 431.703577 293.881246 C 429.587441 293.881246 428.291847 293.582074 428.291847 293.582074 C 427.816796 293.282903 427.212185 292.898254 426.521202 292.299911 C 424.491438 298.197861 421.813877 309.993762 424.405065 324.695898 C 416.199637 307.087525 405.705326 300.206583 405.705326 300.206583 L 403.589189 297.984167 C 402.984578 300.420277 402.509527 301.787918 402.509527 301.787918 C 402.120849 302.599955 401.602612 303.283775 400.911628 303.882118 C 406.914547 309.096247 418.618079 320.293805 420.000046 329.910028 C 421.597945 340.295549 421.90025 354.313865 421.90025 359.399779 L 428.594152 359.399779 C 429.587441 353.801 432.308188 337.218357 429.501068 326.319971 C 426.607575 315.293369 428.896457 300.505755 431.703577 293.881246 Z M 404.409732 324.995069 C 395.686066 321.618707 376.899954 322.815392 366.880694 326.70462 C 373.488223 331.91875 380.48443 333.884733 385.580433 343.201785 C 391.108301 353.11718 401.386679 356.493542 406.007631 354.912208 C 410.283091 353.416351 410.41265 352.39062 411.708244 352.091449 C 411.794617 352.091449 411.88099 352.091449 412.01055 352.091449 C 413.478889 351.920494 413.478889 352.903486 414.81767 346.620887 C 416.199637 340.081855 414.904043 329.097991 404.409732 324.995069 Z M 169.000312 202.121108 C 182.906354 199.001178 195.603175 193.188706 201.692466 187.718143 C 204.197281 185.41025 195.300869 175.794027 195.300869 175.794027 C 195.300869 175.794027 174.398621 131.388446 164.50892 118.39586 C 161.010816 113.780073 158.89468 113.096253 143.002061 109.078808 C 126.504831 103.992895 113.419332 103.309074 103.400073 104.804931 C 85.995927 107.28378 77.401821 116.30166 75.415243 119.806239 C 73.38548 123.182602 73.687785 135.918755 73.687785 135.918755 C 73.687785 135.918755 116.183266 135.918755 122.186185 135.918755 C 125.986594 136.901747 130.780291 140.919191 131.384902 143.611734 C 138.899347 175.195684 153.88505 257.211382 154.61922 261.015132 L 155.310203 267.084037 L 183.68371 267.084037 L 188.69334 243.193066 C 188.69334 243.193066 175.219163 240.885172 172.282484 237.679764 C 164.206615 228.704623 161.917732 190.196992 161.917732 190.196992 C 161.917732 190.196992 164.50892 198.915701 169.000312 202.121108 Z M 415.897331 347.390184 C 415.595026 347.005536 415.292721 346.706364 414.990416 346.407193 C 413.694822 352.689792 413.694822 351.7068 412.183295 351.920494 C 412.096923 351.920494 412.01055 351.920494 411.88099 351.920494 L 414.990416 359.314301 L 421.209267 359.314301 C 420.086418 355.980677 418.186214 350.210943 415.897331 347.390184 Z M 475.105975 286.78661 C 464.611664 287.897818 450.705622 295.590796 450.705622 295.590796 C 450.705622 295.590796 454.290099 308.797076 457.010846 314.096683 C 450.705622 306.91657 446.516535 300.890404 445.393687 300.591232 C 442.284261 303.882118 434.899376 312.515349 438.39748 325.892584 C 440.211311 332.816264 441.2046 336.406321 444.01172 338.286827 C 445.307314 339.184341 446.300603 340.381026 447.596197 341.492234 L 438.786158 359.485256 L 445.005009 359.485256 L 452.605826 343.800128 L 452.778572 343.415479 C 453.987793 343.415479 455.412947 343.287263 457.097219 342.902614 C 466.684614 340.680198 473.508075 336.107149 477.092552 330.807542 C 481.583944 324.183033 489.918932 306.788354 493.417036 299.693718 C 495.101308 296.189139 501.104226 283.709419 501.104226 283.709419 C 501.104226 283.709419 484.995675 285.718141 475.105975 286.78661 Z M 176.989808 364.613908 C 175.99652 367.391928 175.219163 369.699822 174.700926 371.195679 C 183.0791 375.982421 207.306707 373.289879 210.891183 370.981985 C 212.100404 369.486128 213.395998 367.391928 214.821152 364.699386 L 176.989808 364.699386 Z M 137.819685 360.38277 C 136.78321 365.297729 136.178599 368.887785 136.308159 370.298165 C 136.308159 370.298165 137.603753 370.597336 139.719889 370.981985 C 145.981927 372.306887 159.412917 375.084907 165.286276 375.213123 C 167.013735 375.213123 168.007024 375.084907 168.17977 374.61478 C 168.698007 373.118923 169.604923 370.084471 170.814144 366.195243 Z M 137.301447 99.29163 C 131.082596 96.086222 120.501913 92.196994 109.402991 94.590366 C 107.416414 95.017753 105.300277 95.701574 103.3137 96.599088 L 103.3137 104.804931 C 113.419332 103.309074 126.504831 103.992895 142.915688 109.078808 L 142.915688 102.710732 C 143.002061 102.582515 140.885924 101.086658 137.301447 99.29163 Z M 415.292721 18.985483 L 218.492001 18.985483 C 211.582167 18.985483 206.097486 24.584262 206.097486 31.379726 L 206.097486 150.193504 C 206.097486 157.117185 211.711726 162.587747 218.492001 162.587747 L 419.784113 163.015135 L 414.904043 147.20179 L 413.910754 140.705497 L 413.392516 137.414612 L 414.299432 137.115441 L 418.790825 146.005105 L 417.797536 139.508812 L 417.279298 136.217927 L 418.186214 135.918755 L 419.69774 138.910469 L 422.720793 144.808419 L 426.218896 156.21967 C 427.212185 154.381903 427.816796 152.287704 427.816796 150.108027 L 427.816796 31.507942 C 427.816796 24.584262 422.202555 18.985483 415.292721 18.985483 Z M 426.218896 156.390626 L 422.720793 144.979374 L 418.790825 146.218799 L 423.109471 159.980682 L 427.51449 174.084476 L 431.78995 174.084476 Z M 446.689281 152.202226 L 443.493482 174.084476 L 447.596197 174.084476 L 450.705622 152.800569 Z M 450.619249 146.218799 L 448.589485 145.919627 L 446.689281 152.202226 L 450.705622 152.800569 Z M 450.48969 142.799697 L 449.582774 142.714219 L 448.719045 146.005105 L 450.619249 146.304276 Z M 501.017853 237.209638 C 501.017853 237.209638 486.118523 243.193066 480.201977 251.01426 C 474.717296 258.279851 470.700955 279.093632 447.596197 290.419405 C 441.2046 293.496597 435.288054 294.009462 431.703577 294.009462 C 429.587441 294.009462 428.291847 293.710291 428.291847 293.710291 C 427.816796 293.411119 427.212185 292.983731 426.521202 292.385389 C 419.309062 286.401961 406.612241 264.690666 431.012594 242.081858 C 457.010846 218.190886 501.017853 237.209638 501.017853 237.209638 Z M 501.017853 237.209638 " stroke="#000000" stroke-width="2" stroke-opacity="1" stroke-miterlimit="10"/></g><g clip-path="url(#b0cbb00ebf)"><path fill="#4900a6" d="M 15.171875 30.210938 C 15.164062 30.707031 15.035156 31.519531 14.125 31.609375 C 14.105469 31.609375 7.554688 31.609375 7.554688 31.609375 C 7.554688 31.609375 6.480469 31.484375 6.328125 30.714844 C 6.171875 29.949219 4.183594 19.4375 4.183594 19.4375 C 4.183594 19.4375 4.101562 18.359375 5.386719 18.222656 L 12.179688 18.222656 C 12.523438 18.3125 12.957031 18.679688 13.011719 18.925781 C 13.6875 21.8125 15.046875 29.308594 15.109375 29.65625 L 15.109375 29.664062 C 15.117188 29.671875 15.179688 29.910156 15.171875 30.210938 Z M 20.347656 31.609375 L 7.566406 31.609375 C 7.1875 32.140625 7.1875 32.671875 7.566406 33.191406 L 20.347656 33.191406 C 20.917969 32.570312 20.824219 32.058594 20.347656 31.609375 Z M 18.800781 30.210938 L 15.171875 30.210938 C 15.164062 30.707031 14.984375 31.382812 14.070312 31.484375 C 14.050781 31.484375 13.898438 31.609375 13.898438 31.609375 L 20.074219 31.609375 L 20.074219 31.5 C 20.074219 30.789062 19.503906 30.210938 18.800781 30.210938 Z M 7.890625 41.125 C 7.792969 41.246094 7.726562 41.390625 7.726562 41.554688 L 12.242188 41.289062 L 12.242188 40.304688 L 8.289062 40.898438 C 8.136719 40.925781 7.992188 41.007812 7.890625 41.125 Z M 17.605469 40.898438 L 16.882812 40.789062 L 16.023438 40.660156 L 13.707031 40.304688 L 13.597656 40.285156 L 13.597656 41.300781 L 17.207031 41.507812 L 17.695312 41.535156 L 18.140625 41.5625 L 18.15625 41.5625 C 18.167969 41.226562 17.929688 40.953125 17.605469 40.898438 Z M 12.25 39.847656 L 12.25 41.554688 L 13.597656 41.554688 L 13.597656 39.847656 Z M 8.109375 41.554688 L 7.945312 41.554688 C 7.511719 41.554688 7.160156 41.910156 7.160156 42.359375 L 7.160156 42.449219 L 8.902344 42.449219 L 8.902344 42.359375 C 8.902344 41.921875 8.542969 41.554688 8.109375 41.554688 Z M 13.570312 41.820312 C 13.445312 41.691406 13.28125 41.609375 13.101562 41.574219 C 13.054688 41.5625 13 41.5625 12.957031 41.5625 C 12.46875 41.5625 12.078125 41.957031 12.078125 42.449219 L 12.078125 42.460938 L 13.824219 42.460938 L 13.824219 42.449219 C 13.824219 42.195312 13.726562 41.976562 13.570312 41.820312 Z M 18.4375 41.820312 C 18.273438 41.664062 18.058594 41.5625 17.824219 41.5625 C 17.777344 41.5625 17.742188 41.5625 17.703125 41.574219 C 17.515625 41.601562 17.34375 41.683594 17.214844 41.8125 C 17.054688 41.964844 16.953125 42.195312 16.953125 42.441406 L 16.953125 42.449219 L 18.699219 42.449219 L 18.699219 42.441406 C 18.699219 42.195312 18.601562 41.976562 18.4375 41.820312 Z M 13.253906 35.988281 L 12.628906 35.988281 L 12.628906 39.855469 L 13.246094 39.855469 L 13.246094 35.988281 Z M 13.382812 35.496094 L 12.46875 35.496094 L 12.46875 35.980469 L 13.382812 35.980469 Z M 13.609375 33.675781 L 12.1875 33.675781 L 12.1875 35.496094 L 13.609375 35.496094 Z M 13.898438 33.199219 L 11.78125 33.199219 L 11.78125 33.675781 L 13.898438 33.675781 Z M 12.1875 34.570312 L 11.257812 34.5 C 11.074219 34.480469 10.914062 34.625 10.914062 34.820312 C 10.914062 35 11.066406 35.148438 11.257812 35.140625 L 12.1875 35.066406 Z M 30.855469 24.785156 L 30.855469 24.875 C 30.855469 25.039062 30.738281 25.183594 30.585938 25.222656 L 26.109375 25.222656 L 26.40625 24.507812 L 30.496094 24.507812 C 30.695312 24.507812 30.855469 24.582031 30.855469 24.785156 Z M 25.726562 10.679688 C 23.902344 10.679688 22.417969 12.171875 22.417969 14.007812 C 22.417969 15.84375 23.902344 17.335938 25.726562 17.335938 C 27.554688 17.335938 29.039062 15.84375 29.039062 14.007812 C 29.039062 12.171875 27.554688 10.679688 25.726562 10.679688 Z M 39.800781 21.722656 L 39.421875 21.722656 L 38.671875 19.28125 L 39.023438 19.171875 L 39.414062 20.433594 Z M 42.480469 19.894531 L 42.089844 21.730469 C 42.0625 21.722656 42.035156 21.722656 42.007812 21.722656 L 41.71875 21.722656 L 42.125 19.820312 Z M 42.480469 19.894531 L 42.117188 19.8125 L 42.324219 19.246094 L 42.496094 19.28125 Z M 42.507812 19.289062 L 42.335938 19.253906 L 42.441406 18.960938 L 42.523438 18.980469 Z M 42.507812 19.289062 " fill-opacity="1" fill-rule="nonzero"/></g><g clip-path="url(#4b53376379)"><path stroke-linecap="butt" transform="matrix(0.0904508, 0, 0, 0.0913983, 1.143475, 5.799916)" fill="none" stroke-linejoin="miter" d="M 155.094271 267.084037 C 155.007898 272.511861 153.582745 281.401525 143.520298 282.384517 C 143.304366 282.384517 70.880665 282.384517 70.880665 282.384517 C 70.880665 282.384517 59.004387 281.016876 57.320115 272.597339 C 55.592656 264.22054 33.610745 149.210512 33.610745 149.210512 C 33.610745 149.210512 32.70383 137.414612 46.912177 135.918755 L 122.013439 135.918755 C 125.813848 136.901747 130.607545 140.919191 131.212156 143.611734 C 138.683414 175.195684 153.712304 257.211382 154.403287 261.015132 L 154.403287 261.10061 C 154.48966 261.186087 155.180644 263.793152 155.094271 267.084037 Z M 212.316337 282.384517 L 71.010224 282.384517 C 66.821137 288.196989 66.821137 294.009462 71.010224 299.693718 L 212.316337 299.693718 C 218.62156 292.898254 217.585085 287.299475 212.316337 282.384517 Z M 195.214497 267.084037 L 155.094271 267.084037 C 155.007898 272.511861 153.021321 279.905668 142.915688 281.016876 C 142.699755 281.016876 141.015483 282.384517 141.015483 282.384517 L 209.293284 282.384517 L 209.293284 281.187831 C 209.293284 273.409375 202.98806 267.084037 195.214497 267.084037 Z M 74.594701 386.496158 C 73.515039 387.82106 72.780869 389.402394 72.780869 391.197423 L 122.704422 388.291186 L 122.704422 377.521017 L 78.99972 384.01731 C 77.315448 384.316481 75.717549 385.213995 74.594701 386.496158 Z M 181.999438 384.01731 L 174.009942 382.820624 L 164.50892 381.410245 L 138.899347 377.521017 L 137.690126 377.307323 L 137.690126 388.419403 L 177.594419 390.684558 L 182.992727 390.983729 L 187.915984 391.2829 L 188.08873 391.2829 C 188.218289 387.607366 185.583915 384.615652 181.999438 384.01731 Z M 122.790795 372.520581 L 122.790795 391.197423 L 137.690126 391.197423 L 137.690126 372.520581 Z M 77.013143 391.197423 L 75.199311 391.197423 C 70.405613 391.197423 66.518832 395.086651 66.518832 400.001609 L 66.518832 400.984601 L 85.779995 400.984601 L 85.779995 400.001609 C 85.779995 395.214867 81.80684 391.197423 77.013143 391.197423 Z M 137.38782 394.103659 C 136.005853 392.69328 134.192022 391.795766 132.205444 391.411117 C 131.687207 391.2829 131.082596 391.2829 130.607545 391.2829 C 125.209237 391.2829 120.890591 395.599516 120.890591 400.984601 L 120.890591 401.112817 L 140.19494 401.112817 L 140.19494 400.984601 C 140.19494 398.206581 139.115279 395.81321 137.38782 394.103659 Z M 191.198155 394.103659 C 189.384324 392.394108 187.009068 391.2829 184.41788 391.2829 C 183.899643 391.2829 183.510965 391.2829 183.0791 391.411117 C 181.00615 391.710288 179.105945 392.607802 177.680792 394.018182 C 175.910147 395.684994 174.787299 398.206581 174.787299 400.899123 L 174.787299 400.984601 L 194.091648 400.984601 L 194.091648 400.899123 C 194.091648 398.206581 193.011987 395.81321 191.198155 394.103659 Z M 133.889717 330.294677 L 126.979882 330.294677 L 126.979882 372.606058 L 133.803344 372.606058 L 133.803344 330.294677 Z M 135.31487 324.909592 L 125.209237 324.909592 L 125.209237 330.209199 L 135.31487 330.209199 Z M 137.819685 304.993326 L 122.099812 304.993326 L 122.099812 324.909592 L 137.819685 324.909592 Z M 141.015483 299.779196 L 117.608419 299.779196 L 117.608419 304.993326 L 141.015483 304.993326 Z M 122.099812 314.780504 L 111.821433 314.011206 C 109.791669 313.797512 108.021024 315.378846 108.021024 317.515785 C 108.021024 319.481768 109.705296 321.105842 111.821433 321.020364 L 122.099812 320.208327 Z M 328.487927 207.719887 L 328.487927 208.702879 C 328.487927 210.497907 327.192333 212.079242 325.508061 212.506629 L 276.016372 212.506629 L 279.298543 204.685435 L 324.514772 204.685435 C 326.717282 204.685435 328.487927 205.497471 328.487927 207.719887 Z M 271.784099 53.390192 C 251.61602 53.390192 235.205163 69.716402 235.205163 89.803623 C 235.205163 109.890845 251.61602 126.217055 271.784099 126.217055 C 291.995364 126.217055 308.406221 109.890845 308.406221 89.803623 C 308.406221 69.716402 291.995364 53.390192 271.784099 53.390192 Z M 427.384931 174.212692 L 423.195844 174.212692 L 414.904043 147.500962 L 418.790825 146.304276 L 423.109471 160.108898 Z M 457.010846 154.210948 L 452.692199 174.29817 C 452.389894 174.212692 452.087589 174.212692 451.785284 174.212692 L 448.589485 174.212692 L 453.080878 153.398912 Z M 457.010846 154.210948 L 452.994505 153.313434 L 455.283387 147.116313 L 457.183592 147.500962 Z M 457.313151 147.586439 L 455.412947 147.20179 L 456.578981 143.996383 L 457.485897 144.210076 Z M 457.313151 147.586439 " stroke="#000000" stroke-width="2" stroke-opacity="1" stroke-miterlimit="10"/></g><path stroke-linecap="butt" transform="matrix(0.0904508, 0, 0, 0.0913983, 1.143475, 5.799916)" fill="none" stroke-linejoin="miter" d="M 108.021024 139.380595 C 108.021024 139.380595 116.485571 139.893461 117.781165 148.697647 C 119.119946 157.501834 142.181518 268.793588 142.181518 268.793588 C 142.181518 268.793588 143.390739 274.178673 139.719889 277.811468 " stroke="#000000" stroke-width="2" stroke-opacity="1" stroke-miterlimit="10"/><path fill="#000000" d="M 42.054688 36.730469 C 42.054688 36.730469 42.0625 36.710938 42.082031 36.675781 C 42.097656 36.636719 42.125 36.59375 42.164062 36.527344 C 42.234375 36.398438 42.34375 36.226562 42.488281 36.023438 C 42.632812 35.824219 42.824219 35.605469 43.023438 35.375 C 43.121094 35.257812 43.210938 35.140625 43.292969 34.992188 C 43.367188 34.855469 43.429688 34.699219 43.464844 34.542969 C 43.5 34.390625 43.519531 34.226562 43.519531 34.070312 C 43.527344 33.90625 43.527344 33.75 43.554688 33.59375 C 43.582031 33.4375 43.628906 33.292969 43.691406 33.164062 C 43.753906 33.035156 43.835938 32.917969 43.917969 32.828125 C 44.082031 32.632812 44.261719 32.523438 44.386719 32.453125 C 44.453125 32.414062 44.503906 32.398438 44.542969 32.386719 C 44.578125 32.378906 44.597656 32.371094 44.597656 32.371094 C 44.597656 32.371094 44.578125 32.378906 44.542969 32.398438 C 44.503906 32.414062 44.460938 32.441406 44.398438 32.480469 C 44.269531 32.550781 44.117188 32.679688 43.960938 32.871094 C 43.808594 33.0625 43.683594 33.320312 43.644531 33.621094 C 43.628906 33.769531 43.621094 33.933594 43.621094 34.085938 C 43.609375 34.253906 43.609375 34.417969 43.566406 34.582031 C 43.519531 34.746094 43.457031 34.902344 43.375 35.046875 C 43.292969 35.195312 43.195312 35.320312 43.09375 35.441406 C 42.886719 35.667969 42.695312 35.878906 42.542969 36.070312 C 42.390625 36.261719 42.269531 36.425781 42.191406 36.554688 C 42.152344 36.621094 42.117188 36.664062 42.097656 36.691406 C 42.0625 36.710938 42.054688 36.730469 42.054688 36.730469 Z M 42.054688 36.730469 " fill-opacity="1" fill-rule="nonzero"/><path stroke-linecap="butt" transform="matrix(0.0904508, 0, 0, 0.0913983, 1.143475, 5.799916)" fill="none" stroke-linejoin="miter" d="M 335.786439 69.887357 L 405.791699 69.887357 " stroke="#000000" stroke-width="2" stroke-opacity="1" stroke-miterlimit="10"/><path stroke-linecap="butt" transform="matrix(0.0904508, 0, 0, 0.0913983, 1.143475, 5.799916)" fill="none" stroke-linejoin="miter" d="M 335.786439 79.802751 L 405.791699 79.802751 " stroke="#000000" stroke-width="2" stroke-opacity="1" stroke-miterlimit="10"/><path stroke-linecap="butt" transform="matrix(0.0904508, 0, 0, 0.0913983, 1.143475, 5.799916)" fill="none" stroke-linejoin="miter" d="M 335.786439 89.803623 L 405.791699 89.803623 " stroke="#000000" stroke-width="2" stroke-opacity="1" stroke-miterlimit="10"/><path stroke-linecap="butt" transform="matrix(0.0904508, 0, 0, 0.0913983, 1.143475, 5.799916)" fill="none" stroke-linejoin="miter" d="M 335.786439 99.804495 L 405.791699 99.804495 " stroke="#000000" stroke-width="2" stroke-opacity="1" stroke-miterlimit="10"/><path stroke-linecap="butt" transform="matrix(0.0904508, 0, 0, 0.0913983, 1.143475, 5.799916)" fill="none" stroke-linejoin="miter" d="M 335.786439 109.71989 L 405.791699 109.71989 " stroke="#000000" stroke-width="2" stroke-opacity="1" stroke-miterlimit="10"/><path fill="#000000" d="M 43.5 34.570312 C 43.5 34.570312 43.519531 34.542969 43.554688 34.488281 C 43.574219 34.460938 43.59375 34.433594 43.628906 34.398438 C 43.65625 34.363281 43.691406 34.324219 43.726562 34.28125 C 43.773438 34.242188 43.808594 34.199219 43.863281 34.152344 C 43.910156 34.105469 43.960938 34.070312 44.015625 34.023438 C 44.125 33.941406 44.261719 33.867188 44.386719 33.796875 C 44.453125 33.757812 44.515625 33.722656 44.578125 33.695312 C 44.640625 33.65625 44.703125 33.628906 44.757812 33.59375 C 44.820312 33.558594 44.875 33.519531 44.921875 33.492188 C 44.976562 33.457031 45.019531 33.421875 45.058594 33.382812 C 45.101562 33.347656 45.140625 33.320312 45.164062 33.285156 C 45.203125 33.257812 45.230469 33.230469 45.246094 33.199219 C 45.292969 33.15625 45.3125 33.128906 45.3125 33.128906 C 45.3125 33.128906 45.292969 33.15625 45.257812 33.21875 C 45.238281 33.246094 45.21875 33.285156 45.183594 33.3125 C 45.164062 33.328125 45.15625 33.347656 45.140625 33.367188 C 45.121094 33.382812 45.101562 33.402344 45.085938 33.421875 C 45.046875 33.464844 44.992188 33.503906 44.949219 33.539062 C 44.894531 33.574219 44.847656 33.621094 44.785156 33.65625 C 44.667969 33.742188 44.542969 33.804688 44.414062 33.878906 C 44.351562 33.914062 44.289062 33.949219 44.226562 33.988281 C 44.160156 34.023438 44.097656 34.058594 44.042969 34.097656 C 43.988281 34.132812 43.9375 34.171875 43.882812 34.207031 C 43.828125 34.242188 43.792969 34.28125 43.746094 34.316406 C 43.699219 34.351562 43.671875 34.390625 43.636719 34.417969 C 43.601562 34.445312 43.574219 34.472656 43.554688 34.5 C 43.527344 34.554688 43.5 34.570312 43.5 34.570312 Z M 43.5 34.570312 " fill-opacity="1" fill-rule="nonzero"/><path fill="#000000" d="M 42.398438 36.179688 C 42.398438 36.179688 42.390625 36.152344 42.371094 36.109375 C 42.351562 36.0625 42.316406 35.996094 42.253906 35.941406 C 42.226562 35.914062 42.179688 35.886719 42.144531 35.851562 C 42.109375 35.816406 42.074219 35.769531 42.046875 35.722656 C 42.019531 35.679688 41.992188 35.625 41.964844 35.566406 C 41.9375 35.511719 41.917969 35.457031 41.890625 35.402344 C 41.800781 35.183594 41.746094 34.957031 41.710938 34.792969 C 41.675781 34.617188 41.65625 34.507812 41.65625 34.507812 C 41.65625 34.507812 41.664062 34.535156 41.683594 34.582031 C 41.703125 34.625 41.730469 34.699219 41.757812 34.78125 C 41.808594 34.945312 41.882812 35.167969 41.972656 35.375 C 41.992188 35.429688 42.019531 35.476562 42.046875 35.53125 C 42.074219 35.578125 42.089844 35.632812 42.117188 35.679688 C 42.144531 35.722656 42.171875 35.761719 42.199219 35.796875 C 42.226562 35.832031 42.261719 35.871094 42.289062 35.898438 C 42.316406 35.933594 42.34375 35.96875 42.351562 36.007812 C 42.363281 36.042969 42.371094 36.070312 42.378906 36.097656 C 42.390625 36.125 42.390625 36.144531 42.390625 36.164062 C 42.398438 36.171875 42.398438 36.179688 42.398438 36.179688 Z M 42.398438 36.179688 " fill-opacity="1" fill-rule="nonzero"/><path fill="#000000" d="M 40.144531 32.214844 C 40.144531 32.214844 40.15625 32.1875 40.164062 32.140625 C 40.171875 32.09375 40.191406 32.03125 40.226562 31.949219 C 40.246094 31.902344 40.261719 31.859375 40.28125 31.8125 C 40.300781 31.765625 40.328125 31.710938 40.355469 31.65625 C 40.40625 31.546875 40.480469 31.429688 40.5625 31.300781 C 40.644531 31.171875 40.734375 31.035156 40.832031 30.898438 C 40.933594 30.75 41.042969 30.605469 41.140625 30.449219 C 41.242188 30.292969 41.339844 30.128906 41.421875 29.949219 C 41.457031 29.855469 41.492188 29.765625 41.546875 29.671875 C 41.59375 29.582031 41.648438 29.492188 41.703125 29.40625 C 41.929688 29.0625 42.21875 28.777344 42.535156 28.558594 C 42.851562 28.347656 43.167969 28.191406 43.457031 28.101562 C 43.738281 28 43.988281 27.953125 44.160156 27.917969 C 44.253906 27.898438 44.316406 27.890625 44.359375 27.890625 C 44.40625 27.882812 44.433594 27.882812 44.433594 27.882812 C 44.433594 27.882812 44.40625 27.890625 44.359375 27.890625 C 44.316406 27.898438 44.253906 27.910156 44.160156 27.925781 C 43.988281 27.964844 43.753906 28.027344 43.472656 28.136719 C 43.195312 28.246094 42.886719 28.402344 42.578125 28.613281 C 42.28125 28.832031 41.992188 29.105469 41.773438 29.445312 C 41.71875 29.527344 41.675781 29.617188 41.628906 29.699219 C 41.585938 29.792969 41.546875 29.882812 41.503906 29.976562 C 41.414062 30.15625 41.3125 30.320312 41.214844 30.488281 C 41.003906 30.804688 40.789062 31.082031 40.617188 31.328125 C 40.535156 31.457031 40.460938 31.566406 40.398438 31.675781 C 40.371094 31.730469 40.34375 31.773438 40.316406 31.820312 C 40.289062 31.867188 40.273438 31.914062 40.253906 31.949219 C 40.21875 32.03125 40.191406 32.09375 40.183594 32.140625 C 40.15625 32.195312 40.144531 32.214844 40.144531 32.214844 Z M 40.144531 32.214844 " fill-opacity="1" fill-rule="nonzero"/><path fill="#000000" d="M 41.675781 29.492188 C 41.675781 29.492188 41.683594 29.480469 41.691406 29.464844 C 41.703125 29.445312 41.730469 29.425781 41.757812 29.398438 C 41.78125 29.371094 41.820312 29.34375 41.863281 29.316406 C 41.910156 29.289062 41.964844 29.261719 42.027344 29.253906 C 42.152344 29.214844 42.296875 29.207031 42.453125 29.179688 C 42.605469 29.152344 42.769531 29.125 42.933594 29.078125 C 43.09375 29.035156 43.25 28.980469 43.382812 28.90625 C 43.457031 28.867188 43.519531 28.839844 43.582031 28.804688 C 43.644531 28.769531 43.710938 28.742188 43.765625 28.714844 C 43.988281 28.59375 44.132812 28.511719 44.132812 28.511719 C 44.132812 28.511719 44.097656 28.539062 44.042969 28.585938 C 43.980469 28.632812 43.898438 28.695312 43.792969 28.757812 C 43.683594 28.824219 43.554688 28.90625 43.421875 28.980469 C 43.347656 29.015625 43.277344 29.050781 43.195312 29.078125 C 43.113281 29.105469 43.03125 29.132812 42.949219 29.160156 C 42.867188 29.1875 42.785156 29.207031 42.707031 29.226562 C 42.625 29.242188 42.542969 29.253906 42.460938 29.261719 C 42.378906 29.269531 42.308594 29.28125 42.234375 29.289062 C 42.164062 29.296875 42.097656 29.296875 42.035156 29.308594 C 41.917969 29.324219 41.820312 29.371094 41.765625 29.417969 C 41.703125 29.464844 41.675781 29.492188 41.675781 29.492188 Z M 41.675781 29.492188 " fill-opacity="1" fill-rule="nonzero"/><path fill="#000000" d="M 40.90625 30.953125 C 40.90625 30.953125 40.941406 30.953125 40.996094 30.960938 C 41.023438 30.960938 41.058594 30.960938 41.105469 30.972656 C 41.148438 30.972656 41.195312 30.972656 41.242188 30.972656 C 41.292969 30.972656 41.347656 30.972656 41.402344 30.960938 C 41.457031 30.953125 41.519531 30.953125 41.585938 30.945312 C 41.648438 30.933594 41.710938 30.925781 41.773438 30.90625 C 41.835938 30.890625 41.902344 30.878906 41.964844 30.851562 C 42.027344 30.832031 42.089844 30.804688 42.152344 30.789062 C 42.21875 30.761719 42.269531 30.742188 42.335938 30.707031 C 42.363281 30.6875 42.390625 30.679688 42.417969 30.660156 C 42.441406 30.640625 42.46875 30.632812 42.496094 30.613281 C 42.550781 30.585938 42.589844 30.550781 42.632812 30.523438 C 42.679688 30.496094 42.714844 30.46875 42.742188 30.441406 C 42.777344 30.414062 42.804688 30.394531 42.824219 30.367188 C 42.867188 30.332031 42.894531 30.304688 42.894531 30.304688 C 42.894531 30.304688 42.878906 30.332031 42.832031 30.375 C 42.8125 30.40625 42.785156 30.433594 42.761719 30.460938 C 42.734375 30.488281 42.695312 30.523438 42.660156 30.558594 C 42.625 30.597656 42.578125 30.632812 42.523438 30.660156 C 42.496094 30.679688 42.46875 30.695312 42.453125 30.714844 C 42.425781 30.734375 42.398438 30.742188 42.371094 30.761719 C 42.316406 30.796875 42.253906 30.824219 42.191406 30.851562 C 42.125 30.878906 42.0625 30.90625 41.992188 30.925781 C 41.929688 30.945312 41.855469 30.960938 41.792969 30.972656 C 41.730469 30.980469 41.65625 31 41.59375 31 C 41.53125 31.007812 41.464844 31.007812 41.402344 31.007812 C 41.339844 31.007812 41.285156 31.007812 41.230469 31 C 41.175781 30.988281 41.132812 30.988281 41.085938 30.980469 C 41.042969 30.972656 41.003906 30.960938 40.976562 30.960938 C 40.933594 30.960938 40.90625 30.953125 40.90625 30.953125 Z M 40.90625 30.953125 " fill-opacity="1" fill-rule="nonzero"/><path fill="#000000" d="M 40.527344 31.417969 C 40.527344 31.417969 40.515625 31.363281 40.488281 31.273438 C 40.460938 31.179688 40.425781 31.042969 40.382812 30.890625 C 40.335938 30.722656 40.273438 30.542969 40.246094 30.332031 C 40.226562 30.230469 40.21875 30.113281 40.21875 30.003906 C 40.21875 29.949219 40.226562 29.890625 40.234375 29.828125 L 40.253906 29.746094 C 40.261719 29.71875 40.273438 29.683594 40.28125 29.65625 C 40.328125 29.546875 40.390625 29.453125 40.453125 29.363281 C 40.507812 29.269531 40.570312 29.179688 40.617188 29.089844 C 40.714844 28.90625 40.804688 28.730469 40.859375 28.578125 C 40.914062 28.421875 40.960938 28.285156 40.976562 28.191406 C 40.996094 28.101562 41.003906 28.046875 41.003906 28.046875 C 41.003906 28.046875 41.003906 28.066406 41.003906 28.082031 C 41.003906 28.109375 41.003906 28.148438 40.996094 28.191406 C 40.988281 28.292969 40.960938 28.429688 40.914062 28.59375 C 40.859375 28.757812 40.789062 28.941406 40.6875 29.125 C 40.632812 29.214844 40.578125 29.308594 40.527344 29.40625 C 40.472656 29.5 40.40625 29.601562 40.363281 29.691406 C 40.355469 29.71875 40.34375 29.738281 40.335938 29.765625 L 40.308594 29.835938 C 40.300781 29.890625 40.289062 29.949219 40.289062 29.992188 C 40.28125 30.101562 40.289062 30.203125 40.308594 30.304688 C 40.335938 30.503906 40.382812 30.695312 40.417969 30.859375 C 40.453125 31.027344 40.480469 31.164062 40.5 31.261719 C 40.507812 31.308594 40.507812 31.347656 40.515625 31.375 C 40.515625 31.402344 40.527344 31.417969 40.527344 31.417969 Z M 40.527344 31.417969 " fill-opacity="1" fill-rule="nonzero"/><path fill="#000000" d="M 37.234375 33.402344 C 37.234375 33.402344 37.222656 33.375 37.195312 33.328125 C 37.179688 33.285156 37.144531 33.210938 37.089844 33.128906 C 37 32.953125 36.835938 32.726562 36.617188 32.46875 C 36.402344 32.214844 36.113281 31.949219 35.785156 31.683594 C 35.460938 31.417969 35.097656 31.152344 34.746094 30.871094 C 34.574219 30.722656 34.394531 30.613281 34.195312 30.503906 C 34.003906 30.394531 33.8125 30.292969 33.625 30.203125 C 33.246094 30.019531 32.890625 29.863281 32.574219 29.746094 C 32.257812 29.628906 31.996094 29.535156 31.804688 29.5 C 31.714844 29.472656 31.632812 29.464844 31.582031 29.453125 C 31.527344 29.445312 31.5 29.445312 31.5 29.445312 C 31.5 29.445312 31.527344 29.445312 31.582031 29.445312 C 31.632812 29.453125 31.707031 29.453125 31.804688 29.472656 C 31.996094 29.507812 32.269531 29.582031 32.585938 29.691406 C 32.902344 29.800781 33.273438 29.949219 33.652344 30.128906 C 33.839844 30.222656 34.039062 30.320312 34.230469 30.421875 C 34.328125 30.476562 34.421875 30.53125 34.519531 30.597656 C 34.609375 30.660156 34.710938 30.722656 34.792969 30.796875 C 35.136719 31.082031 35.496094 31.347656 35.824219 31.621094 C 36.148438 31.894531 36.429688 32.167969 36.644531 32.433594 C 36.863281 32.699219 37.007812 32.945312 37.097656 33.117188 C 37.144531 33.210938 37.171875 33.285156 37.1875 33.328125 C 37.214844 33.375 37.234375 33.402344 37.234375 33.402344 Z M 37.234375 33.402344 " fill-opacity="1" fill-rule="nonzero"/><path fill="#000000" d="M 34.925781 30.953125 C 34.925781 30.953125 34.910156 30.917969 34.871094 30.851562 C 34.84375 30.789062 34.800781 30.695312 34.753906 30.585938 C 34.710938 30.476562 34.664062 30.339844 34.609375 30.203125 C 34.582031 30.128906 34.554688 30.066406 34.519531 29.992188 C 34.484375 29.921875 34.449219 29.855469 34.410156 29.78125 C 34.339844 29.644531 34.257812 29.5 34.183594 29.371094 C 34.113281 29.242188 34.03125 29.125 33.96875 29.035156 C 33.894531 28.941406 33.832031 28.859375 33.789062 28.8125 C 33.742188 28.757812 33.714844 28.730469 33.714844 28.730469 C 33.714844 28.730469 33.75 28.75 33.804688 28.796875 C 33.832031 28.8125 33.867188 28.839844 33.90625 28.878906 C 33.941406 28.914062 33.976562 28.949219 34.023438 28.996094 C 34.058594 29.042969 34.105469 29.097656 34.148438 29.152344 C 34.195312 29.207031 34.230469 29.269531 34.277344 29.335938 C 34.355469 29.464844 34.4375 29.601562 34.511719 29.746094 C 34.546875 29.820312 34.582031 29.890625 34.621094 29.964844 C 34.65625 30.039062 34.683594 30.113281 34.699219 30.183594 C 34.746094 30.332031 34.78125 30.46875 34.816406 30.578125 C 34.855469 30.695312 34.882812 30.789062 34.898438 30.851562 C 34.910156 30.917969 34.925781 30.953125 34.925781 30.953125 Z M 34.925781 30.953125 " fill-opacity="1" fill-rule="nonzero"/><path fill="#000000" d="M 36.601562 32.332031 C 36.601562 32.332031 36.601562 32.296875 36.601562 32.222656 C 36.601562 32.1875 36.601562 32.148438 36.589844 32.09375 C 36.582031 32.050781 36.582031 31.996094 36.574219 31.929688 C 36.554688 31.8125 36.519531 31.683594 36.484375 31.539062 C 36.445312 31.390625 36.402344 31.246094 36.355469 31.089844 C 36.320312 30.933594 36.292969 30.777344 36.273438 30.625 C 36.257812 30.476562 36.246094 30.332031 36.246094 30.210938 C 36.238281 30.09375 36.246094 29.992188 36.246094 29.917969 C 36.246094 29.847656 36.246094 29.808594 36.246094 29.808594 C 36.246094 29.808594 36.257812 29.847656 36.265625 29.917969 C 36.273438 29.992188 36.285156 30.085938 36.300781 30.203125 C 36.320312 30.320312 36.335938 30.460938 36.355469 30.605469 C 36.382812 30.75 36.410156 30.90625 36.445312 31.0625 C 36.484375 31.21875 36.527344 31.375 36.554688 31.519531 C 36.589844 31.664062 36.609375 31.800781 36.617188 31.929688 C 36.628906 32.050781 36.628906 32.148438 36.617188 32.222656 C 36.617188 32.257812 36.609375 32.289062 36.609375 32.304688 C 36.601562 32.324219 36.601562 32.332031 36.601562 32.332031 Z M 36.601562 32.332031 " fill-opacity="1" fill-rule="nonzero"/><path fill="#000000" d="M 35.097656 31.089844 C 35.097656 31.089844 35.0625 31.089844 35.007812 31.089844 C 34.953125 31.089844 34.871094 31.089844 34.78125 31.089844 C 34.691406 31.089844 34.574219 31.097656 34.464844 31.097656 C 34.347656 31.109375 34.222656 31.109375 34.09375 31.117188 C 34.03125 31.125 33.96875 31.125 33.90625 31.136719 C 33.839844 31.144531 33.789062 31.144531 33.722656 31.152344 C 33.605469 31.164062 33.496094 31.179688 33.40625 31.191406 C 33.363281 31.199219 33.316406 31.199219 33.28125 31.207031 C 33.246094 31.21875 33.207031 31.21875 33.179688 31.226562 C 33.125 31.234375 33.101562 31.246094 33.101562 31.246094 C 33.101562 31.246094 33.21875 31.191406 33.398438 31.144531 C 33.578125 31.097656 33.832031 31.0625 34.085938 31.042969 C 34.210938 31.035156 34.339844 31.035156 34.457031 31.035156 C 34.574219 31.035156 34.683594 31.042969 34.78125 31.054688 C 34.980469 31.054688 35.097656 31.089844 35.097656 31.089844 Z M 35.097656 31.089844 " fill-opacity="1" fill-rule="nonzero"/><path fill="#000000" d="M 36.417969 32.324219 C 36.417969 32.324219 36.390625 32.324219 36.347656 32.316406 C 36.300781 32.304688 36.238281 32.304688 36.15625 32.316406 C 36.074219 32.316406 35.996094 32.332031 35.894531 32.34375 C 35.796875 32.359375 35.695312 32.378906 35.597656 32.398438 C 35.496094 32.414062 35.386719 32.433594 35.289062 32.441406 C 35.1875 32.453125 35.097656 32.453125 35.015625 32.453125 C 34.855469 32.441406 34.753906 32.425781 34.753906 32.425781 C 34.753906 32.425781 34.78125 32.425781 34.828125 32.414062 C 34.871094 32.414062 34.9375 32.40625 35.015625 32.398438 C 35.171875 32.378906 35.378906 32.351562 35.585938 32.304688 C 35.6875 32.289062 35.796875 32.269531 35.894531 32.257812 C 35.996094 32.25 36.085938 32.25 36.167969 32.257812 C 36.246094 32.269531 36.3125 32.289062 36.355469 32.296875 C 36.390625 32.304688 36.417969 32.324219 36.417969 32.324219 Z M 36.417969 32.324219 " fill-opacity="1" fill-rule="nonzero"/><path fill="#000000" d="M 38.335938 37.789062 C 38.335938 37.789062 38.300781 37.753906 38.226562 37.679688 C 38.164062 37.605469 38.066406 37.507812 37.949219 37.386719 C 37.832031 37.269531 37.695312 37.132812 37.550781 36.984375 C 37.40625 36.839844 37.242188 36.691406 37.070312 36.554688 C 36.898438 36.417969 36.71875 36.289062 36.535156 36.191406 C 36.445312 36.144531 36.355469 36.089844 36.273438 36.054688 C 36.191406 36.015625 36.101562 35.980469 36.03125 35.953125 C 35.949219 35.925781 35.886719 35.898438 35.8125 35.878906 C 35.75 35.859375 35.695312 35.84375 35.640625 35.832031 C 35.550781 35.816406 35.496094 35.804688 35.496094 35.804688 C 35.496094 35.804688 35.515625 35.804688 35.53125 35.804688 C 35.558594 35.804688 35.597656 35.804688 35.640625 35.816406 C 35.6875 35.824219 35.75 35.832031 35.8125 35.84375 C 35.875 35.851562 35.957031 35.871094 36.03125 35.898438 C 36.191406 35.941406 36.375 36.015625 36.554688 36.117188 C 36.734375 36.21875 36.925781 36.34375 37.105469 36.480469 C 37.277344 36.621094 37.441406 36.773438 37.585938 36.929688 C 37.730469 37.078125 37.859375 37.230469 37.964844 37.359375 C 38.074219 37.488281 38.15625 37.597656 38.21875 37.671875 C 38.300781 37.742188 38.335938 37.789062 38.335938 37.789062 Z M 38.335938 37.789062 " fill-opacity="1" fill-rule="nonzero"/><path fill="#000000" d="M 37.097656 36.519531 C 37.097656 36.519531 37.097656 36.5 37.097656 36.480469 C 37.097656 36.453125 37.097656 36.425781 37.097656 36.382812 C 37.097656 36.34375 37.097656 36.300781 37.089844 36.246094 C 37.089844 36.21875 37.078125 36.199219 37.078125 36.171875 C 37.070312 36.144531 37.070312 36.125 37.0625 36.097656 C 37.050781 36.070312 37.042969 36.054688 37.035156 36.035156 C 37.023438 36.015625 37.007812 35.988281 37 35.96875 C 36.972656 35.933594 36.933594 35.90625 36.90625 35.878906 C 36.878906 35.851562 36.84375 35.832031 36.828125 35.824219 C 36.808594 35.816406 36.789062 35.804688 36.789062 35.804688 C 36.789062 35.804688 36.808594 35.804688 36.828125 35.804688 C 36.835938 35.804688 36.851562 35.804688 36.871094 35.816406 C 36.890625 35.816406 36.90625 35.824219 36.925781 35.832031 C 36.945312 35.84375 36.972656 35.851562 36.988281 35.871094 C 37.007812 35.886719 37.035156 35.898438 37.050781 35.925781 C 37.089844 35.960938 37.125 36.015625 37.144531 36.070312 C 37.152344 36.097656 37.160156 36.125 37.160156 36.152344 C 37.160156 36.179688 37.171875 36.207031 37.171875 36.234375 C 37.171875 36.261719 37.171875 36.289062 37.160156 36.308594 C 37.160156 36.335938 37.152344 36.355469 37.144531 36.371094 C 37.132812 36.417969 37.117188 36.445312 37.105469 36.472656 C 37.105469 36.5 37.097656 36.519531 37.097656 36.519531 Z M 37.097656 36.519531 " fill-opacity="1" fill-rule="nonzero"/><path fill="#000000" d="M 37.722656 37.09375 C 37.722656 37.09375 37.703125 37.09375 37.667969 37.105469 C 37.632812 37.113281 37.585938 37.132812 37.53125 37.140625 C 37.414062 37.175781 37.261719 37.214844 37.105469 37.242188 C 37.023438 37.25 36.945312 37.257812 36.871094 37.257812 C 36.835938 37.257812 36.800781 37.257812 36.761719 37.25 C 36.726562 37.25 36.699219 37.242188 36.664062 37.230469 C 36.636719 37.222656 36.609375 37.214844 36.582031 37.214844 C 36.554688 37.203125 36.535156 37.195312 36.519531 37.195312 C 36.484375 37.175781 36.464844 37.167969 36.464844 37.167969 C 36.464844 37.167969 36.484375 37.167969 36.519531 37.175781 C 36.535156 37.175781 36.554688 37.1875 36.582031 37.1875 C 36.609375 37.1875 36.636719 37.1875 36.664062 37.1875 C 36.691406 37.1875 36.726562 37.1875 36.753906 37.1875 C 36.789062 37.1875 36.828125 37.1875 36.863281 37.175781 C 36.898438 37.175781 36.933594 37.167969 36.972656 37.167969 C 37.007812 37.167969 37.042969 37.160156 37.089844 37.148438 C 37.242188 37.132812 37.394531 37.105469 37.515625 37.09375 C 37.578125 37.085938 37.621094 37.085938 37.660156 37.085938 C 37.675781 37.085938 37.6875 37.085938 37.695312 37.085938 C 37.722656 37.09375 37.722656 37.09375 37.722656 37.09375 Z M 37.722656 37.09375 " fill-opacity="1" fill-rule="nonzero"/><path fill="#000000" d="M 37.992188 37.394531 C 37.992188 37.394531 38.003906 37.378906 38.019531 37.339844 C 38.03125 37.324219 38.039062 37.296875 38.046875 37.277344 C 38.054688 37.25 38.066406 37.222656 38.074219 37.1875 C 38.082031 37.148438 38.082031 37.113281 38.09375 37.078125 C 38.09375 37.039062 38.101562 36.996094 38.09375 36.957031 C 38.09375 36.910156 38.082031 36.875 38.082031 36.828125 C 38.074219 36.785156 38.074219 36.738281 38.054688 36.691406 C 38.019531 36.507812 37.957031 36.335938 37.910156 36.199219 C 37.894531 36.136719 37.867188 36.070312 37.859375 36.035156 C 37.847656 35.996094 37.839844 35.96875 37.839844 35.96875 C 37.839844 35.96875 37.894531 36.054688 37.957031 36.171875 C 37.992188 36.234375 38.03125 36.308594 38.054688 36.390625 C 38.09375 36.472656 38.121094 36.566406 38.136719 36.664062 C 38.148438 36.710938 38.15625 36.765625 38.15625 36.8125 C 38.164062 36.855469 38.164062 36.910156 38.15625 36.957031 C 38.15625 37.003906 38.148438 37.050781 38.136719 37.085938 C 38.128906 37.132812 38.121094 37.167969 38.101562 37.195312 C 38.082031 37.230469 38.074219 37.257812 38.054688 37.285156 C 38.039062 37.3125 38.03125 37.332031 38.011719 37.351562 C 38.011719 37.378906 37.992188 37.394531 37.992188 37.394531 Z M 37.992188 37.394531 " fill-opacity="1" fill-rule="nonzero"/><path stroke-linecap="round" transform="matrix(0.0904508, 0, 0, 0.0913983, 1.143475, 5.799916)" fill="none" stroke-linejoin="round" d="M 297.78235 211.908287 L 324.29884 204.984606 " stroke="#000000" stroke-width="2" stroke-opacity="1" stroke-miterlimit="10"/></svg>