<svg width="64" height="64" viewBox="0 0 64 64" fill="none" xmlns="http://www.w3.org/2000/svg">
  <!-- Background circle -->
  <circle cx="32" cy="32" r="30" fill="#1e293b" stroke="#334155" stroke-width="2"/>
  
  <!-- Video editing theme -->
  <!-- Main video frame -->
  <rect x="16" y="20" width="32" height="20" rx="2" fill="#374151" stroke="#4b5563" stroke-width="1"/>
  
  <!-- Play button -->
  <circle cx="32" cy="30" r="6" fill="#ef4444"/>
  <path d="M29 27L37 30L29 33V27Z" fill="white"/>
  
  <!-- Timeline at bottom -->
  <rect x="12" y="44" width="40" height="4" rx="2" fill="#6366f1"/>
  <rect x="12" y="44" width="16" height="4" rx="2" fill="#8b5cf6"/>
  
  <!-- Timeline markers -->
  <rect x="20" y="42" width="1" height="8" fill="#a855f7"/>
  <rect x="28" y="42" width="1" height="8" fill="#a855f7"/>
  <rect x="36" y="42" width="1" height="8" fill="#a855f7"/>
  <rect x="44" y="42" width="1" height="8" fill="#a855f7"/>
  
  <!-- Video tracks -->
  <rect x="14" y="50" width="36" height="2" rx="1" fill="#22c55e" opacity="0.7"/>
  <rect x="14" y="53" width="28" height="2" rx="1" fill="#f59e0b" opacity="0.7"/>
  
  <!-- Editing tools -->
  <circle cx="18" cy="14" r="2" fill="#ec4899"/>
  <rect x="16" y="10" width="4" height="2" rx="1" fill="#ec4899"/>
  
  <circle cx="32" cy="14" r="2" fill="#10b981"/>
  <path d="M30 12L34 14L30 16V12Z" fill="white"/>
  
  <circle cx="46" cy="14" r="2" fill="#f59e0b"/>
  <rect x="44" y="12" width="4" height="4" fill="white" opacity="0.8"/>
  <rect x="45" y="13" width="2" height="2" fill="#f59e0b"/>
  
  <!-- Waveform visualization -->
  <path d="M16 36L18 34L20 38L22 32L24 36L26 34L28 38L30 35L32 37L34 33L36 36L38 34L40 37L42 35L44 38L46 36L48 34" 
        stroke="#06b6d4" stroke-width="1.5" fill="none" opacity="0.6"/>
</svg>