<svg xmlns="http://www.w3.org/2000/svg" xmlns:xlink="http://www.w3.org/1999/xlink" width="64" zoomAndPan="magnify" viewBox="0 0 48 48" height="64" preserveAspectRatio="xMidYMid meet" version="1.0"><defs><clipPath id="6663c3956d"><path d="M 24 20 L 26 20 L 26 23.65625 L 24 23.65625 Z M 24 20 " clip-rule="nonzero"/></clipPath><clipPath id="2ab8857cb5"><path d="M 25 20 L 27.671875 20 L 27.671875 23 L 25 23 Z M 25 20 " clip-rule="nonzero"/></clipPath><clipPath id="a51a75d489"><path d="M 24 19.984375 L 27.671875 19.984375 L 27.671875 23.65625 L 24 23.65625 Z M 24 19.984375 " clip-rule="nonzero"/></clipPath><clipPath id="e8f1549fd2"><path d="M 2.988281 8 L 44.867188 8 L 44.867188 35 L 2.988281 35 Z M 2.988281 8 " clip-rule="nonzero"/></clipPath><clipPath id="bd1db18844"><path d="M 2.988281 8 L 44.867188 8 L 44.867188 9 L 2.988281 9 Z M 2.988281 8 " clip-rule="nonzero"/></clipPath><clipPath id="d5572921c2"><path d="M 3 8 L 44.867188 8 L 44.867188 35 L 3 35 Z M 3 8 " clip-rule="nonzero"/></clipPath><clipPath id="08accd7d63"><path d="M 2.988281 2.496094 L 44.867188 2.496094 L 44.867188 9 L 2.988281 9 Z M 2.988281 2.496094 " clip-rule="nonzero"/></clipPath><clipPath id="50beadd63f"><path d="M 13 2.496094 L 44.867188 2.496094 L 44.867188 9 L 13 9 Z M 13 2.496094 " clip-rule="nonzero"/></clipPath><clipPath id="47d3352be2"><path d="M 4 2.496094 L 16 2.496094 L 16 9 L 4 9 Z M 4 2.496094 " clip-rule="nonzero"/></clipPath><clipPath id="8eb0f6bf59"><path d="M 2.988281 2.496094 L 15 2.496094 L 15 9 L 2.988281 9 Z M 2.988281 2.496094 " clip-rule="nonzero"/></clipPath><clipPath id="a9b8f3eeb7"><path d="M 16 42 L 31 42 L 31 44.375 L 16 44.375 Z M 16 42 " clip-rule="nonzero"/></clipPath><clipPath id="13d544cd92"><path d="M 26 42 L 31 42 L 31 44.375 L 26 44.375 Z M 26 42 " clip-rule="nonzero"/></clipPath></defs><g clip-path="url(#6663c3956d)"><path fill="#32393f" d="M 25.292969 20.273438 L 25.292969 20.566406 C 25.171875 20.59375 25.070312 20.640625 24.972656 20.695312 L 24.761719 20.488281 L 24.289062 20.964844 L 24.496094 21.171875 C 24.441406 21.269531 24.394531 21.375 24.367188 21.484375 L 24.070312 21.484375 L 24.070312 22.15625 L 24.367188 22.15625 C 24.394531 22.269531 24.441406 22.371094 24.496094 22.46875 L 24.289062 22.675781 L 24.761719 23.152344 L 24.972656 22.945312 C 25.070312 23 25.171875 23.046875 25.292969 23.074219 L 25.292969 23.367188 L 25.6875 23.367188 L 25.6875 22.9375 L 25.75 22.882812 L 25.6875 22.828125 L 25.191406 21.820312 L 25.6875 20.8125 L 25.75 20.691406 L 25.6875 20.632812 L 25.6875 20.273438 Z M 25.292969 20.273438 " fill-opacity="1" fill-rule="nonzero"/></g><path fill="#697c84" d="M 25.6875 20.816406 L 26.089844 21.738281 L 25.6875 22.828125 C 25.675781 22.828125 25.644531 22.828125 25.621094 22.828125 C 25.0625 22.828125 24.613281 22.378906 24.613281 21.820312 C 24.613281 21.265625 25.0625 20.8125 25.621094 20.8125 C 25.644531 20.8125 25.675781 20.8125 25.6875 20.816406 Z M 25.6875 20.816406 " fill-opacity="1" fill-rule="nonzero"/><g clip-path="url(#2ab8857cb5)"><path fill="#2ee5a7" d="M 25.6875 20.632812 C 25.6875 20.726562 25.6875 22.851562 25.6875 22.9375 C 25.847656 22.9375 26.867188 22.9375 27.023438 22.9375 C 27.023438 22.660156 27.023438 20.902344 27.023438 20.632812 C 26.984375 20.632812 25.71875 20.632812 25.6875 20.632812 Z M 25.6875 20.632812 " fill-opacity="1" fill-rule="nonzero"/></g><path fill="#000000" d="M 26.210938 21.390625 C 26.042969 21.390625 25.90625 21.527344 25.90625 21.695312 L 25.90625 22.109375 C 25.90625 22.148438 25.9375 22.179688 25.976562 22.179688 C 26.019531 22.179688 26.050781 22.148438 26.050781 22.109375 L 26.050781 21.929688 L 26.375 21.929688 L 26.375 22.109375 C 26.375 22.148438 26.40625 22.179688 26.445312 22.179688 C 26.488281 22.179688 26.519531 22.148438 26.519531 22.109375 L 26.519531 21.695312 C 26.519531 21.527344 26.382812 21.390625 26.210938 21.390625 Z M 26.050781 21.785156 L 26.050781 21.695312 C 26.050781 21.605469 26.125 21.535156 26.210938 21.535156 C 26.300781 21.535156 26.375 21.605469 26.375 21.695312 L 26.375 21.785156 Z M 26.050781 21.785156 " fill-opacity="1" fill-rule="nonzero"/><path fill="#000000" d="M 26.734375 21.386719 C 26.695312 21.386719 26.664062 21.421875 26.664062 21.460938 L 26.664062 22.109375 C 26.664062 22.148438 26.695312 22.179688 26.734375 22.179688 C 26.773438 22.179688 26.808594 22.148438 26.808594 22.109375 L 26.808594 21.460938 C 26.808594 21.421875 26.773438 21.386719 26.734375 21.386719 Z M 26.734375 21.386719 " fill-opacity="1" fill-rule="nonzero"/><g clip-path="url(#a51a75d489)"><path fill="#000000" d="M 27.601562 21.710938 L 27.097656 21.710938 C 27.097656 21.667969 27.097656 21.609375 27.097656 21.566406 L 27.457031 21.566406 C 27.496094 21.566406 27.53125 21.535156 27.53125 21.496094 L 27.53125 21.316406 C 27.53125 21.277344 27.496094 21.246094 27.457031 21.246094 C 27.417969 21.246094 27.386719 21.277344 27.386719 21.316406 L 27.386719 21.425781 L 27.097656 21.425781 L 27.097656 20.632812 C 27.097656 20.59375 27.066406 20.558594 27.023438 20.558594 L 26.808594 20.558594 L 26.808594 20.273438 L 26.917969 20.273438 C 26.957031 20.273438 26.988281 20.238281 26.988281 20.199219 C 26.988281 20.160156 26.957031 20.128906 26.917969 20.128906 L 26.738281 20.128906 C 26.699219 20.128906 26.664062 20.160156 26.664062 20.199219 L 26.664062 20.558594 L 26.519531 20.558594 L 26.519531 20.054688 C 26.519531 20.015625 26.488281 19.984375 26.449219 19.984375 C 26.410156 19.984375 26.375 20.015625 26.375 20.054688 L 26.375 20.558594 L 26.234375 20.558594 L 26.234375 20.199219 C 26.234375 20.160156 26.199219 20.128906 26.160156 20.128906 L 25.980469 20.128906 C 25.941406 20.128906 25.910156 20.160156 25.910156 20.199219 C 25.910156 20.238281 25.941406 20.273438 25.980469 20.273438 L 26.089844 20.273438 L 26.089844 20.558594 L 25.761719 20.558594 L 25.761719 20.273438 C 25.761719 20.230469 25.726562 20.199219 25.6875 20.199219 L 25.292969 20.199219 C 25.25 20.199219 25.21875 20.230469 25.21875 20.273438 L 25.21875 20.511719 C 25.136719 20.535156 25.058594 20.566406 24.984375 20.605469 L 24.816406 20.4375 C 24.785156 20.410156 24.742188 20.410156 24.710938 20.4375 L 24.238281 20.914062 C 24.207031 20.941406 24.207031 20.984375 24.238281 21.015625 L 24.40625 21.183594 C 24.367188 21.257812 24.335938 21.332031 24.3125 21.410156 L 24.070312 21.410156 C 24.03125 21.410156 24 21.445312 24 21.484375 L 24 22.15625 C 24 22.195312 24.03125 22.230469 24.070312 22.230469 L 24.3125 22.230469 C 24.335938 22.308594 24.367188 22.382812 24.40625 22.457031 L 24.238281 22.625 C 24.207031 22.65625 24.207031 22.699219 24.238281 22.726562 L 24.710938 23.203125 C 24.742188 23.234375 24.785156 23.234375 24.816406 23.203125 L 24.984375 23.035156 C 25.058594 23.074219 25.136719 23.105469 25.21875 23.128906 L 25.21875 23.367188 C 25.21875 23.410156 25.25 23.441406 25.292969 23.441406 L 25.6875 23.441406 C 25.726562 23.441406 25.761719 23.410156 25.761719 23.367188 L 25.761719 23.007812 L 26.089844 23.007812 L 26.089844 23.296875 L 25.980469 23.296875 C 25.941406 23.296875 25.910156 23.328125 25.910156 23.367188 C 25.910156 23.410156 25.941406 23.441406 25.980469 23.441406 L 26.160156 23.441406 C 26.199219 23.441406 26.234375 23.410156 26.234375 23.367188 L 26.234375 23.007812 L 26.375 23.007812 L 26.375 23.585938 C 26.375 23.625 26.410156 23.65625 26.449219 23.65625 C 26.488281 23.65625 26.519531 23.625 26.519531 23.585938 L 26.519531 23.007812 L 26.664062 23.007812 L 26.664062 23.367188 C 26.664062 23.410156 26.699219 23.441406 26.738281 23.441406 L 26.917969 23.441406 C 26.957031 23.441406 26.988281 23.410156 26.988281 23.367188 C 26.988281 23.328125 26.957031 23.296875 26.917969 23.296875 L 26.808594 23.296875 L 26.808594 23.007812 L 27.023438 23.007812 C 27.066406 23.007812 27.097656 22.976562 27.097656 22.9375 C 27.097656 22.863281 27.097656 22.261719 27.097656 22.144531 L 27.386719 22.144531 L 27.386719 22.253906 C 27.386719 22.292969 27.417969 22.324219 27.457031 22.324219 C 27.496094 22.324219 27.53125 22.292969 27.53125 22.253906 L 27.53125 22.074219 C 27.53125 22.03125 27.496094 22 27.457031 22 L 27.097656 22 C 27.097656 21.957031 27.097656 21.898438 27.097656 21.855469 L 27.601562 21.855469 C 27.640625 21.855469 27.671875 21.824219 27.671875 21.785156 C 27.671875 21.746094 27.640625 21.710938 27.601562 21.710938 Z M 25.617188 22.757812 C 25.101562 22.753906 24.683594 22.335938 24.683594 21.820312 C 24.683594 21.304688 25.101562 20.886719 25.617188 20.882812 Z M 25.617188 20.738281 C 25.023438 20.742188 24.539062 21.226562 24.539062 21.820312 C 24.539062 22.414062 25.023438 22.898438 25.617188 22.902344 C 25.617188 23 25.617188 23.246094 25.617188 23.296875 L 25.363281 23.296875 L 25.363281 23.074219 C 25.363281 23.042969 25.339844 23.011719 25.308594 23.003906 C 25.203125 22.976562 25.101562 22.9375 25.007812 22.882812 C 24.980469 22.867188 24.945312 22.871094 24.921875 22.894531 L 24.761719 23.050781 L 24.390625 22.675781 L 24.546875 22.519531 C 24.570312 22.496094 24.574219 22.460938 24.558594 22.433594 C 24.503906 22.339844 24.464844 22.242188 24.4375 22.136719 C 24.425781 22.105469 24.398438 22.085938 24.367188 22.085938 L 24.144531 22.085938 L 24.144531 21.554688 L 24.367188 21.554688 C 24.398438 21.554688 24.425781 21.535156 24.4375 21.503906 C 24.464844 21.398438 24.503906 21.300781 24.558594 21.207031 C 24.574219 21.179688 24.570312 21.144531 24.546875 21.121094 L 24.390625 20.964844 L 24.761719 20.589844 L 24.921875 20.746094 C 24.945312 20.769531 24.980469 20.773438 25.007812 20.757812 C 25.101562 20.703125 25.203125 20.664062 25.308594 20.636719 C 25.339844 20.628906 25.363281 20.597656 25.363281 20.566406 L 25.363281 20.34375 L 25.617188 20.34375 C 25.617188 20.4375 25.617188 20.648438 25.617188 20.738281 Z M 26.953125 22.863281 L 25.761719 22.863281 L 25.761719 20.703125 L 26.953125 20.703125 Z M 26.953125 22.863281 " fill-opacity="1" fill-rule="nonzero"/></g><g clip-path="url(#e8f1549fd2)"><path fill="#e4eff8" d="M 2.988281 8.273438 L 2.988281 32.101562 C 2.988281 33.300781 3.953125 34.265625 5.152344 34.265625 L 42.699219 34.265625 C 43.898438 34.265625 44.867188 33.300781 44.867188 32.101562 L 44.867188 8.273438 Z M 2.988281 8.273438 " fill-opacity="1" fill-rule="nonzero"/></g><g clip-path="url(#bd1db18844)"><path fill="#c4dcf0" d="M 2.988281 8.273438 L 2.988281 8.996094 L 44.867188 8.996094 L 44.867188 8.273438 Z M 2.988281 8.273438 " fill-opacity="1" fill-rule="nonzero"/></g><path fill="#c4dcf0" d="M 24.648438 10.441406 C 20.457031 10.476562 23.257812 12.167969 19.574219 13.734375 C 15.894531 15.304688 16.628906 12.105469 13.824219 14.972656 C 11.019531 17.835938 14.191406 17.042969 12.691406 20.769531 C 11.191406 24.492188 9.457031 21.710938 9.492188 25.726562 C 9.527344 29.742188 11.210938 26.929688 12.773438 30.628906 C 13.730469 32.894531 12.910156 33.496094 12.78125 34.265625 L 36.515625 34.265625 C 36.386719 33.496094 35.566406 32.894531 36.523438 30.628906 C 38.085938 26.929688 39.769531 29.742188 39.804688 25.726562 C 39.839844 21.710938 38.105469 24.492188 36.605469 20.769531 C 35.105469 17.042969 38.28125 17.835938 35.472656 14.972656 C 32.667969 12.105469 33.402344 15.304688 29.722656 13.734375 C 26.039062 12.167969 28.839844 10.472656 24.648438 10.441406 Z M 24.648438 10.441406 " fill-opacity="1" fill-rule="nonzero"/><path fill="#c4dcf0" d="M 32.328125 6.792969 L 27.21875 15.542969 L 27.21875 15.546875 C 26.140625 17.390625 27.578125 19.828125 29.679688 19.828125 L 39.90625 19.828125 C 42.003906 19.828125 43.445312 17.390625 42.367188 15.546875 L 42.367188 15.542969 L 37.253906 6.792969 L 37.25 6.792969 C 36.757812 5.953125 35.878906 5.433594 34.785156 5.390625 C 33.695312 5.4375 32.820312 5.957031 32.328125 6.792969 Z M 32.328125 6.792969 " fill-opacity="1" fill-rule="nonzero"/><g clip-path="url(#d5572921c2)"><path fill="#c4dcf0" d="M 43.621094 8.273438 C 39.695312 34.074219 12.589844 33.089844 3.234375 33.089844 C 3.59375 33.789062 4.3125 34.265625 5.152344 34.265625 L 42.699219 34.265625 C 43.898438 34.265625 44.867188 33.300781 44.867188 32.101562 L 44.867188 8.273438 Z M 43.621094 8.273438 " fill-opacity="1" fill-rule="nonzero"/></g><path fill="#549ad4" d="M 28.796875 38.265625 C 32.503906 36.757812 31.71875 39.945312 34.570312 37.128906 C 37.421875 34.3125 34.238281 35.050781 35.800781 31.351562 C 37.363281 27.652344 39.050781 30.464844 39.082031 26.449219 C 39.117188 22.429688 37.382812 25.214844 35.882812 21.492188 C 34.382812 17.765625 37.558594 18.558594 34.753906 15.691406 C 31.949219 12.828125 32.683594 16.027344 29 14.457031 C 25.316406 12.890625 28.117188 11.195312 23.925781 11.164062 C 19.734375 11.195312 22.535156 12.890625 18.855469 14.457031 C 15.171875 16.027344 15.90625 12.828125 13.101562 15.691406 C 10.296875 18.558594 13.46875 17.765625 11.96875 21.492188 C 10.46875 25.214844 8.734375 22.429688 8.769531 26.449219 C 8.804688 30.464844 10.488281 27.652344 12.054688 31.351562 C 13.617188 35.050781 10.429688 34.3125 13.28125 37.128906 C 16.136719 39.945312 15.347656 36.757812 19.054688 38.265625 C 22.765625 39.769531 19.992188 41.511719 23.925781 41.476562 C 27.859375 41.511719 25.085938 39.769531 28.796875 38.265625 Z M 28.796875 38.265625 " fill-opacity="1" fill-rule="nonzero"/><path fill="#3588cb" d="M 12.601562 20.546875 C 12.488281 20.546875 12.378906 20.566406 12.265625 20.574219 C 12.195312 20.847656 12.109375 21.144531 11.96875 21.492188 C 11.519531 22.605469 11.050781 23.132812 10.617188 23.4375 L 12.375 23.4375 L 13.097656 25.601562 L 12.375 27.769531 L 8.882812 27.769531 C 9.242188 29.589844 10.4375 28.476562 11.652344 30.554688 C 11.964844 30.613281 12.277344 30.65625 12.601562 30.65625 C 14.09375 30.65625 15.484375 29.996094 16.425781 28.898438 L 19.59375 29.214844 L 19.898438 23.4375 L 17.164062 23.4375 C 16.328125 21.675781 14.554688 20.550781 12.601562 20.550781 Z M 12.601562 20.546875 " fill-opacity="1" fill-rule="nonzero"/><path fill="#3588cb" d="M 27.535156 27.046875 L 27.535156 38.511719 C 27.703125 38.429688 27.875 38.34375 28.074219 38.261719 C 29.074219 37.855469 29.738281 37.800781 30.242188 37.867188 C 30.472656 37.84375 30.683594 37.832031 30.863281 37.847656 C 31.378906 36.59375 31.867188 34.8125 31.867188 31.378906 L 31.867188 27.046875 Z M 27.535156 27.046875 " fill-opacity="1" fill-rule="nonzero"/><path fill="#e4eff8" d="M 33.167969 26.179688 C 33.167969 31.285156 29.03125 35.421875 23.925781 35.421875 C 18.820312 35.421875 14.683594 31.285156 14.683594 26.179688 C 14.683594 21.078125 18.820312 16.9375 23.925781 16.9375 C 29.03125 16.9375 33.167969 21.078125 33.167969 26.179688 Z M 33.167969 26.179688 " fill-opacity="1" fill-rule="nonzero"/><path fill="#c4dcf0" d="M 23.925781 16.9375 C 18.820312 16.9375 14.683594 21.078125 14.683594 26.179688 C 14.6875 28.972656 15.953125 31.617188 18.128906 33.367188 C 16.832031 31.734375 16.128906 29.710938 16.128906 27.625 C 16.128906 22.519531 20.265625 18.382812 25.371094 18.382812 C 27.480469 18.386719 29.527344 19.109375 31.167969 20.4375 C 29.414062 18.226562 26.746094 16.9375 23.925781 16.9375 Z M 23.925781 16.9375 " fill-opacity="1" fill-rule="nonzero"/><path fill="#3588cb" d="M 23.925781 11.164062 C 23.492188 11.164062 23.144531 11.191406 22.847656 11.230469 C 25.429688 11.550781 23.539062 13.050781 26.839844 14.457031 C 28.375 15.113281 29.132812 14.9375 29.710938 14.71875 C 29.492188 14.648438 29.257812 14.570312 29 14.457031 C 25.316406 12.890625 28.117188 11.195312 23.925781 11.164062 Z M 32.917969 14.453125 C 32.457031 14.410156 32.109375 14.664062 31.585938 14.8125 C 31.867188 15.007812 32.191406 15.28125 32.59375 15.691406 C 35.398438 18.558594 32.222656 17.765625 33.722656 21.492188 C 35.222656 25.214844 36.957031 22.433594 36.921875 26.449219 C 36.890625 30.464844 35.203125 27.652344 33.640625 31.351562 C 32.078125 35.050781 35.265625 34.3125 32.410156 37.128906 C 32.023438 37.511719 31.703125 37.777344 31.429688 37.964844 C 32.40625 38.277344 32.746094 38.929688 34.570312 37.128906 C 37.425781 34.3125 34.238281 35.050781 35.800781 31.351562 C 37.363281 27.652344 39.050781 30.464844 39.085938 26.449219 C 39.117188 22.433594 37.382812 25.214844 35.882812 21.492188 C 34.382812 17.765625 37.558594 18.558594 34.753906 15.691406 C 33.875 14.796875 33.347656 14.496094 32.917969 14.453125 Z M 28.300781 37.84375 C 27.871094 37.863281 27.332031 37.980469 26.636719 38.261719 C 23.34375 39.601562 25.148438 41.117188 22.847656 41.417969 C 23.136719 41.457031 23.484375 41.480469 23.925781 41.476562 C 27.859375 41.511719 25.085938 39.769531 28.796875 38.265625 C 29.03125 38.167969 29.253906 38.089844 29.453125 38.03125 C 29.152344 37.914062 28.800781 37.816406 28.300781 37.84375 Z M 28.300781 37.84375 " fill-opacity="1" fill-rule="nonzero"/><g clip-path="url(#08accd7d63)"><path fill="#549ad4" d="M 2.988281 8.273438 L 2.988281 4.664062 C 2.988281 3.464844 3.953125 2.496094 5.152344 2.496094 L 42.699219 2.496094 C 43.898438 2.496094 44.867188 3.464844 44.867188 4.664062 L 44.867188 8.273438 Z M 2.988281 8.273438 " fill-opacity="1" fill-rule="nonzero"/></g><path fill="#3588cb" d="M 17.429688 5.386719 L 42.023438 5.386719 C 42.425781 5.386719 42.746094 5.707031 42.746094 6.109375 C 42.746094 6.507812 42.425781 6.832031 42.023438 6.832031 L 17.429688 6.832031 C 17.027344 6.832031 16.707031 6.507812 16.707031 6.109375 C 16.707031 5.707031 17.027344 5.386719 17.429688 5.386719 Z M 17.429688 5.386719 " fill-opacity="1" fill-rule="nonzero"/><g clip-path="url(#50beadd63f)"><path fill="#3588cb" d="M 43.566406 2.679688 C 40.121094 8.117188 13.816406 7.550781 13.816406 7.550781 L 13.277344 8.273438 L 44.867188 8.273438 L 44.867188 4.664062 C 44.867188 3.773438 44.332031 3.011719 43.566406 2.679688 Z M 43.566406 2.679688 " fill-opacity="1" fill-rule="nonzero"/></g><g clip-path="url(#47d3352be2)"><path fill="#3588cb" d="M 4.433594 8.273438 L 4.433594 4.664062 C 4.433594 3.464844 5.398438 2.496094 6.597656 2.496094 L 15.984375 2.496094 C 15.984375 2.496094 15.984375 8.273438 15.984375 8.273438 Z M 4.433594 8.273438 " fill-opacity="1" fill-rule="nonzero"/></g><g clip-path="url(#8eb0f6bf59)"><path fill="#427096" d="M 2.988281 8.273438 L 2.988281 4.664062 C 2.988281 3.464844 3.953125 2.496094 5.152344 2.496094 L 14.539062 2.496094 C 14.539062 2.496094 14.539062 8.273438 14.539062 8.273438 Z M 2.988281 8.273438 " fill-opacity="1" fill-rule="nonzero"/><path fill="#365b7a" d="M 14.261719 2.496094 C 12.667969 7.695312 5.289062 7.722656 2.988281 7.601562 L 2.988281 8.273438 L 14.539062 8.273438 C 14.539062 8.273438 14.539062 2.5 14.539062 2.5 L 14.261719 2.5 Z M 14.261719 2.496094 " fill-opacity="1" fill-rule="nonzero"/></g><path fill="#ffca28" d="M 16.425781 29.621094 C 15.484375 30.71875 14.09375 31.378906 12.601562 31.378906 C 10.652344 31.375 8.878906 30.253906 8.042969 28.492188 L 12.375 28.492188 L 13.097656 26.324219 L 12.375 24.160156 L 8.042969 24.160156 C 8.878906 22.398438 10.652344 21.273438 12.601562 21.269531 C 14.550781 21.273438 16.328125 22.398438 17.164062 24.160156 L 19.898438 24.160156 L 19.59375 29.933594 Z M 16.425781 29.621094 " fill-opacity="1" fill-rule="nonzero"/><path fill="#ffca28" d="M 21.039062 24.160156 L 32.589844 24.160156 C 33.789062 24.160156 34.757812 25.125 34.757812 26.324219 C 34.757812 27.523438 33.789062 28.492188 32.589844 28.492188 L 30.953125 28.492188 Z M 21.039062 24.160156 " fill-opacity="1" fill-rule="nonzero"/><path fill="#ecb200" d="M 32.488281 24.160156 C 32.832031 24.542969 33.046875 25.042969 33.046875 25.601562 C 33.046875 26.777344 32.121094 27.722656 30.957031 27.761719 L 30.957031 28.492188 L 32.589844 28.492188 C 33.789062 28.492188 34.757812 27.523438 34.757812 26.324219 C 34.757812 25.125 33.789062 24.160156 32.589844 24.160156 Z M 32.488281 24.160156 " fill-opacity="1" fill-rule="nonzero"/><path fill="#ecb200" d="M 19.007812 24.160156 C 18.003906 28.929688 12.589844 30.199219 9.824219 30.535156 C 10.632812 31.070312 11.59375 31.378906 12.601562 31.378906 C 14.09375 31.378906 15.484375 30.71875 16.425781 29.621094 L 19.59375 29.933594 L 19.898438 24.160156 Z M 19.007812 24.160156 " fill-opacity="1" fill-rule="nonzero"/><path fill="#e4eff8" d="M 6.597656 5.386719 C 6.597656 5.785156 6.273438 6.109375 5.875 6.109375 C 5.476562 6.109375 5.152344 5.785156 5.152344 5.386719 C 5.152344 4.988281 5.476562 4.664062 5.875 4.664062 C 6.273438 4.664062 6.597656 4.988281 6.597656 5.386719 Z M 6.597656 5.386719 " fill-opacity="1" fill-rule="nonzero"/><path fill="#e4eff8" d="M 9.484375 5.386719 C 9.484375 5.785156 9.164062 6.109375 8.765625 6.109375 C 8.363281 6.109375 8.042969 5.785156 8.042969 5.386719 C 8.042969 4.988281 8.363281 4.664062 8.765625 4.664062 C 9.164062 4.664062 9.484375 4.988281 9.484375 5.386719 Z M 9.484375 5.386719 " fill-opacity="1" fill-rule="nonzero"/><path fill="#e4eff8" d="M 12.375 5.386719 C 12.375 5.785156 12.050781 6.109375 11.652344 6.109375 C 11.253906 6.109375 10.929688 5.785156 10.929688 5.386719 C 10.929688 4.988281 11.253906 4.664062 11.652344 4.664062 C 12.050781 4.664062 12.375 4.988281 12.375 5.386719 Z M 12.375 5.386719 " fill-opacity="1" fill-rule="nonzero"/><path fill="#e4eff8" d="M 17.429688 4.664062 L 42.023438 4.664062 C 42.425781 4.664062 42.746094 4.984375 42.746094 5.386719 C 42.746094 5.785156 42.425781 6.109375 42.023438 6.109375 L 17.429688 6.109375 C 17.027344 6.109375 16.707031 5.785156 16.707031 5.386719 C 16.707031 4.984375 17.027344 4.664062 17.429688 4.664062 Z M 17.429688 4.664062 " fill-opacity="1" fill-rule="nonzero"/><path fill="#ff5151" d="M 31.570312 6.792969 L 26.460938 15.542969 L 26.460938 15.546875 C 25.382812 17.390625 26.820312 19.828125 28.921875 19.828125 L 39.148438 19.828125 C 41.25 19.828125 42.6875 17.390625 41.609375 15.546875 L 41.609375 15.542969 L 36.496094 6.792969 C 36 5.953125 35.121094 5.433594 34.027344 5.390625 C 32.941406 5.4375 32.0625 5.957031 31.570312 6.792969 Z M 31.570312 6.792969 " fill-opacity="1" fill-rule="nonzero"/><path fill="#ff2929" d="M 37.792969 9.011719 C 38.082031 18.476562 31.015625 19.238281 26.859375 18.867188 C 27.367188 19.445312 28.089844 19.828125 28.921875 19.828125 L 39.148438 19.828125 C 41.246094 19.828125 42.6875 17.390625 41.609375 15.546875 L 41.609375 15.542969 Z M 37.792969 9.011719 " fill-opacity="1" fill-rule="nonzero"/><path fill="#c4dcf0" d="M 34.757812 16.9375 C 34.757812 17.335938 34.433594 17.660156 34.035156 17.660156 C 33.636719 17.660156 33.3125 17.335938 33.3125 16.9375 C 33.3125 16.539062 33.636719 16.214844 34.035156 16.214844 C 34.433594 16.214844 34.757812 16.539062 34.757812 16.9375 Z M 34.757812 16.9375 " fill-opacity="1" fill-rule="nonzero"/><path fill="#e4eff8" d="M 35.476562 11.164062 C 35.476562 12.605469 34.035156 14.773438 34.035156 14.773438 C 34.035156 14.773438 32.589844 12.605469 32.589844 11.164062 C 32.589844 10.363281 33.238281 9.71875 34.035156 9.71875 C 34.832031 9.71875 35.476562 10.363281 35.476562 11.164062 Z M 35.476562 11.164062 " fill-opacity="1" fill-rule="nonzero"/><path fill="#c4dcf0" d="M 34.035156 9.71875 C 34.832031 9.71875 35.476562 10.363281 35.476562 11.164062 C 35.476562 12.605469 34.035156 14.773438 34.035156 14.773438 Z M 34.035156 9.71875 " fill-opacity="1" fill-rule="nonzero"/><path fill="#ffd1b5" d="M 21.039062 23.4375 C 20.238281 23.4375 19.59375 24.082031 19.59375 24.878906 L 19.59375 27.769531 C 19.59375 28.570312 20.238281 29.214844 21.039062 29.214844 C 21.839844 29.214844 22.484375 28.570312 22.484375 27.769531 L 22.484375 24.878906 C 22.484375 24.082031 21.839844 23.4375 21.039062 23.4375 Z M 21.039062 23.4375 " fill-opacity="1" fill-rule="nonzero"/><path fill="#ffb98d" d="M 19.59375 27.046875 L 19.59375 27.769531 C 19.59375 28.570312 20.238281 29.214844 21.039062 29.214844 C 21.839844 29.214844 22.484375 28.570312 22.484375 27.769531 L 22.484375 27.046875 C 22.363281 27.046875 22.25 27.046875 22.121094 27.046875 Z M 19.59375 27.046875 " fill-opacity="1" fill-rule="nonzero"/><path fill="#ffb98d" d="M 21.027344 23.4375 C 20.332031 23.4375 19.753906 23.925781 19.617188 24.582031 C 19.8125 24.484375 20.03125 24.421875 20.265625 24.421875 C 21.066406 24.421875 21.710938 25.066406 21.710938 25.863281 L 21.710938 28.753906 C 21.710938 28.855469 21.699219 28.957031 21.679688 29.050781 C 22.148438 28.8125 22.472656 28.332031 22.472656 27.769531 L 22.472656 24.878906 C 22.472656 24.082031 21.828125 23.4375 21.027344 23.4375 Z M 21.027344 23.4375 " fill-opacity="1" fill-rule="nonzero"/><path fill="#ffd1b5" d="M 18.851562 27.769531 C 16.371094 27.769531 15.984375 29.933594 15.984375 33.546875 C 15.984375 37.15625 18.148438 38.597656 18.148438 41.488281 L 28.980469 41.488281 L 29.703125 38.597656 L 31.148438 34.265625 L 31.148438 28.511719 L 23.890625 28.511719 C 23.722656 27.683594 22.996094 27.769531 22.121094 27.769531 Z M 18.851562 27.769531 " fill-opacity="1" fill-rule="nonzero"/><path fill="#ffb98d" d="M 22.84375 28.488281 C 23.457031 28.488281 23.925781 28.957031 23.925781 29.570312 C 23.925781 30.183594 23.457031 30.65625 22.84375 30.65625 L 20.316406 30.65625 C 19.355469 30.65625 19.355469 32.101562 20.316406 32.101562 L 22.84375 32.101562 C 26.816406 31.015625 22.84375 24.746094 22.84375 28.488281 Z M 22.84375 28.488281 " fill-opacity="1" fill-rule="nonzero"/><path fill="#ffb98d" d="M 21.746094 30.65625 C 21.351562 30.664062 21.035156 30.992188 21.039062 31.386719 L 21.039062 32.832031 C 21.039062 33.742188 20.613281 34.59375 19.886719 35.140625 C 19.066406 35.707031 19.972656 36.917969 20.75 36.296875 C 21.839844 35.476562 22.484375 34.191406 22.484375 32.832031 L 22.484375 31.386719 C 22.488281 30.980469 22.152344 30.648438 21.746094 30.65625 Z M 21.746094 30.65625 " fill-opacity="1" fill-rule="nonzero"/><path fill="#ffb98d" d="M 26.566406 24.585938 C 25.765625 24.585938 25.121094 25.230469 25.121094 26.03125 L 25.121094 27.949219 C 25.121094 28.75 25.765625 29.394531 26.566406 29.394531 C 27.367188 29.394531 28.011719 28.75 28.011719 27.949219 L 28.011719 26.03125 C 28.011719 25.230469 27.367188 24.585938 26.566406 24.585938 Z M 26.566406 24.585938 " fill-opacity="1" fill-rule="nonzero"/><path fill="#ffd1b5" d="M 26.816406 23.4375 C 26.015625 23.4375 25.371094 24.082031 25.371094 24.878906 L 25.371094 27.769531 C 25.371094 28.570312 26.015625 29.214844 26.816406 29.214844 C 27.613281 29.214844 28.257812 28.570312 28.257812 27.769531 L 28.257812 24.878906 C 28.257812 24.082031 27.613281 23.4375 26.816406 23.4375 Z M 26.816406 23.4375 " fill-opacity="1" fill-rule="nonzero"/><path fill="#ffb98d" d="M 29.433594 24.585938 C 28.632812 24.585938 27.988281 25.230469 27.988281 26.03125 L 27.988281 27.949219 C 27.988281 28.75 28.632812 29.394531 29.433594 29.394531 C 30.230469 29.394531 30.875 28.75 30.875 27.949219 L 30.875 26.03125 C 30.875 25.230469 30.230469 24.585938 29.433594 24.585938 Z M 29.433594 24.585938 " fill-opacity="1" fill-rule="nonzero"/><path fill="#ffd1b5" d="M 29.703125 23.4375 C 28.902344 23.4375 28.257812 24.082031 28.257812 24.878906 L 28.257812 27.769531 C 28.257812 28.570312 28.902344 29.214844 29.703125 29.214844 C 30.503906 29.214844 31.148438 28.570312 31.148438 27.769531 L 31.148438 24.878906 C 31.148438 24.082031 30.503906 23.4375 29.703125 23.4375 Z M 29.703125 23.4375 " fill-opacity="1" fill-rule="nonzero"/><path fill="#ffb98d" d="M 18.128906 41.015625 C 18.144531 41.167969 18.152344 41.324219 18.152344 41.488281 L 28.980469 41.488281 C 28.980469 40.039062 31.148438 37.835938 31.148438 34.265625 L 31.148438 28.492188 C 31.148438 32.101562 30.253906 40.804688 18.128906 41.015625 Z M 18.128906 41.015625 " fill-opacity="1" fill-rule="nonzero"/><path fill="#ffb98d" d="M 22.222656 27.753906 L 22.222656 28.085938 C 22.222656 28.886719 22.867188 29.527344 23.667969 29.527344 C 24.019531 29.527344 24.335938 29.398438 24.589844 29.191406 L 23.890625 29.191406 C 23.730469 28.398438 23.050781 27.800781 22.222656 27.753906 Z M 22.222656 27.753906 " fill-opacity="1" fill-rule="nonzero"/><path fill="#ffd1b5" d="M 23.925781 23.4375 C 23.125 23.4375 22.484375 24.082031 22.484375 24.878906 L 22.484375 27.769531 C 22.484375 28.570312 23.125 29.214844 23.925781 29.214844 C 24.726562 29.214844 25.371094 28.570312 25.371094 27.769531 L 25.371094 24.878906 C 25.371094 24.082031 24.726562 23.4375 23.925781 23.4375 Z M 23.925781 23.4375 " fill-opacity="1" fill-rule="nonzero"/><path fill="#427096" d="M 17.429688 43.652344 L 29.703125 43.652344 L 29.703125 40.765625 L 17.429688 40.765625 Z M 17.429688 43.652344 " fill-opacity="1" fill-rule="nonzero"/><path fill="#365b7a" d="M 26.09375 40.765625 L 26.09375 43.652344 L 29.703125 43.652344 L 29.703125 40.765625 Z M 26.09375 40.765625 " fill-opacity="1" fill-rule="nonzero"/><g clip-path="url(#a9b8f3eeb7)"><path fill="#427096" d="M 17.429688 42.929688 L 29.703125 42.929688 C 30.101562 42.929688 30.425781 43.253906 30.425781 43.652344 C 30.425781 44.054688 30.101562 44.375 29.703125 44.375 L 17.429688 44.375 C 17.027344 44.375 16.707031 44.054688 16.707031 43.652344 C 16.707031 43.253906 17.027344 42.929688 17.429688 42.929688 Z M 17.429688 42.929688 " fill-opacity="1" fill-rule="nonzero"/></g><g clip-path="url(#13d544cd92)"><path fill="#365b7a" d="M 26.09375 42.929688 L 26.09375 44.375 L 29.703125 44.375 C 30.101562 44.375 30.425781 44.054688 30.425781 43.652344 C 30.425781 43.253906 30.101562 42.929688 29.703125 42.929688 Z M 26.09375 42.929688 " fill-opacity="1" fill-rule="nonzero"/></g><path fill="#ffb98d" d="M 23.925781 23.4375 C 23.230469 23.4375 22.648438 23.925781 22.511719 24.582031 C 22.710938 24.484375 22.929688 24.421875 23.164062 24.421875 C 23.964844 24.421875 24.609375 25.066406 24.609375 25.863281 L 24.609375 28.753906 C 24.609375 28.855469 24.597656 28.957031 24.578125 29.050781 C 25.046875 28.8125 25.371094 28.332031 25.371094 27.769531 L 25.371094 24.878906 C 25.371094 24.082031 24.726562 23.4375 23.925781 23.4375 Z M 23.925781 23.4375 " fill-opacity="1" fill-rule="nonzero"/><path fill="#ffb98d" d="M 26.824219 23.4375 C 26.125 23.4375 25.546875 23.925781 25.410156 24.582031 C 25.609375 24.484375 25.828125 24.421875 26.0625 24.421875 C 26.863281 24.421875 27.507812 25.066406 27.507812 25.863281 L 27.507812 28.753906 C 27.507812 28.855469 27.496094 28.957031 27.476562 29.050781 C 27.945312 28.8125 28.269531 28.332031 28.269531 27.769531 L 28.269531 24.878906 C 28.269531 24.082031 27.625 23.4375 26.824219 23.4375 Z M 26.824219 23.4375 " fill-opacity="1" fill-rule="nonzero"/><path fill="#ffb98d" d="M 29.703125 23.4375 C 29.003906 23.4375 28.425781 23.925781 28.289062 24.582031 C 28.484375 24.484375 28.703125 24.421875 28.941406 24.421875 C 29.742188 24.421875 30.386719 25.066406 30.386719 25.863281 L 30.386719 28.753906 C 30.386719 28.855469 30.375 28.957031 30.351562 29.050781 C 30.824219 28.8125 31.148438 28.332031 31.148438 27.769531 L 31.148438 24.878906 C 31.148438 24.082031 30.503906 23.4375 29.703125 23.4375 Z M 29.703125 23.4375 " fill-opacity="1" fill-rule="nonzero"/></svg>